<?xml version="1.0" standalone="no"?>
<!DOCTYPE svg PUBLIC "-//W3C//DTD SVG 1.1//EN" "http://www.w3.org/Graphics/SVG/1.1/DTD/svg11.dtd" >
<svg xmlns="http://www.w3.org/2000/svg">
<metadata>
This is a custom SVG webfont generated by Font Squirrel.
Copyright   : Copyright c Typographer Mediengestaltung 2001 All rights reserved Full character set added by Dieter Steffmann
</metadata>
<defs>
<font id="CloisterBlackLight" horiz-adv-x="669" >
<font-face units-per-em="1000" ascent="800" descent="-200" />
<missing-glyph horiz-adv-x="377" />
<glyph unicode=" "  horiz-adv-x="377" />
<glyph unicode="&#x09;" horiz-adv-x="377" />
<glyph unicode="&#xa0;" horiz-adv-x="377" />
<glyph unicode="!" horiz-adv-x="281" d="M54 576l87 91l87 -91q-62 -123 -77 -393h-20q-21 278 -77 393zM141 0l-75 74l75 75l74 -75z" />
<glyph unicode="&#x22;" horiz-adv-x="552" d="M151 351h-24q-49 132 -49 253v72h119v-72q0 -109 -46 -253zM385 351h-24q-49 132 -49 253v72h119v-72q0 -109 -46 -253z" />
<glyph unicode="#" d="M236 707h47l-47 -203h117l46 203h47l-49 -203h124l-19 -83h-124l-35 -140h130l-18 -83h-131l-47 -196h-48l50 196h-118l-47 -196h-48l48 196h-112l19 83h113l33 140h-119l14 83h126zM215 419l-35 -140h118l33 140h-116z" />
<glyph unicode="$" horiz-adv-x="520" d="M205 692h55l2 -58l137 -27l-44 -93l-93 19l-2 -171l102 59h8q57 -60 70 -140q0 -6 1 -7v-8q0 -6 1 -7v-7q0 -29 -3 -40q-1 -17 -11 -40q-23 -54 -70 -102.5t-98 -79.5v-95h-58v105l-192 43q14 47 42 91l148 -33v205l-101 -60q-37 25 -62 72q-22 42 -28 93q-1 3 -1 9v21 q0 5 1 6v6q4 39 26 79q20 36 60 63q27 18 52 26q36 12 58 13v58zM291 331q-4 -3 -12 -5q-2 -2 -4 -2t-3.5 -1t-3.5 -2.5t-4 -1.5h-2q-1 -1 -2 -1l2 -239l60 -11q25 36 39 96q0 7 2 17q0 5 1 9v14q-1 3 -1 6v6q-1 3 -1 6q-3 45 -44 90q-3 4 -10 8q0 1 -2 2l-3 1q-1 1 -2.5 2 t-2.5 1t-2 1h-2q-1 0 -3 2v2zM99 564q-2 -8 -7 -23q-1 -11 -4.5 -20.5t-5.5 -24.5q-1 -7 -1 -21v-9q0 -25 17 -68q19 -36 45 -57q7 -2 14 -6q3 0 8.5 -1.5t7.5 -2.5q8 -2 10 -2h11q1 0 2 1h6q1 0 2 1h1v210z" />
<glyph unicode="%" horiz-adv-x="776" d="M543 372q62 -22 102.5 -73t40.5 -115v-7q-1 -3 -1 -8v-7q-1 -3 -2 -8.5t-1 -8.5l-5 -20l-1 -3l-2 -4q-22 -43 -55 -76t-71 -59q-60 21 -92 47q-39 32 -55 86v4q-1 1 -1.5 3.5t-0.5 7.5q-1 1 -1 4v2q-1 0 -1 2q-2 6 -2 11v11q0 68 43 126t105 83v2zM488 306 q-11 -15 -23 -37q-5 -13 -13 -38q-3 -11 -3.5 -17t-0.5 -16q0 -95 89 -136q6 -1 12 -4.5t7 -4t7 -2.5t7.5 -3t6.5 -2t6.5 -2t5.5 -1q31 31 42 88v10q0 1 1 5v12q-1 1 -1 6q0 23 -16 53q-9 23 -24 35q-53 42 -103 52v2zM514 632h50l-66 -115l-298 -527h-51l66 113zM167 636 q3 -3 8 -3h5q1 -1 5 -1q21 -2 53 -27q23 -17 45 -43q1 -2 5 -6q1 -1 2.5 -3t2.5 -4t3.5 -6t3.5 -6q5 -11 10 -28q3 -10 8 -30q1 -6 3 -19q0 -6 1 -9v-9q0 -20 -6 -40q-3 -13 -14 -38q-28 -35 -52 -60.5t-56 -53.5h-1l-2 -2l-3 -1q-2 -1 -3 -1h-3q-2 -2 -4 -2h-6l-1 1h-3v1 h-1q-60 28 -98 73q-44 52 -44 111q0 9 1 14q0 2 3 16q0 1 1 2v3q0 4 1 5.5t2 3.5v3q0 2 1 3.5t1 3.5q6 18 18 39q49 87 114 111v2zM122 566q-6 -10 -16 -29q-5 -9 -20 -54q-3 -27 -3 -26q0 5 7 -44q1 -4 1.5 -4.5t2.5 -6.5q1 0 2 -2t1 -2.5t2 -6.5q22 -37 53.5 -58t74.5 -27 q13 10 25 35q9 17 14 46v10q0 1 1 5v18q-1 1 -1 4q-8 63 -39 88q-4 3 -10 8q0 1 -2 2.5t-3 2t-2.5 2.5t-3.5 2q-15 12 -29 18q-7 6 -30 14q-4 0 -12 2q-2 0 -5 1h-6z" />
<glyph unicode="&#x26;" horiz-adv-x="776" d="M386 690q32 -23 54.5 -56t22.5 -70v-2q-1 -1 -1 -3v-8q-1 -1 -1 -4v-6q-2 -8 -5 -12q-2 -9 -5 -13l-12 -27q0 -1 -1 -2q-4 -4 -4 -8l-95 -84l97 -164l120 98q1 -2 3 -2h2q0 -1 2 -1h2q0 -1 2 -1l3 -3q13 -13 27 -21q6 -3 29 -11h3q1 -1 3 -1h8q3 0 28 5h2q1 0 2 1h2 q1 0 2 1h2q-6 -32 -29 -50q-26 -20 -50 -24h-4q-1 -1 -4 -1h-8q-42 0 -66 27h-4l-1 1h-5l-1 1h-2l-54 -43q17 -48 52 -79q39 -35 87 -35q7 0 12 1t14 3q3 0 9 2q2 0 8 2l42 31v-6q0 -50 -39 -83q-35 -29 -88 -36h-6q-1 -1 -6 -1h-10q2 0 -31 3q-10 2 -27 8q-43 23 -88 85 q-8 11 -11 16q0 2 -2 4.5t-3 4t-2.5 4t-3.5 3.5l-188 -146l-138 206l198 157l-99 180l10 33q40 23 121 66q63 32 125 58v2zM244 320l-106 -84l106 -160h8l91 77zM300 612q-22 -5 -38 -20.5t-16 -36.5v-7h1v-3l1 -1v-1l72 -122q27 10 45.5 38.5t18.5 54.5v9q-1 1 -1 4v5 q-1 1 -1 5q-2 11 -5 18t-10 19q-12 16 -32 29q-1 0 -3 1h-3q-1 0 -2 0.5t-1 1.5h-2h-1q-1 0 -1 1q-3 0 -9 2q-1 0 -4 1h-3z" />
<glyph unicode="'" horiz-adv-x="278" d="M151 351h-24q-49 132 -49 253v72h119v-72q0 -109 -46 -253z" />
<glyph unicode="(" horiz-adv-x="367" d="M267 837q1 -1 4 -4.5t4 -3.5l4 -4q1 0 2.5 -1t1.5 -2q-76 -70 -101 -169q-4 -44 -10 -132q-2 -22 -3.5 -66.5t-1.5 -66.5v-53q0 -12 1 -26q1 -9 2 -27l3 -54q2 -17 5 -52q-2 -10 -2.5 -17t-2.5 -17l-15 -78q-2 -7 -5 -21q-1 -3 -2.5 -9.5t-3.5 -10.5q11 -1 29 -10l27 -14 h1l2 -2q6 -3 16 -10q30 -18 51 -18h5q1 1 4.5 1t10.5 2q3 0 10 4q2 2 4 2t3.5 1t1.5 2.5t2 3.5l4 4v1h1l4 4q1 0 2 1.5t1 2.5l13 -10q-2 -2 -3 -3.5t-1 -3.5t-1 -4.5t-2 -3.5q-54 -95 -127 -95h-15q-1 0 -2 1h-6q-1 1 -2 1q-6 1 -12 6q-7 1 -13 6l-27 12q-2 2 -4 3t-3 1 q-10 5 -45 20h-39q-1 1 -1.5 1t-2 1t-2.5 2h-1l-1 1h-1l-1 1l25 62q2 28 5 85q6 93 8 173l1 44v66q-1 7 -1 23v46q0 7 -1 22.5t-1 23.5v23q-1 8 -1 23l29 109q30 62 74.5 111t101.5 90v2z" />
<glyph unicode=")" horiz-adv-x="367" d="M285 847l15 -10q-21 -39 -32 -72q-14 -42 -14 -75l2 -452q0 -75 -50 -159q-41 -69 -109 -124l-105 -62l-21 -9l-8 17q76 37 124.5 101.5t55.5 146.5q-2 24 -5 71l-9 119q-3 60 -3 122v22q0 4 1 22q3 76 6 108q5 59 16 106q-1 0 -2.5 -1t-4.5 -1h-3q-1 -1 -3 -1 q-7 -1 -20 -4q-6 -1 -17 -1q-10 0 -14.5 0.5t-31.5 7.5q-7 4 -16 6h-6q-1 0 -3 1h-11q-1 0 -3 1h-5q-1 -1 -4 -1h-5q-13 -2 -26 -8l-12 -6l-6 -3q-4 -2 -6 -4l-12 14q3 1 9 7q1 4 6 10q76 97 154 97q6 -2 10.5 -3t6.5 -1q7 -1 18 -4q6 -2 8 -2q6 -2 8 -2q9 -2 26 -5 q10 -2 13 -2h12q11 0 17.5 1.5t17.5 4.5l21 9q9 5 20 16v2z" />
<glyph unicode="*" horiz-adv-x="475" d="M116 849l82 -10q-4 -28 -4 -32q-2 -10 -2 -16v-14q3 -8 10 -23l12 -21q1 -3 2 -3q0 -7 5 -7q0 -2 2 -4q14 22 19 35q11 29 11 40v10q0 1 1 5v24l77 12l6 -78q-32 -8 -53 -23q-24 -13 -42 -37q6 -10 16 -15.5t20 -5.5h5q7 0 12 1t14 3q3 0 6.5 1t4.5 2l12 3q2 1 7 2.5 t6.5 3t11.5 3.5l40 -65l-73 -33q-26 47 -88 73v-2q-1 0 -1 -2v-4q-2 -2 -2 -5v-4q0 -44 40 -91l-52 -62l-54 64q42 38 42 87v21q-33 -12 -51 -27.5t-38 -42.5l-75 28l36 69q33 -15 68 -15h13q4 0 14 2q1 0 2 1h2q2 0 6 0.5t6 0.5l6 2h4q-6 18 -23 31q-12 9 -38 23l-9 3 q-4 1 -10 3l-9 3q-2 0 -8 2z" />
<glyph unicode="+" d="M322 599h17v-227h132l17 25h20l-45 -91l-124 -2v-209l-70 -52v263h-137l-16 -35h-19l39 101h133v178z" />
<glyph unicode="," horiz-adv-x="281" d="M67 77l73 72l71 -67q-26 -119 -132 -170l-12 17q33 27 39 38q12 18 12 37q0 32 -51 73z" />
<glyph unicode="-" horiz-adv-x="396" d="M165 289h169v-63h-169v63z" />
<glyph unicode="." horiz-adv-x="281" d="M140 0l-74 74l74 75l75 -75z" />
<glyph unicode="/" horiz-adv-x="560" d="M89 -33h-64l445 712h64z" />
<glyph unicode="0" horiz-adv-x="520" d="M233 636q180 -69 219 -239q0 -1 1 -4v-4q0 -1 1 -6q0 -8 1 -11v-31q0 -72 -26 -142t-82 -122l-87 -81h-18q-19 0 -43 14q-18 10 -39 26q-3 2 -7 6l-3 3q-2 2 -4 3t-4.5 4t-7.5 6q-48 41 -76.5 101t-28.5 123v9q0 -4 2 34q0 9 2 18q1 6 3 17q5 25 17 58q7 19 23 55 q56 95 157 161v2zM167 543q-66 -95 -66 -223l39 -105q3 -7 7.5 -15t9.5 -13q28 -40 71 -73t92 -33q0 2 1.5 3.5t2.5 3.5q5 5 6 8q56 86 56 152v10q-1 1 -1 4v9q0 81 -63 173q-55 81 -155 97v2z" />
<glyph unicode="1" horiz-adv-x="346" d="M128 640l66 -57l13 -38v-433q2 -6 8 -17q6 -7 12 -12h1q0 -1 0.5 -1.5t2.5 -0.5t3.5 -1t3 -2.5t6 -2.5t8.5 -1q9 5 20.5 16.5t16.5 19.5l15 -15l-118 -103l-105 84q19 12 29 52v372q-2 1 -2.5 4.5t-2.5 4.5q-4 17 -20 33q-8 11 -17 12l-43 -27q-1 -1 -6 1l-5 5z" />
<glyph unicode="2" horiz-adv-x="520" d="M213 640l223 -140v-10q0 -6 1 -9v-13q0 -2 1 -5v-4q0 -114 -118 -205l-140 -85q-60 -36 -95 -92q31 14 75 26q39 11 79 15q6 0 10 1h10q6 0 10 1h23l13 -1l26 -2q6 0 15 -2l15 -3l28 -8q28 -8 57 -21l-78 -91l-97 33l-116 4q-6 -2 -34 -9q-12 -3 -17 -3l-17 -4 q-7 -2 -34 -9q-8 -3 -23 -5q-2 -1 -5.5 -2t-5.5 -1q12 72 58 124t96 98l3 3l3 3q25 23 72 70q35 37 59 80q2 3 4 10q0 -2 4 9.5t5 22.5q0 6 2 16q0 5 1 8v13q-1 1 -1 5v12q-4 25 -17 51t-35 39l-174 -136h-6l-58 57l-2 15z" />
<glyph unicode="3" horiz-adv-x="520" d="M194 636l215 -101q0 -4 1 -8.5t2 -10.5t2 -7v-7q0 -1 1 -6v-6q0 -53 -39 -94.5t-87 -60.5q61 -8 105 -55.5t44 -103.5v-7q-1 -3 -1 -8q-2 -10 -2 -15l-3 -9q-1 -2 -2 -5.5t-1 -4.5q-1 -5 -8 -17q-60 -102 -206 -112q-3 0 -10 -1h-10q-6 0 -9 -1h-10l-164 138l69 68 l200 -165q30 30 45 94q0 7 2 17q0 5 1 9v8q0 50 -29 95.5t-85 57.5q-8 0 -11 1q-17 0 -23 2q-2 0 -6 1h-6h-16l-23 2l4 27q62 -4 118 39.5t56 109.5v3q-1 1 -1 3v11q-1 1 -1 3v7q-1 16 -13.5 27.5t-28.5 11.5l-8 2l-146 -101l-58 62z" />
<glyph unicode="4" horiz-adv-x="541" d="M283 640q61 -41 79 -94v-267h90l19 -74h-107v-108l41 -23l33 25q1 -3 2 -5t3.5 -4.5t2.5 -8.5l-103 -89l-112 72q20 14 26.5 37.5t6.5 45.5v55h-212l-27 81zM244 535l-186 -256h204v235z" />
<glyph unicode="5" horiz-adv-x="520" d="M122 624h279l-31 -89h-236l-31 -206l172 119h14q68 -36 106.5 -92t38.5 -129v-16q-13 -92 -81 -150q-63 -55 -159 -69l-151 93l-18 18l58 68q119 -61 208 -125q32 24 46 55q18 40 18 70v12q-1 1 -1 5v11q-6 55 -43 104.5t-96 58.5l-13 2l-134 -89z" />
<glyph unicode="6" horiz-adv-x="520" d="M246 636l171 -84l-64 -79l-151 77q-1 -3 -3 -3h-6q-1 -1 -2 -1h-3q-30 -49 -43 -88t-23 -95q-2 -11 -2 -20v-28q0 -4 2 -10v-4l1 -1v-9q0 -1 1 -3v-3l196 143h11q53 -27 86 -75t33 -105v-11q-1 -4 -1 -11.5t-3.5 -21t-3.5 -14.5t-1.5 -5t-2.5 -6q-16 -44 -72 -97 q-40 -38 -75 -63l-21 -15q-6 -3 -20 -12q-72 19 -124.5 65.5t-77.5 116.5q-3 12 -3 13t-1.5 5.5t-2.5 6.5q-4 18 -9 53v6q-1 4 -1 7v12q0 71 28 137q33 78 79 121zM244 343l-110 -79q-1 -3 -4.5 -6.5t-3.5 -9.5q1 -2 3 -7t2 -8q5 -7 6 -15q25 -57 73 -97q53 -44 110 -44 q20 17 31.5 40t18.5 53q0 5 1 6v7q0 4 1 7v11q-1 1 -1 5v11q-1 14 -7 30t-15 28q-22 22 -47.5 41t-57.5 25v2z" />
<glyph unicode="7" horiz-adv-x="475" d="M116 624h341l-5 -27q-79 -98 -129 -204.5t-73 -229.5l-12 -124l-122 -49l-9 4q17 156 86.5 289t174.5 250l-213 2q-31 -11 -52 -30q-29 -25 -43 -43l-3 -3q-1 -1 -2 -3l-1 -1l-15 8z" />
<glyph unicode="8" horiz-adv-x="520" d="M198 636h19q7 -2 31 -4q69 -6 129 -50q44 -32 44 -82v-17q-1 -1 -1 -6v-3q-1 -1 -1 -4q-2 -6 -2 -7t-1.5 -3t-1.5 -4q-5 -5 -8 -14q-1 -1 -3 -6l-70 -62q104 -50 111 -126v-24q-1 -1 -1 -4q-1 -35 -22 -75q-18 -35 -45 -62l-116 -91h-22q-70 0 -125 27.5t-78 96.5v2 q-1 1 -1 3v3q-1 1 -1.5 3.5t-1.5 5.5v5q0 43 26 82q18 27 63 72l4 4l6 8q-39 7 -58.5 35t-19.5 62q0 8 5 33q0 -1 3 14q0 1 1.5 6.5t2.5 6.5q5 16 12 28l15 27q0 1 1 3l2 2q1 4 3 6zM157 289l-28 -35l-12 -18q-1 -3 -3.5 -9t-3.5 -9l-3 -9q-2 -6 -3 -10t-1 -15 q0 -15 10 -35.5t25 -32.5q27 -16 53 -26t63 -15h6q1 -1 5 -1h12q30 0 57 10.5t46 29.5q4 4 10 15.5t7 20.5q0 1 1 5v4q0 2 1 4v25q-14 32 -45 46q0 1 -2.5 2.5t-2 1.5t-8.5 3q-3 3 -5 4t-7 3q-14 5 -42 13q-7 2 -43 11q-41 10 -87 15v2zM147 541q-1 -3 -2 -4v-1l-1 -1 q-2 -3 -6 -10l-3 -6q-2 -4 -4 -7t-10 -25q-5 -25 -5 -30q0 -20 11.5 -35t33.5 -21q6 -1 18 -3.5t18 -4.5q2 0 36 -6q12 -1 35 -6q6 0 18 -2l18 -3q23 13 33 27q14 15 21 38q0 2 1 4v4q0 2 1 4v8q-1 1 -2 5.5t-1 7t-8 14.5l-12 12q-15 15 -48 24q-50 14 -84 14q-10 0 -15 1 h-14z" />
<glyph unicode="9" horiz-adv-x="520" d="M244 640q96 -38 152 -115q59 -80 59 -180v-6q-2 -14 -2 -16q-2 -8 -2 -12q-7 -40 -27 -104l-48 -71q-17 -25 -72 -78q-44 -42 -79 -66l-163 91l2 8l62 72l153 -80h10l58 117q2 6 2.5 11.5t2.5 11.5q5 15 6 27l3 26q0 9 1 13v18q-1 1 -1 4v16q-1 1 -1 5v9l-205 -134 q-54 19 -90 66.5t-36 104.5v7q0 2 2 8q0 1 1 3v4q0 2 1 4v3q21 75 82 135q39 38 129 96v2zM167 550q-28 -36 -37 -52q-17 -30 -19 -59q-1 -1 -1 -6v-5q0 -4 2 -18q0 -1 1 -4t2 -5.5t3 -9.5q0 -1 0.5 -2.5t4.5 -9.5l8 -18q47 -78 96 -78h5q2 0 8 2l1 1h1h3l3 1l2 2h2l108 79 q-16 67 -72 116q-51 45 -121 64v2z" />
<glyph unicode=":" horiz-adv-x="281" d="M140 0l-74 74l74 75l75 -75zM140 372l-74 74l74 75l75 -75z" />
<glyph unicode=";" horiz-adv-x="281" d="M67 77l73 72l71 -67q-26 -119 -132 -170l-12 17q33 27 39 38q12 18 12 37q0 32 -51 73zM140 372l-74 74l74 75l75 -75z" />
<glyph unicode="&#x3c;" horiz-adv-x="728" d="M176 498l105 -74l-45 -67q-47 15 -89 50v-285q15 -15 40 -26q13 -8 40 -22l50 38q1 -1 2 -3t3 -4l3 -3q0 -1 1 -3l2 -4q1 -2 3 -4l-126 -95q-78 56 -140 68q27 31 27 66v285q22 6 50 26q7 6 22 17l24 24l2 2l4 4l5 4l4 2t3 1t5 1h5v2zM482 670h23q-29 -26 -39 -49 t-15 -60v-176l136 114q30 -24 46 -47q17 -26 25 -58v-308q-19 -90 -94 -138.5t-161 -66.5h-3q-1 1 -2.5 1.5t-6.5 2.5h-1q-1 1 -2 1h-1q-1 1 -2 1l6 15q139 46 172 147v332l-38 35l-76 -62v-252l31 -37l-79 -68l-78 68l31 37v323l-52 2v53h56v81q-12 58 -48 87l7 2 q3 -3 8 -3h4q1 -1 4 -1q9 -3 25.5 -12t23.5 -19q1 0 2 -2t1 -3l4 -4q41 52 93 62v2z" />
<glyph unicode="=" horiz-adv-x="667" d="M64 490h539v-91h-539v91zM64 258h539v-90h-539v90z" />
<glyph unicode="&#x3e;" horiz-adv-x="746" d="M176 498l105 -74l-45 -67q-47 15 -89 50v-285q15 -15 40 -26q13 -8 40 -22l50 38q1 -1 2 -3t3 -4l3 -3q0 -1 1 -3l2 -4q1 -2 3 -4l-126 -95q-78 56 -140 68q27 31 27 66v285q22 6 50 26q7 6 22 17l24 24l2 2l4 4l5 4l4 2t3 1t5 1h5v2zM479 669h23q-48 -36 -48 -92v-207 l122 128h8l87 -105l-95 -89q42 -40 64 -91q20 -46 27 -105q0 -1 1 -6v-6q0 -2 1 -5v-6l12 -9l19 9l12 -13l-88 -76q-4 0 -10 2t-9 2q-32 53 -39 93l-118 -97q-31 20 -55 32l-29 14q-9 4 -30 12q5 5 7.5 9t4.5 11q2 2 3 5.5t2.5 5t3.5 8.5v331h-52v57h52v71q-10 55 -43 97 q23 0 39 -7.5t37 -23.5l4 -4q21 25 38 35q22 16 49 18v2zM506 229l-54 -53v-79l56 -27l56 50q-9 58 -58 107v2zM528 409l-51 -45l-23 -42v-109l132 130z" />
<glyph unicode="?" horiz-adv-x="333" d="M17 535l73 132h17q74 0 126 -35q60 -41 60 -111q0 -61 -72 -146q-44 -51 -58.5 -88t-14.5 -103h-21q-1 21 -1 30q0 69 41 184q20 53 20 88q0 46 -40 69q-19 11 -40 11q-40 0 -76 -39zM137 0l-74 74l74 75l74 -75z" />
<glyph unicode="@" d="M271 711q3 -1 11 -1q4 0 12 2h11q3 0 6 1h12q1 -1 7 -1h14q67 -8 125 -46q62 -40 85 -100q5 -12 13 -49q11 -50 11 -76q0 -8 1 -11v-19q-1 -3 -1 -8v-14q-15 -164 -119 -226l-7 -7q-11 -11 -21 -15q-4 -3 -24 -10q-8 -3 -9 -3h-12q-1 0 -2 1h-2q-1 0 -2 1h-2q-3 0 -4 2 q-30 35 -43 91l-108 -93q-27 13 -46.5 35.5t-29.5 53.5v4q-1 1 -1 4v14q-1 1 -1 4v27q0 -2 3 19q0 11 5 36q3 5 9 14q22 34 44 56q5 8 11 14l-50 134q10 -1 18 0q18 3 36 7l31 9q5 2 15 7q1 1 2 2.5t1.5 3t3.5 4.5l4 4q0 1 1.5 2.5t1.5 2.5l118 -60q0 -1 1 0v2q0 2 2 5t5 10 q3 4 8 10q1 0 2 -1l3 -2q2 -1 5 -2q0 -5 5 -5q0 -2 2 -2h1q0 -1 1 -1q-3 -2 -6 -6.5t-9 -11t-11 -17.5q-3 -3 -4 -5t-3 -7l-2 -272q0 -1 1 -2q1 -4 2 -6v-3q0 -1 1 -2v-2q2 -4 8 -13q1 0 13 -8l24 12q38 30 61 88q22 55 23 113q0 1 1 5v31q-1 1 -1 5q-3 70 -26 126 q-29 51 -81 81.5t-105 30.5h-9q-4 -1 -10 -1q-13 -2 -40 -9q-12 -3 -10 -3q-1 0 -4 -2l-5 -2q-89 -50 -131 -134q-45 -90 -45 -181v-31q0 -3 2 -20q6 -48 14 -79q33 -121 99 -163q57 -36 112 -36h9q12 0 17.5 0.5t8.5 1t6 1.5h4l15 3q5 2 15 4q125 37 192 155v-5q0 -1 1 -3 v-8q0 -1 1 -3v-2q0 -32 -24 -61t-82 -74q-8 -6 -24 -16q-20 -8 -42 -14l-21 -6q-7 -2 -22 -5q-6 -1 -32 -4q-20 -2 -30 -2q-117 0 -194 83q-40 58 -58 113q-26 78 -26 128v8q-1 3 -1 8v30q0 81 39 170q52 120 162 169q27 12 64 21v2zM227 386q-13 -23 -23 -54q-1 -6 -3 -16 q-1 -5 -1 -14v-8q0 -60 50 -110l76 68v81zM192 527l41 -103l91 -50v105z" />
<glyph unicode="A" d="M589 692h16q-16 -16 -45 -51q-19 -25 -27 -58v-451q7 -29 29 -51l33 26l19 -20l-115 -99q-1 1 -2 1h-3q-10 2 -14.5 5t-12.5 6q-41 47 -52 103l-155 -115l-175 95h-9l-2 -2q-1 -1 -3 -1h-4q-8 -2 -12.5 -4t-6.5 -10v-1q-1 -1 -1 -2v-3q-2 -2 -2 -4v-8q0 -1 1 -2v-3l2 -6 q0 -1 1 -2q1 -6 3 -14.5t2 -12.5v-2q-1 -1 -1.5 -2.5t-2.5 -3.5v-2q-1 0 -1 -1v-2q-1 0 -2 -0.5t-2.5 -1.5t-2.5 -2q-4 -1 -6 -2h-3q-1 0 -2 -1h-2q-11 0 -19 11q-8 8 -8 24q4 13 14 35q6 12 15 35l99 147q-50 38 -80 92q-33 57 -33 116q0 10 3 25q3 19 4 24q0 1 2 9 q0 -3 5 17q0 3 2 8q29 73 93 109.5t136 40.5q1 0 5 1h26q3 -1 10 -1h11q3 -1 11 -2t13 -1.5t15 -2.5q15 -1 27 -6l99 -49q1 -1 3 1l4 4q26 26 46 40q27 19 57 25v2zM149 209l-31 -50l206 -97h9l82 68l-2 79h-264zM238 599q-75 -8 -130.5 -57.5t-55.5 -124.5v-7l2 -6 q0 -1 1 -3v-4q0 -1 1 -3v-3q11 -76 89 -131l140 203q-4 0 -7 3q1 0 -6 3l-10 3q-1 0 -8 2t-9.5 2t-7.5 1h-6q-50 0 -74 -45l-2 6q-1 3 -1 8q-1 1 -1 3v4q0 53 78 82q7 3 20.5 5.5t19.5 2.5q3 0 38 -5h3q0 -1 2 -1h3q0 -1 2 -1q6 -2 8 -2h4q1 -1 4 -1l27 35q-24 13 -55.5 21 t-58.5 8zM384 548l-177 -257h206l-8 221l-15 36h-6z" />
<glyph unicode="B" horiz-adv-x="776" d="M155 698l105 -27q1 -3 3 -3h5q0 -1 2 -1h3q13 0 18.5 0.5t9 1t9.5 2.5q3 0 18 3q4 0 10 2l9 3q7 2 18 4q5 0 18 3q17 4 36 4q-1 0 -3.5 -2.5t-4 -3.5t-4 -3t-5 -3.5t-7.5 -6.5q-4 -1 -7.5 -4.5t-6 -4t-5 -2t-7.5 -6.5q-36 -26 -49 -37q-26 -24 -37 -49q-2 -2 -2.5 -5 t-2.5 -8q-6 -21 -6 -19q0 -1 -1 -3t-2.5 -4t-2 -4.5t-2.5 -7.5v-23q0 -8 2 -22v-24q0 -8 1 -11v-40q0 -1 -1 -30q-2 -34 -7 -102q-3 -45 -3 -44v-7q-1 -3 -1 -8v-7q-1 -3 -1 -7q-9 -30 -23 -50q-2 -4 -32 -45q-2 -2 -2 -3l-3 -3q-3 -3 -4 -6q43 27 75 63.5t39 87.5v252 q0 106 173 182q6 2 16 7q3 1 8.5 3.5t8 3.5t8 2.5t8 2.5t8 3t7.5 2h5q1 0 3 1h6q1 0 3 1h11q1 -1 3 -1q51 -9 91 -63q1 -4 1 -5l2 -3v-3q0 -4 2 -12v-13q0 -1 1 -6v-5q0 -53 -34 -98q-19 -25 -73 -79l-4 -4l-2 -1l-2 -2h7q1 -1 7 -1q10 -2 15 -2q100 -19 111 -96v-201 l-93 -22q-30 -13 -89 -42q-41 -22 -84 -49l-126 41q-9 -1 -26 1q-21 2 -27 2t-7 1h-40q-2 -1 -7 -1q-53 -3 -102 -32q-1 -2 -3 -5t-3.5 -4.5t-6.5 -12.5q-4 -7 -4 -15q0 3 6 -27q0 -1 1 -3l2 -4q1 -2 1 -3q3 -6 7 -17q-4 -14 -15 -18q-2 -2 -4.5 -2t-3.5 -1h-4q-1 1 -3 1h-2 q-1 1 -2 1q-11 5 -17.5 13t-6.5 21v4q-1 1 -1 2v4q-1 1 -1 2v2q0 31 18 54q2 3 19 22l21 23l25 25q11 11 20 23q1 3 3 5l3 5q2 2 2 3q4 6 6.5 13t5.5 17q2 5 2 7t1 6v7q-1 1 -1 3v3q-1 1 -1 3t-1 4t-2.5 4t-4 6t-13.5 9h-4q-1 0 -4 1h-8q-1 0 -2 1h-2q-12 0 -31 -7 q-10 -5 -29 -18l-4 4q-1 0 -1 2v7q-1 0 -1 2v8q0 1 1 2v6q0 1 1 2v2q13 26 37 39q24 17 53 18q1 0 3 1h10l6 2q0 -1 1 0v2q0 1 1 2.5t1 2.5v4q0 1 1 2v2q0 17 -17 35.5t-35 25.5q-2 1 -8 3q-1 0 -7 2q-10 2 -13 2q-27 -3 -55 -17q-1 -1 -6 -3q-1 0 -2 -1t-2.5 -1t-4 -1.5 t-4 -2t-3.5 -2t-4 -1.5l-2 6q0 63 93 93q3 1 11 3q2 0 10 2q4 1 10.5 2t9.5 1v6q0 1 1 3v3q1 11 5 33q7 44 42 90l83 66q-4 -4 -19 -9q-7 -1 -19 -6l-20 -3q-7 -1 -19 -1h-9q-2 0 -5 1h-4q-2 0 -5 1h-5q-3 0 -8 1.5t-5.5 2t-5.5 2t-6 1.5l-3 2h-3q-18 6 -27 7q-12 3 -25 3 q-14 0 -33 -7q-17 -10 -29 -24q-3 -3 -5 -6t-5 -13q-1 -1 -3 -6q-2 0 -2 2v1q-1 0 -1 1q-5 15 -5 17q0 10 3 15v3q1 2 1 3t1 3q0 -1 3 8q3 5 9 16q2 4 11 15q2 2 4 4.5t3 4t3.5 4t2.5 3.5q4 5 11 12q18 10 39.5 18t42.5 8h2q1 -1 3 -1h11q1 -1 3 -1h6v2zM523 171 q-9 -1 -28 -5q-14 -3 -26 -7v-70l54 -19l56 25v64q-2 0 -14 3q-4 0 -14 3q-13 4 -28 4v2zM483 640q-26 -6 -40 -20q-19 -19 -28 -38q-1 -2 -4.5 -10.5t-3.5 -13.5v-283q0 -64 -44.5 -102.5t-98.5 -64.5q6 0 9 1h9q8 0 18 2h17q6 0 9 1h27q7 0 18 -1q4 0 19 -2q12 -1 19 -1h3 q1 -1 4 -1h8q6 -2 10 -2h12v372h23v-105q37 18 68 61q29 40 29 86q0 7 -2 17v5q-1 3 -1 5q-2 6 -3 10.5t-1.5 6t-2 8.5t-6.5 14l-9 9l-9 12q-12 12 -36 29q-6 2 -13 3v2zM469 190q9 0 27 2t27 2h9q3 -1 10 -1q14 -2 20 -3t9 -1h4q1 -1 4 -1v72q-5 -4 -10 -4h-5q-3 -1 -5 -1 h-5q-3 -1 -5 -1h-10q-14 0 -21 1l-21 3q-6 0 -13 1t-15 3v-72zM525 376l-56 -41v-44q1 -3 2 -3.5t3.5 -1t5.5 -1.5q15 -5 17 -5q20 -5 28 -5q7 0 11 1q-2 0 26 7q6 5 12 6v21q0 19 -14 41q-12 19 -35 23v2z" />
<glyph unicode="C" horiz-adv-x="632" d="M368 680l-203 -176v-289l-2 -8q-6 -18 -6 -14l-1 -2l-3 -3q-34 45 -47 85q-15 46 -15 95v10q0 5 1 11q0 9 0.5 13t2.5 10q0 3 1 5v4q0 -1 2 9q0 3 1 5v5l2 10q12 46 43 83l33 37q16 18 32 32q3 1 7 5t5 7l-14 -2q-112 -51 -176 -178l-29 -110v-2q-1 -1 -1 -3v-8 q-1 -1 -1 -3v-4q0 -117 64 -202q67 -90 178 -110l120 -4q139 13 225 152l8 32q-110 -95 -213 -95h-9q-4 0 -5 1h-5q-4 0 -6 1h-5q-5 0 -9 4v489l140 -47l93 95h-1l-1 -1h-4q-1 -1 -2 -1h-2q-106 0 -198 62zM314 585l2 -502q-34 0 -69 20q-25 17 -43.5 32.5t-32.5 29.5 q10 13 17 18l10 10l5 6q2 3 4 5q34 38 47 59q21 31 21 70v219z" />
<glyph unicode="D" horiz-adv-x="842" d="M39 696q22 -46 68 -55l337 14q37 -3 107 -10q49 -7 90 -44q38 -34 59 -83q19 -44 31 -93q2 -5 4 -16q0 -4 3 -15t6 -32q2 -8 4 -50q3 -51 3 -52v-34q0 -12 1 -17v-67q0 -8 -1 -24.5t-1 -24.5q-79 -30 -165 -105q-13 4 -82 21l-42 9q-42 9 -64 9q-32 4 -64 4h-25 q-2 -1 -8 -1q-17 -1 -50 -5q-17 -2 -48 -10q-73 -19 -140 -58h-3q-1 0 -2 -1h-6l-1 -1h-7q0 2 2 8q1 3 2 3t2 1.5t1 2.5t1 2h1v1l206 134q32 21 57 60q22 34 26 79v8q-1 2 -1.5 9t-0.5 17q-3 33 -3 34v9q-1 6 -1 9v17q0 16 1 32l6 66q2 10 7 32q8 36 17 62l-6 2q-1 -2 -3 -2 h-1l-1 -1h-3q-1 -1 -3 -2t-4 -1q-47 -32 -58 -78v-10q-1 -3 -1 -10q-1 -10 -1 -21q-1 -1 -1 -6v-6q0 1 -1 -17l-1 -18q-1 -19 -1 -34v-15q0 -10 1 -14q0 -16 0.5 -30t2.5 -28q-8 -68 -53.5 -117.5t-103.5 -88.5l-37 -25q-24 -16 -35 -21h-13l16 16q6 6 17 18q37 42 45 55 q22 33 22 66v4q-1 1 -2 6t-1 9v4q-2 2 -2 4v4q-2 2 -3 7q-1 0 -1 2q-9 21 -24.5 35t-35.5 14l-12 2l-23 -14q-6 -5 -20 -14l-3 -3l-2 -2q0 45 36 72q33 23 80 23h6l27 2q3 150 151 229l-184 2q-34 0 -67 37q-26 35 -30 71v18q0 3 2 11l1 1v2q0 1 0.5 4.5t1.5 4.5l1 3v5z M531 225q-2 -1 -15 -4q-17 -3 -48 -16q-11 -4 -28 -19v-58q87 -13 148 -28q16 -4 48 -13q0 1 1 5v4q0 2 1 5v32q-1 3 -1 8v16q-2 10 -2 16l-3 15q-11 8 -36 21q-18 11 -39 12q-2 0 -5 1h-5q-2 0 -5 1h-5zM417 543l-27 -2q-2 -5 -7 -15q0 -2 -2 -7t-3 -8q-2 -9 -8 -30v-4 q-1 -3 -1.5 -6t-0.5 -9v-9q-1 -4 -1 -10q-3 -21 -3 -29v-10q0 -7 -1.5 -20.5t-1.5 -19.5q-1 -26 -1 -37v-15q0 -23 1 -30t2 -16.5t2 -16.5q0 -3 1 -7v-8q-8 -47 -40 -100l23 2q4 -3 15 -3h17q14 -2 18 -2h9q3 -1 9 -1v413zM628 345q-2 -2 -6 -5t-5 -4q-6 -1 -12.5 -4.5 t-10.5 -7.5q-2 0 -6 -1.5t-6 -2.5q-24 -8 -47 -8q-45 0 -93 29v-122q31 13 48 17q9 3 24 5q3 0 11 1h12q8 0 24 -2q8 0 25 -4q8 -1 24 -8q4 -2 12 -5q2 -1 6 -2.5t6 -3.5zM440 539v-155q5 -24 22 -33q14 -9 40 -15q13 -3 15 -3h18q2 0 4 1h6q1 0 3 1h2q24 5 36 11.5t34 21.5 q0 2 2 8q0 1 1 5v5q0 1 1 2v12q-1 1 -1 4v5q-1 1 -1 4q-7 34 -34 65.5t-55 45.5q-2 1 -4.5 2t-8.5 3q-2 2 -12 4q-2 0 -6 1h-7q-4 0 -12 2h-14q-1 0 -6 1h-6z" />
<glyph unicode="E" d="M370 684q88 -60 186 -60h9q3 0 11 2q1 0 5 1h5q1 0 5 1h4l-143 -153h108l-50 -103h-167v-289l3 -2q0 -1 2 -1h6l15 -3h15q57 0 113 26.5t98 65.5q-6 -52 -48 -92q-38 -37 -90 -62q-7 -4 -20 -9q-7 -1 -17 -4.5t-31 -6.5l-15 -3q-5 0 -13.5 -1t-11.5 -2h-11q-7 0 -10 -1 h-19q-94 0 -173.5 52t-112.5 138q-21 55 -21 115q0 40 19 120q4 6 6 14q2 5 7 15q72 144 183 180l19 2q-145 -125 -145 -246v-2l1 -1v-3l1 -1v-1q0 -98 56 -172v-2h1q0 -1 0.5 -1t1.5 -1v-1h1v-1l10 25q4 37 10 113q0 6 1 19v35l-1 16q-2 32 -2 34q-2 14 -2 22q-2 14 -2 22 v6q-1 1 -1 5v6q-1 1 -1 5zM316 585l-39 -35v-228l-8 -35q-46 -67 -83 -104l-8 -8q-3 -3 -3 -4l-4 -4q63 -66 145 -86v504zM343 570v-177l124 130z" />
<glyph unicode="F" horiz-adv-x="684" d="M477 684l-74 -60q-15 -13 -49 -27q-16 -7 -28.5 -10t-23.5 -4l-97 -15v-97l-89 -2q-17 -8 -25 -12.5t-11 -6.5q-12 -7 -24 -18.5t-25 -27.5q-21 -27 -25 -57v-11q0 -2 1 -2v-5q0 -1 1 -1v-4l3 3q1 0 4.5 3.5t6.5 4.5q15 13 27 20l18 11q8 4 14 8h124v-359q-2 -6 -3 -10.5 t-2 -7.5l-8 -19q-8 -19 -25 -32l-9 -3q-11 -4 -11 -3h-7q-8 10 -19 19t-25 19l-29 14q-13 6 -24 8q-3 0 -4 1h-5q-4 0 -5 1l-3 1h-3h-8q-2 0 -3 1h-12l-1 -1q-41 -4 -77 -34q-36 -32 -36 -74v-4q1 -2 1 -5v-10q2 -8 2 -10l3 -9q17 56 67 56h2q1 0 1 -1h3q1 0 1 -1h1 q69 -31 105 -31h15l33 8q16 4 30 9q34 9 80 25t105 39q1 1 2 1.5t2 1.5l4 4q4 1 10 6q85 64 102 123v279h124l35 99h-153l2 95l30 -11q17 -6 40 -11q13 -3 17 -3q7 -1 11.5 -1.5t6.5 -0.5q5 0 7.5 0.5t5.5 1.5h5q48 10 87 46q38 36 38 85q-5 -3 -13 -6l-19 -6 q-10 -4 -19.5 -6.5t-15.5 -3.5q-12 -2 -18 -3.5t-21 -1.5h-2q-1 0 -1 1h-5q-2 0 -2 3zM357 556v-407q0 -69 -47 -130q-42 -54 -112 -79q37 22 66 66q23 33 40 87q0 4 1 5t3 9v434z" />
<glyph unicode="G" horiz-adv-x="735" d="M362 678h2q3 -3 8 -3q2 0 4.5 -1t3.5 -2q9 -3 6 -3q1 0 3 -1.5t2 -2.5q4 -1 13 -10q2 -2 3 -2q58 -21 120 -29q11 -1 30 -3q10 -1 30 -1h10q5 0 6 1h17q4 0 5 1h5l-153 -122q81 -13 131.5 -77.5t50.5 -139.5v-8q-2 -6 -2 -16q-1 -4 -1 -9q-5 -25 -5 -27 q-36 -96 -129 -160.5t-201 -76.5q-12 0 -33 -3h-22q-4 1 -11 1q-22 0 -73 12q-30 7 -48 16q-76 38 -111 134q-8 23 -15 66q-2 13 -2 15v28q0 4 1 7v6q12 120 105 209q69 66 120 106q65 51 130 93v2zM331 360l-44 -19v-12q0 -2 1 -6v-12q0 -2 1 -5v-23q-1 -3 -1 -8v-8 q-1 -2 -1 -8q-1 -17 -6 -33.5t-13 -27.5t-42 -45q-8 -6 -24 -20l-24 -21q54 -79 153 -93v341zM432 151q-26 -8 -75 -33v-97q39 -4 77.5 11t67.5 37q1 1 9 7q2 1 9.5 6.5t16.5 14.5q5 7 5 12t1 8v7q-37 20 -65 23q-6 0 -7 1h-7q-1 0 -6 1h-6zM174 490l-42 -64q-4 -16 -8 -27 q-5 -16 -6.5 -24t-4.5 -34q-3 -20 -3 -33v-14q0 -2 1 -6v-7q5 -41 15.5 -72t34.5 -68l13 24v325zM576 248q-63 -39 -119 -39q-6 0 -20 2q-3 1 -9.5 2.5t-10.5 2t-40 12.5q0 1 -2 2t-4 1t-4.5 2t-9.5 5v-91q-1 0 11 3q-1 0 11 3.5t24 5.5l22 3q8 0 12 1h21q3 -1 10 -1 q14 -2 19.5 -2t34.5 -8q18 -5 32 -11q5 7 13 25q1 5 3.5 14.5t3 14t1.5 7.5v6q0 4 1 7v33zM393 386q-4 -3 -10 -3l-9 -3q-5 -1 -17 -8v-95q12 -12 38 -26q22 -7 42 -12q13 -3 14 -3h23q1 0 5 1h5q57 11 86 40q-7 44 -45.5 70.5t-81.5 33.5q-4 0 -18 2q-6 0 -9 1h-9zM285 585 v-207l178 136z" />
<glyph unicode="H" horiz-adv-x="776" d="M159 690l105 -29q11 -3 48 5q5 2 15 5h4q1 0 2 1h1q5 2 14 4q-1 0 14 3q9 3 28 3l-2 -4q-58 -28 -97 -76t-39 -114v-271q-10 -58 -65 -132l-1 -2q-2 -2 -2.5 -3t-2 -2.5t-3.5 -4t-4 -5.5t-3 -6q5 5 8 6l4 4q1 0 4 3q78 67 100 128q9 60 9 122v79q0 11 1 32.5t1 32.5 q0 33 6 64q18 92 149 137q39 13 70 16v-6q-52 -28 -81 -58q-33 -35 -39 -87v-116l169 137q52 -37 84 -87q34 -53 38 -114q0 -4 1 -11v-12q0 -8 0.5 -10.5t1.5 -6.5v-6v-20q0 -6 1 -9v-30q0 -36 -13 -85q-11 -41 -38 -74l-143 -122q-10 -2 -19 -15q-2 0 -3 -1t-1 -3v-2 q-1 0 -1 -1v-2q-1 0 -2 -2t-1 -4v-7q0 -3 2 -6.5t3 -3.5l4 -5h11q4 0 12 -2q2 0 5 -1h6q3 0 6 -1h5q1 0 3 -2l2 -2q1 -1 2 -2.5t1 -2t1 -1.5v-2q0 -1 1 -2v-4q-1 0 -1 -1v-2q-1 0 -1.5 -2.5t-9.5 -11.5q-4 -4 -16 -9q-1 -2 -9 -4q-1 0 -4 -1h-4v-2q-28 2 -40.5 15.5 t-14.5 33.5q-1 1 -1 4v4q0 8 1 12l3 12l9 24l12 21l78 105q16 21 26 62q5 35 5 43q-3 2 -11 5q-4 3 -12 5q-4 2 -11 4l-12 3q-3 1 -9.5 2t-11.5 1t-8 1h-15q-3 -1 -7 -1h-6q-3 -1 -7 -1q-77 -13 -135 -58l-58 -45q7 -2 31 -4l32 -3q10 -2 15 -2q10 -2 16 -2q14 -2 18 -2h30 q5 0 6 1h6q9 2 26 5q9 3 24 9q1 0 3 2l3 3l5 5l6 4q2 2 6 8l14 -12l-95 -138l-117 39q4 0 -35 3t-42 3h-30q-3 -1 -6 -1q-34 -1 -69 -15.5t-48 -43.5q3 -6 7 -18q6 -18 6 -36v-18q-5 -4 -14 -10q-5 -3 -15 -5q-17 2 -23 12.5t-6 19.5v3q0 6 1 12q0 2 1 6q0 1 2 7t2.5 7 t2.5 7q1 0 2 2.5t2 3.5l1 3l2 3l1 3q1 2 1 4t1.5 3t2.5 2.5t1 2.5t2 3l88 107q13 22 13 41v7q-1 0 -1 2v5q-1 1 -2 5.5t-1 7.5l-27 13q-1 -2 -2 -5t-3 -5q-7 -9 -22.5 -19.5t-26.5 -10.5l-2 5q-1 0 -1 1v5q-1 0 -1 1v3q0 37 28 65t65 30v14q0 20 -22 41q-19 18 -41 25 q-2 2 -5 2.5t-8 1t-7 1.5h-6l-8 2q-1 -3 -6.5 -4t-6.5 -1h-3q-2 -1 -3 -1q-6 -2 -7 -2l-7 -3q-2 0 -7.5 -2t-11.5 -6q0 34 32 60q28 23 65 29q3 0 6 1h5q5 0 6 1h6l10 2v-1q-1 0 -1 1v5q-1 0 -1 1v2q0 94 99 182q-35 -7 -28 -7l-15 -3h-14q-1 0 -28 3q-4 2 -13 4l-15 3 q-1 0 -2 1h-2l-1 1h-2q-1 1 -7 3q-2 0 -7 2l-15 3q-1 0 -2 1h-3q-4 0 -12 2h-12q-1 -1 -3 -1h-4q-1 -1 -4 -1q-6 -2 -7 -2l-27 -34q-1 -3 -2 -3h-1q-1 -1 -2.5 -2t-2.5 -1h-2l-2 4q5 53 40 80q40 31 87 35q1 0 3 1h12zM401 227q2 0 17 2l18 3q6 1 22 3q7 0 11 1h22 q4 -1 13 -1q17 -2 52 -9q6 -2 13 -2l12 -3l-2 118q-7 -3 -22 -7.5t-45 -10.5q-7 -1 -22 -1q-6 0 -44 5q-8 2 -23 5q-7 2 -22 7v-110zM498 467l-97 -85l4 -20q9 -9 23 -13l26 -8q6 -2 10.5 -3t15.5 -1h20q4 0 6 0.5t4 1.5h3q3 0 8.5 1t8.5 2l14 4q14 5 30 14q-2 38 -55 99 q-2 1 -9 3.5t-10 2.5z" />
<glyph unicode="I" horiz-adv-x="561" d="M149 680h22q6 -2 32 -4l32 -3q6 0 16 -2l15 -3q11 -1 32 -1l10 2q6 -2 26 0q9 2 26 4h1l1 1q4 0 12 2q4 0 12 2q-68 -75 -78 -145v-16q-1 -3 -1 -6v-4q-1 -1 -1 -4v-8q-2 -14 -2 -19v-40q0 -26 5 -72q4 -42 17 -126l5 -17v-19q-1 -1 -1 -5v-4q-1 -3 -1 -5q-1 -19 -12 -37 q-6 -15 -22 -29q-13 -6 -30 -12q-5 -1 -15.5 -4.5t-15.5 -4.5h-3q-2 -1 -4 -1.5t-6 -0.5h-12l5 -5q3 -1 6 -6l12 -12q26 -21 33 -26q19 -13 39 -19q10 -3 12 -3h4q2 -1 3 -1h14q1 0 9 2q1 0 7 2q1 1 3.5 2t3.5 1.5t3 2t3 2t3.5 2.5t3 3t2 3t1.5 2.5t3 9.5l3 9q0 3 2 9 q0 2 1 5v6q0 3 1 6v18l-39 326l6 110q14 49 52.5 89.5t92.5 40.5l14 2l2 -6q-2 -1 -4 -2.5t-3.5 -2.5t-3.5 -2.5t-4.5 -1.5t-4.5 -1l-4 -2q-15 -8 -24.5 -15.5t-15.5 -24.5q0 -1 -1 -2.5t-1 -4.5v-3q0 -2 -1 -5.5t-3 -8.5v-4l-3 -15q-1 -5 -1 -13v-9q0 -3 2 -9q0 -1 1 -2v-2 q0 -1 0.5 -2.5t1.5 -6.5q0 -1 1 -3v-3l35 -265q0 -6 1 -7v-15q0 -1 1 -3v-29q-1 -4 -1 -11v-11q-1 -4 -1 -11q-6 -55 -31.5 -109.5t-90.5 -70.5q-3 0 -11 -2l-12 -3q-4 0 -10.5 -1t-9.5 -2h-8q-6 0 -7 -1h-11q-1 1 -4 1h-9q-3 1 -7 1h-6l-144 45l-2 -2h-3q-1 0 -3 1h-8 q-1 0 -3 1h-2q-28 0 -54 -21q-18 -14 -26 -31v2q-1 1 -2 3t-1 4v1q-1 4 -2.5 6.5t-1.5 8.5q0 33 29 61t61 40q3 2 10 4q2 0 8.5 2.5t11.5 3.5t8 1l58 2q0 -2 2 -2q1 0 2 1t7 3q1 1 3 2l4 2l7 8q5 5 6.5 7.5t3.5 9.5v10q0 3 2 11v14q0 2 1 4v13q-1 3 -1 10v10q-1 3 -1 10 q-16 102 -83 102l-8 2q-12 -3 -36 -8q-6 -2 -18 -5q-3 -1 -9 -2.5t-10 -3.5q10 45 50 69q36 22 85 22q0 120 93 213l-7 -3l-9 -5q-4 -2 -13 -4l-30 -9q-18 -2 -28 -2t-32 2q-5 1 -16 3t-17 2t-16 2q-6 0 -14 2q-23 -6 -37.5 -18t-26.5 -34q2 41 29.5 76t67.5 42v2z" />
<glyph unicode="J" horiz-adv-x="561" d="M165 682h11q3 -3 7 -3h14q1 -1 3 -1h7l175 -35q1 -3 4 -3h6q2 -2 4 -2h5q8 0 43 5q7 2 21 5q4 2 10.5 4.5t9.5 3.5t8 3t7 2q8 5 15 6l4 2q2 1 3.5 1t8 3.5t14.5 4.5l15 2v-14q-1 -1 -1 -2v-3q-1 -1 -1 -2v-4q-76 -68 -91 -176v-262q0 -11 -2 -29q0 -9 -4 -27 q-23 -109 -111 -197t-197 -88h-10l-120 35q-5 0 -13 -2q-4 -3 -10 -6l-5 -5q-6 -6 -8 -9t-3.5 -4.5t-2 -2.5t-2 -3t-1.5 -3t-1 -2.5t-2.5 -3t-1.5 -2.5l-2 -2v-2l-2 -2l-14 4q12 48 37.5 84.5t75.5 47.5q24 -4 71 -9q11 -2 35 -7q6 -1 18 -4q6 -2 17 -5q51 3 51 64v6 q-1 3 -1 7v7q-1 1 -2 6l-2 11q-1 5 -2 9l-2 9q-1 5 -1 7v2q-1 1 -1.5 2t-1 3.5t-1.5 5.5q-65 109 -174 109q31 31 77 31q6 0 21 -2q8 0 23 -4h4q2 -1 3.5 -2t5.5 -1h4q2 -1 3.5 -2t5.5 -1v14q0 35 -39 66q-36 27 -74 32q-8 3 -23 3q21 29 67 32q1 0 3 1h17q3 -1 8 -1h8 q3 -1 9 -1q12 -3 36 -8q11 60 41 106q27 41 81 80q2 1 3.5 2t2.5 1.5t3 2t3 2.5t5 3.5t6 3.5t3.5 2t2.5 1.5t3 2t3.5 2t4.5 3.5q3 0 6 3l-116 -35l-50 4l-126 41h-14l-28 -9q-15 -4 -26 -15v-2q-1 -1 -1 -3v-2q-1 -1 -1 -3v-2q-2 -2 -2 -6v-7l1 -1v-3l1 -1v-1q3 2 14 4t15 2 h4q1 -1 5 -1h5q1 -1 4.5 -1.5t6.5 -1.5l6 -2l4 -4q0 -2 2 -3.5t3 -3.5t1 -4t1.5 -4t4.5 -10q0 -2 1 -5v-4q0 -18 -14 -30.5t-36 -12.5h-3q-1 0 -2 1h-2l-9 3h-2q-1 0 -2 1h-3l-1 1h-1q-14 12 -20.5 23.5t-11.5 27.5v3l-1 3q-1 1 -1 5v3q-1 2 -1 3v5q0 7 0.5 10.5t1 5.5 t1.5 4v2q5 20 16 36q7 10 27 30q53 43 115 46v2zM481 622q-66 -37 -99 -80q-36 -48 -53 -114l-11 -366q-1 -10 -3 -18l-3 -15q-2 -6 -2 -7.5t-1 -4t-2 -4.5q-2 -6 -2 -7q-1 -4 -3 -6q-40 -47 -79 -70q50 5 90.5 43t46.5 89l12 378q13 53 40 97t69 83v2z" />
<glyph unicode="K" horiz-adv-x="736" d="M349 684v-2l-16 -3q-6 -2 -10 -4h-3q-48 -14 -78 -14l-24 3q-15 5 -44 10q-3 0 -13.5 1.5t-12.5 3.5h-8q-10 0 -14 3l-8 -2h-1q-1 -1 -2 -1h-3q-34 -6 -64 -37q-29 -31 -40 -66q-3 -10 -3.5 -14.5t-0.5 -13.5v-4q0 -1 1 -1v-5q0 -1 1 -1v-2h3q3 0 5 2v1h2v1q2 0 3 1l1 1 h1q0 1 2 3l5 5l5 7l11 11l8 8h1q1 0 7.5 3.5t11.5 5.5q7 4 10 4h1l5 2q2 0 3 1h2h4q2 -1 7 -2t8 -1h2q1 -1 2 -1q8 -2 11 -2h11q15 0 20 1q30 1 72 17l26 12l42 19q-49 -42 -81 -89.5t-43 -116.5q-1 0 -7 2.5t-14 5.5q-4 2 -12.5 2.5t-11.5 1.5h-7q-23 0 -39.5 -7.5 t-34.5 -25.5q-5 -5 -5.5 -9.5t-5.5 -9.5q-2 -7 -3 -8.5t-1 -3.5v-4q8 2 10 3l15 6h4q3 0 5 1h14q45 0 74 -35q30 -34 31 -80q-11 4 -24 6q-10 2 -12 2q-5 1 -8 1.5t-5 0.5h-11q-70 0 -70 -58l8 -2q11 7 15 8t11 3h4q2 0 3 1h4q1 -1 3 -1h7q7 -2 8 -3.5t3 -1.5q7 -5 14 -17 t8 -20v-8q0 -2 1 -3v-8q-1 -3 -1 -5v-5q-1 -3 -1 -5q-2 -8 -4 -13.5t-4 -9.5q-4 -12 -9 -17l-93 -112v-3q0 -5 4 -9h19l105 31q2 0 12 2q2 0 5.5 0.5t8.5 1.5q7 0 10 1h9q7 0 10 1h9q8 0 23.5 -1.5t22.5 -2.5q9 0 22.5 -2t23.5 -5q10 -2 17.5 -4t12.5 -4q22 -5 58 -18 l112 122q34 -72 84 -122h9l97 113l-17 13l-27 -23l-23 31q-7 8 -14 26l-15 27q-65 114 -152 160l169 134l-103 122l-8 -2q-97 -97 -164 -143v54q4 25 12 54q5 20 9 34l8 24l35 70l-24 -2q-4 -7 -12 -29l-12 -30l-5 -13q-3 -8 -6 -17t-6 -17t-4 -14l-9 -30q-2 -10 -4 -16.5 t-4 -11.5v-252q-2 -11 -4 -17.5t-2 -8.5l-3 -10q0 -2 -4 -12q-3 -9 -4 -14t-2 -8q-26 -41 -60 -63q-41 -27 -73 -41q-2 -2 -6.5 -3.5t-6.5 -3.5q-6 -2 -12 -6q-6 -3 -15 -8l-18 -11l-17 -10q-9 -6 -15 -9q8 8 16.5 15.5t18.5 14.5l18 15q10 10 31 28l55 47l36 33q2 2 3.5 5 t4.5 6q0 2 2 4q17 36 17 55q-2 16 -3 28.5t-1 20.5v9q-1 1 -1 3v8q-1 4 -1 8q-1 5 -1 9v6q-1 8 -1 15v15v26q0 -2 0.5 5t1.5 23q1 19 3 36t4 31q7 49 12 66q16 70 45 127zM368 254v-2q62 -8 112 -86l18 -30v-3q-1 -1 -1 -3q-2 -8 -2 -7q0 -4 -1 -5.5t-3 -7.5q0 -3 -1.5 -4.5 t-3.5 -8.5l-9 -7l-5 -5q-13 -7 -15 -8q-59 24 -117 27q-4 0 -6 1h-6q-8 0 -12 2l-33 -2q70 76 70 145h3q1 0 2 1h7q1 0 3 3zM444 492l66 -73l2 -14l-161 -122v126z" />
<glyph unicode="L" horiz-adv-x="650" d="M494 684v-2h-15q-30 0 -69 -15q-34 -14 -57 -41q-31 -50 -34 -108q-1 -5 -1 -10v-10q0 -7 0.5 -18.5t1.5 -27.5q3 -16 5.5 -39t4.5 -53q3 -17 3 -44v-17q-1 -1 -1 -4v-6q-22 -150 -142 -233v3q0 1 1 2v4q0 1 1 2v1q34 47 54 86q23 45 39 98v62q0 7 -0.5 12t-0.5 11v13 l-2 22q-1 11 -1.5 20t-0.5 16q-3 21 -3 69q0 13 1 26l2 27q4 16 6 34l5 22q2 9 4 15l62 70l-4 5q-1 -1 -2 -1l-1 -1q-7 -4 -11 -4q-26 -10 -39 -15.5t-21 -5.5q-8 -1 -13.5 -1.5t-7.5 -0.5h-4q-2 0 -2 1h-6q-3 0 -4 3l-106 29h-7q-2 -1 -8 -1l-15 -3q-42 -8 -74 -41 q-32 -32 -32 -73v-4l2 -4h2q3 0 6 3h1q1 0 2 1h1q5 7 9.5 11.5t6.5 8.5q4 4 4 5q0 2 2 4l11 11h2q5 0 6 1h19q3 -1 6 -1h4q6 -2 9 -2l15 -3q7 0 15 -5q5 -1 8.5 -3t11.5 -2h2q1 -1 3 -1h9q1 -1 3 -1h5q14 0 18 1q12 1 18 3l27 9q6 2 12.5 4.5t13.5 6.5q-78 -78 -78 -179v-10 q0 -3 1 -8t2 -6v-5q0 -3 1 -4v-3l-23 -2q-36 -3 -51 -10q-24 -10 -38 -33l6 2l11 -2q2 0 6.5 -0.5t10.5 -1.5q19 -3 20 -4q18 -6 45 -26q21 -17 21 -36v-15h-7q-1 0 -9 2h-11q-2 0 -3 1h-8q-17 -1 -28 -6q-15 -6 -21 -15q4 0 10 -1.5t9 -2.5q6 -2 10.5 -4t7.5 -3 q13 -5 31 -20q4 -5 6.5 -9t4.5 -6q4 -4 3.5 -4.5t3.5 -11.5q0 -2 2 -12q0 -4 1 -6v-5q0 -2 -0.5 -6.5t-1.5 -11.5q0 -2 -1 -7t-4 -11q-2 -8 -3 -10t-3 -7q-4 -8 -8 -15l-95 -95l15 -8q13 7 31.5 14t43.5 15q54 17 82 20q11 2 20 2.5t14 1.5q11 1 20 1.5t14 0.5h10q2 -1 9 -1 h10q2 -1 10 -1q106 -15 159 -68l118 112l-20 14q0 -1 -1.5 -2.5t-1.5 -2.5q-1 -1 -7 -9l-4 -4q-1 -1 -1.5 -2t-1.5 -2q-2 -1 -3 -1h-1l-6 -4q-3 0 -7 1.5t-4 3.5h-2l-15 12q-5 4 -9.5 7t-6.5 5q-6 1 -12 5q-5 2 -8 2.5t-5 1.5q-8 2 -14 4t-10 4q-24 6 -42 8t-39 2 q-6 0 -15 -0.5t-20 -1.5q-36 -7 -63.5 -13.5t-46.5 -11.5l83 77q39 36 58 88q21 57 19 108l-9 211q9 61 81 66q4 2 6 4t4 3q6 6 8 11q-2 7 -9 8q0 2 -3.5 2.5t-7.5 4.5z" />
<glyph unicode="M" horiz-adv-x="950" d="M446 692q11 -7 30 -22q4 -4 13 -11.5t13 -11.5q0 -2 1.5 -4.5t2.5 -2.5q5 -12 15 -34q5 -11 10 -34l165 118l108 -74q6 7 20 18q10 6 27 12h3q1 0 2 1h1v-10q-1 -1 -1 -3v-6q-1 -1 -1 -2v-4q-3 -3 -4 -6l-4 -4q-18 -23 -27 -56v-440l21 -37q3 -1 6 0q4 1 5 2.5t4.5 3 t5 2.5t3.5 3l3 3l16 -14l-95 -89h-10q-34 18 -51.5 44.5t-22.5 70.5v459l-71 50q-1 -3 -3 -3h-2l-1 -1q-3 -3 -5.5 -4.5t-4.5 -2.5l-2 -2v-215h60l-64 -86v-168l15 3q4 2 11 8l17 -11l-163 -142q-15 18 -48 52q-22 21 -58 47q12 8 19.5 20t8.5 22v3q0 1 1 2v164h-115v-195 q-6 -57 -27.5 -99.5t-76.5 -59.5q-1 0 -4 -1h-5q-1 0 -4 -1h-22q-8 0 -26 2l-27 3q-9 2 -28 5q-9 1 -26 1q-23 0 -43 -10.5t-34 -39.5q0 1 -1 3v4q0 2 -2 8v9q0 1 -1 4v3q0 34 27 64q29 26 63 36l6 2q1 0 3 1h2q3 0 5 0.5t4 1.5h2q90 0 103 64v19q0 82 -70 130q-4 3 -18 6 q-6 2 -9 2q-8 2 -9.5 2t-3.5 1h-14q-3 -1 -5 -1h-5q-3 -1 -5 -1q-5 -1 -18 -4q-7 -3 -8.5 -3t-4 -1.5t-4.5 -2.5v1h-1v3h-1v2q0 60 76 86q3 1 10 3l9 3q6 2 9.5 2.5t9.5 0.5q5 71 26 121q23 56 81 94q110 73 213 122v2zM298 579q-12 -11 -34 -36q-16 -23 -22 -41v-376 q0 -28 -20.5 -52.5t-43.5 -36.5q2 0 4 -1.5t3 -2.5q6 -2 9 -2h2q1 -1 2 -1.5t3 -0.5h14q-3 0 21 7q19 5 28 24q0 1 1 2v1q0 1 1 2v1q1 2 2 4.5t1 3t5 20.5q0 3 1 6v404q0 4 1 9t2 9t2 5q2 9 7 26q2 7 11 24v2zM531 300v-172q0 -21 5 -33q6 -16 16 -27q12 2 20.5 7.5 t16.5 13.5v211h-58zM368 610h-6q-1 -2 -3 -2h-1l-1 -1h-3q-2 -2 -4 -2h-3q-7 -7 -25 -34q-13 -19 -20 -38v-209l45 66h68v172q-1 12 -15.5 27t-31.5 19v2zM589 574l-60 -43v-145h60v188z" />
<glyph unicode="N" horiz-adv-x="797" d="M467 671l47 -10q90 -44 133 -88q58 -61 58 -143q-2 -10 -2 -15q-7 -37 -13 -58l-6 -21q-4 -14 -6 -22l-75 -143l-58 -76q3 0 19 2q35 5 40 5t9 1h16q1 -1 7 -1h15q10 -2 15 -2l15 -3q14 -1 28 -6l18 23l21 -11l-68 -115q-12 1 -24 6q-4 0 -12 2l-12 3h-6q-5 1 -7 1h-12 q-16 2 -24 2q-43 0 -74 -15q-34 -17 -54 -57l-13 4l15 62q31 50 61 120q32 75 48 130q-23 23 -77 34q-5 0 -8 1h-12q-1 -1 -4 -1h-9q-18 0 -40 -12q-19 -7 -36 -24v-128q-7 -76 -67 -134t-139 -58h-23l-122 36q-1 1 -2 1h-2q-19 0 -31 -6q-17 -6 -30 -12l-1 -1h-1 q-1 0 -3 -2q13 36 48 61.5t74 25.5l10 2q4 -3 16 -5q6 -1 20 -3q8 -2 12 -2h4l3 -2h6q10 -2 15 -2h15q20 0 40.5 9.5t27.5 27.5v4q0 1 1 3v6q0 1 1 3v8q0 31 -33 63q-29 28 -64 33h-8l-4 2q-4 -3 -11 -4t-8.5 -1t-3 -1t-4 -2t-6.5 -1h-2q-1 -1 -2 -1h-1q-1 -1 -2 -1l-2 6 q0 1 1 2v1q0 1 1 2v1l2 2q0 1 1 3l1 1v1q29 29 73 29h4q1 -1 4 -1h11q6 -2 9 -2l9 -3v10q-1 1 -1 4t-4 8q-3 9 -3 6q0 1 -1.5 3t-2 3t-1.5 2l-2 2l-6 6l-4 4q-2 1 -3.5 4.5t-6.5 4.5q-1 1 -3.5 3t-3.5 2.5t-2.5 1.5t-2.5 1q-5 2 -7.5 4t-4 3t-3.5 1q-8 4 -17 9q-1 0 -7 2 q-10 2 -13 2h-1q-1 -1 -2 -1h-5q-1 -1 -2 -1h-3l-12 -3q-4 -1 -12 -1l-1 1h-1q-2 0 -2.5 1t-1.5 2h-1q-2 0 -2 2q11 18 26 27.5t31 10.5h7q9 0 34 -5q3 -1 15 -4q7 -2 8 -2.5t14 -5.5q6 -2 8 -2q3 3 3 9q0 1 1 5v5q-20 39 -56.5 64.5t-79.5 25.5l-9 2q4 4 6 7.5t7 7.5 q2 2 12 4l12 3q1 0 4 1h5q5 0 16 2h7q30 0 76 -14v87zM357 566l-35 -21v-409q0 -46 -26 -84q-20 -31 -50 -48h2q0 -1 1 -1h6q0 -1 2 -1h3q25 0 51 21q20 20 33 46q0 1 1 2v2q0 2 2 4q2 11 3 18q0 -7 2 19l3 39q0 5 1 15v14q0 10 1 15v369zM591 411q-9 -8 -36 -24 q-46 -19 -72 -19q-20 0 -35 5q-2 2 -8.5 4t-9.5 3.5t-9 4t-10 4.5t-14 9l-15 9v-130q14 6 43 14q28 5 42 5q19 0 31 -3t17 -3.5t17 -3.5t10 -3q4 -1 11 -4q4 -1 11 -3.5t10 -4.5q19 41 19 97v5q-1 1 -1 5v16q-1 1 -1 5v12zM380 566v-116q11 -29 36 -46q23 -13 52 -18h20 q23 0 60 19q22 12 37 31q-12 43 -55 76.5t-91 45.5q-4 2 -24 4q-16 2 -22 2z" />
<glyph unicode="O" horiz-adv-x="756" d="M353 680q5 -3 16 -3q3 0 8.5 -1t7.5 -2q11 -1 32 -6q104 -25 186 -95q85 -73 85 -185q0 -64 -30 -115q-27 -46 -67 -101l-110 -96l-70 -47l-101 -39q-1 0 -5 -1h-5q-1 0 -6 -1h-27q-90 0 -160 51q-73 53 -97 139l-14 109l8 75l31 107zM438 289q0 -1 -0.5 -1.5t-1.5 -0.5 h-1q-1 -1 -2 -1q-27 -4 -56 -21q-28 -20 -38 -44v-161q66 7 132 51q63 42 89 110q-7 24 -26 35q-28 24 -70 29q-16 2 -22 2zM271 572v-262q0 -21 -7 -39q-5 -10 -15 -32q-2 -2 -2 -3v-1l-1 -1l-79 -87q30 -34 66 -52.5t81 -24.5v502h-43zM180 517h-4q-1 -3 -2 -2l-1 -1h-1 q-1 -1 -2 -1h-2q-2 -2 -3 -2.5t-2 -0.5q-33 -46 -45 -75q-26 -61 -28 -99q-1 -7 -1 -20l3 -36q3 -13 10 -38l3 -9q2 -3 4.5 -9t8.5 -19t14 -25q6 -8 19 -23q13 14 21 30.5t8 33.5v296zM560 426q-12 -12 -34 -25q-16 -7 -48 -19q-3 0 -7 -1t-6 -1q-13 -2 -25 -2h-8q-2 0 -5 1 h-4q-3 0 -16 3q-35 8 -66 31v-146q11 8 34 20q8 5 36 14q2 1 17 4q6 0 9 1h16q1 -1 7 -1q10 -2 15.5 -2.5t24.5 -6.5q8 -4 24 -11q23 -11 44 -31q7 11 8 17l3 9q0 3 1 8t2 8v7q0 4 1 7v6q0 6 -2 22q0 4 -2 12q0 4 -2 11t-2.5 10.5t-2.5 11.5q0 2 -10 31q-2 6 -2 10v2z M339 566v-103q7 -42 70 -58q8 -2 9.5 -2.5t8.5 -1t15 -0.5h4q1 0 3 1h8q1 0 2 1h2q56 10 82 47q-26 37 -72.5 68.5t-90.5 41.5q-5 1 -18 3q-5 0 -8 1h-9z" />
<glyph unicode="P" horiz-adv-x="756" d="M486 684h8q85 -61 118 -98q55 -61 62 -136v-338l-149 -124q-15 6 -44 15q-7 2 -22 7q-7 3 -22 6q-11 4 -34 8q-2 1 -8 2.5t-8 1.5t-17 3l-2 -169h-172v186l-49 -3l-18 -7q-5 -1 -18 -4q-4 -1 -13 -3.5t-14 -4.5t-27 -9q-18 -7 -53 -19v2h-1v1h-1v6q0 1 1 2.5t1 2.5 q4 12 11 19l18 18q4 4 6.5 5.5t7.5 5.5t9 8q59 47 140 70v9q0 66 -51 128q-47 58 -112 85l9 6l8 6l15 11l33 24q8 5 25 17q8 6 24 17q13 11 25 18q12 11 24 18v5q0 5 1 6v14q0 2 1 4v16q-1 1 -1 4q-1 33 -21 67t-60 35q-36 1 -73 -16v4q0 1 1 3v3q0 1 1 3l2 4q1 2 1 3 q47 34 90 45q5 0 15 2q5 0 8 1h8q11 0 36 -5q31 -10 53 -24q43 -43 54 -91l29 25l2 95h25v-79zM341 548l-29 -23v-647h29v670zM434 252q-12 -3 -36 -14q-13 -6 -30 -23v-79q104 -25 194 -59v130q-1 3 -4.5 8t-9.5 11l-1 1h-1v1q-1 0 -1 1q-15 8 -30.5 12t-30.5 7q-2 0 -6 1 h-7q-1 0 -6 1h-6zM368 252q63 21 91 21q7 0 25 -2q8 -2 13 -2q2 0 6.5 -1t6.5 -2l25 -9q4 -2 13 -5q2 -1 6 -2.5t6 -3.5v140q-18 -16 -62 -27l-15 -3q-5 -1 -16 -1h-8q-2 0 -5 1h-4q-3 0 -16 3q-23 5 -66 25v-132zM194 440l-72 -47l72 -54v101zM417 589h-8q-1 -2 -3 -2h-2 q-9 -1 -20.5 -7.5t-15.5 -15.5v-138q30 -46 87 -46q6 0 36 5q6 2 19 5q6 3 18 8.5t32 18.5v15q0 48 -66 111q-3 2 -7 6l-3 3q-2 2 -4 2l-13 10q0 1 -2.5 2.5t-2 1.5t-8.5 3q-3 3 -5 4t-7 3q0 1 -2.5 2t-3.5 1t-7 2q-2 2 -12 4v2z" />
<glyph unicode="Q" horiz-adv-x="776" d="M353 671q6 -2 9.5 -2.5t9.5 -0.5q112 -16 195 -70.5t113 -147.5l6 -32q0 -8 1 -11v-11q0 -7 1 -10v-10q0 -21 -3 -36q-1 -9 -7 -34q-2 -9 -7 -17q0 -3 -7 -18q-3 -6 -8 -17q-3 -5 -9 -18l-83 -96l122 -92l21 14l18 -17l-101 -90l-149 109q-37 -30 -77 -46 q-25 -11 -41 -15q-24 -7 -42 -8q-3 -1 -27 -4q-9 0 -13 -1h-22q-9 1 -28 3.5t-56 12.5q-33 13 -53 27q-63 44 -88.5 107.5t-25.5 132.5q0 20 1 31q1 6 3 17t2 16q0 -8 7 41v6q0 2 1 3.5t1 3.5l26 76zM479 283h-22q-39 -5 -66 -18q-32 -15 -50 -44v-163q1 -2 4 -2h5 q63 0 126 53t86 112q-15 21 -36 37t-47 23v2zM277 568l-2 -277q0 -9 -9 -34q-6 -10 -7 -13t-3.5 -8t-4.5 -8l-2 -2q-2 -2 -2.5 -3t-2.5 -6l-73 -70q36 -51 104 -75q14 -5 17 -5q7 -1 18 -1h2l1 1h3l1 1h1v500h-41zM182 510l-48 -49l-21 -53q-10 -33 -13 -50t-3 -19v-27 q0 -6 1 -9q6 -48 17 -76q14 -35 40 -70q10 10 18.5 27t8.5 35v291zM562 421q-33 -33 -85 -43q-20 -4 -26 -4h-9q-53 0 -95 31l-4 6v-149q27 19 52.5 29.5t56.5 10.5h7q3 -1 8 -1h8q3 -1 10 -2t11 -1q8 -2 12 -2q9 -7 26 -17q6 -6 9 -7t6 -3t4 -4q6 -6 9 -7t6 -3.5t4 -4.5 q1 2 2 4.5t1 4t2 7.5q5 25 5 31t1 9v17q0 6 -2 18v4q-1 3 -1 4q-1 16 -7 36q-2 6 -5 17q-1 6 -6 17v2zM341 461q5 -28 34 -45t55 -17h16q4 0 7 1q28 0 66 19q5 4 14 14t12 15q-67 102 -204 112v-99z" />
<glyph unicode="R" horiz-adv-x="780" d="M182 688l-13 -2h-9q-13 -2 -17.5 -2.5t-11.5 -2.5q-17 -5 -30.5 -11t-21.5 -11q-22 -13 -34 -39h9q3 0 4 1h4q4 0 7.5 0.5t8.5 1.5q13 3 20.5 6t11.5 5l4 -2h7q23 0 48 -19q23 -17 29 -39v-95l-161 -111q4 -4 8 -4q60 -26 104 -80q49 -58 49 -119v-22l-105 -50l-30 -26 q-12 -11 -21 -18q-21 -22 -28 -47l17 -2q38 20 75 31q51 14 83 16q5 0 6 1h35q34 0 91 -20q49 -18 78 -47h12l103 110l-16 14l-21 -20l-103 41v178q56 0 102 -43t61 -90l35 -109q4 -6 6 -12q4 -6 6 -12q7 -14 24 -33q15 -16 35 -17l101 88l-15 17l-24 -17l-23 27l-54 143 q-6 14 -10 19l-7 12q-2 4 -4 6l-15 20q-6 9 -11 15l-83 72l140 96l-140 198l-178 -120q-6 23 -19 44t-31 38t-40.5 28t-47.5 14zM347 558v-430l-29 6v403zM419 599l114 -163l-157 -105v239zM198 452v-111q-25 24 -35 32q-13 9 -19 15q-13 8 -20 15z" />
<glyph unicode="S" horiz-adv-x="797" d="M285 690l198 -74l23 43l21 -10l-97 -178h20q23 -2 68 -9q74 -14 141.5 -64t69.5 -131q1 -56 -38 -109q-35 -47 -79 -84l-143 -86h-10l-124 51l-139 -51q-6 -2 -20 -4l-22 -3q-5 0 -8 -1h-8q-6 0 -7 -1h-7q-35 0 -76 17q-35 15 -46 58l-2 6v17q0 67 89 100q20 7 41 9l25 2 q3 -2 16 -2h9q6 -2 22 -2q4 -1 12 -1l24 -3l16 31q-1 -3 -6 -3h-11q-1 -1 -3 -1h-23q-5 0 -7.5 0.5t-5.5 1.5h-4q-139 15 -169 122v2q-1 0 -1 1v5q-1 0 -1 1v3q0 40 23 64q27 29 59 41q6 39 26 78.5t45 62.5zM85 91q-33 -11 -42 -36q-2 -2 -2 -6v-6q0 -1 1 -6q0 -1 0.5 -2.5 t1.5 -2.5v-2q2 -3 6.5 -8.5t8.5 -8.5t21 -10q7 -1 22 -4q6 0 16 -2q5 0 8 -1h19q3 1 11 1q55 8 88 22q17 7 58 29l-141 39q-3 -1 -8 -1q-2 0 -5 1h-4q-6 0 -9 1h-10q-1 0 -6 1h-16zM440 362q-8 -5 -26 -5h-9q-15 -3 -26 -3q-4 -1 -9 -1l-29 -45l147 6q4 -3 13 -3l14 -3 q31 -7 59.5 -33.5t28.5 -59.5v-2q-1 -1 -1 -3v-8q-1 -1 -1 -3v-5q0 -1 -1 -2t-2 -3t-1 -4q-4 -7 -16 -22q-1 -2 -3.5 -5.5t-3.5 -4.5l-10 -10l-93 -48l79 -33q39 23 69 65t30 86v8q-1 6 -3 17q0 3 -2 8q-3 10 -6 16q-1 3 -4 8.5t-4 8.5q-52 81 -180 81zM481 219l-196 -12 l-18 -38l161 -57q4 -3 12 -1q5 1 12 5t15 11q2 2 6.5 6t7.5 7q16 19 20 31q0 2 2 8q0 1 1 5v13q-1 1 -1 4v2q-1 0 -1.5 1.5t-1 2.5t-8.5 5q-1 1 -4 2l-3 1l-2 2h-2v2zM114 424q-2 -3 -8 -7q0 -1 -6 -7l-2 -3l-3 -3q-5 -15 -5 -15.5t-1 -2.5v-8q0 -1 1 -2q5 -22 20 -36 q11 -10 39 -25q4 -2 11 -5h3l3 -2h5h7q1 -1 7.5 -1.5t14.5 -0.5q36 -4 44 -4h26q4 0 14 2h2q5 0 8 1h7q4 0 7 1h6l23 49q-4 -4 -9 -4h-4q-1 -1 -4 -1q-15 -3 -16 -3q-10 -2 -16 -2q-10 -2 -14 -2h-20q-5 0 -8 1q-99 4 -132 78v2zM256 591q-33 -7 -53.5 -27.5t-20.5 -48.5 q0 -6 0.5 -9t2.5 -9q0 -1 2 -7q2 -1 3 -6q19 -34 52 -34l6 5l149 8l35 60q2 0 -10 4q0 1 -2 2.5t-3.5 1.5t-4.5 3l-23 13l-24 12q-18 9 -49 20q-16 6 -28 8t-28 2z" />
<glyph unicode="T" horiz-adv-x="689" d="M651 652q-1 -1 -1 -6v-5q-1 -3 -1 -5q-7 -40 -44 -78q-34 -34 -76 -39h-6q-1 -1 -6 -1h-6q-1 -1 -6 -1q-8 -2 -12 -2h-15q-1 0 -3 1h-8q-1 0 -2 1h-2v-432l4 -2q34 -4 72 25.5t60 58.5l21 27q12 16 18 25l9 2v-14q0 -85 -93 -159q-6 -5 -19 -15q-29 -23 -65 -33 q-5 -1 -50 -12q-45 -5 -58 -5q-113 0 -205 67q-96 69 -112 181v3q-1 1 -1 4v4q-1 1 -1 4v3h-1v4q-1 1 -1 3v18q0 3 1 6.5t2 4.5v6q0 1 1 2.5t1 4t2 10.5q0 4 2 12q38 154 171 236q-2 0 -5 1h-6q-2 0 -5 1h-6q-6 0 -7 1h-8q-4 0 -7 1h-6q-108 0 -165 -87l-8 4q3 -1 2 -1l-1 1 v2l-1 1v1q0 72 57 119q61 50 128 63q4 1 28 4q3 0 8 1h7q4 1 14 1h12q1 -1 5 -1h8q3 -1 5 -1h9l262 -43l3 -2q0 -1 2 -1h7q0 -1 2 -1h16q3 0 6.5 1t6 1.5t8.5 2.5l9 3l8 6q6 3 8 5t4 4.5t5 7.5l4 7l4 6l2 3h2l1 1v1h2l1 1h2q1 0 2 1h2q1 0 2 1h1v-20zM378 527v-236 q0 -52 -34 -95t-73 -70q-2 -2 -4 -2q-3 -3 -7 -5l-2 -1l-2 -2q32 -26 69 -38t76 -12h9q3 0 11 2q1 0 5 1h5q1 0 5 1h4v449zM246 552q-20 -12 -29 -26q-20 -29 -34 -61q-1 -2 -9 -21q-6 -15 -13 -36q-2 -13 -8 -38l-3 -24q-1 -8 -1 -24q0 -30 8 -62q14 -40 25 -60 q1 -3 1.5 -4t2.5 -3l3 -3q0 -1 2 -3.5t15 -21.5q7 -6 18 -19q2 -1 4 -4.5t2.5 -4.5t2.5 -1q1 0 3 2l4 4q1 1 2.5 2t2 2t2.5 3l4 4q1 2 3 4q0 -8 9 28l3 12q3 8 3 26v317h-1v1q-1 0 -1 1v1h-1v2q-2 0 -2 2v3z" />
<glyph unicode="U" horiz-adv-x="822" d="M424 688l4 -19v-225q2 -4 5.5 -9.5t4.5 -10.5q42 -19 66 -19h10q3 0 11 2q20 2 58 23v123h-1v1q-1 0 -2 2t-7 9q-9 9 -18.5 14t-18.5 6h-5l-2 2l-35 -39l-15 10l106 126l97 -62l45 41h15q-2 -5 -6 -16q-2 -5 -7 -14q-2 -4 -6 -13l-6 -15q-2 -8 -5 -15t-7 -13l-3 -455 q3 -29 19 -45l5 3q3 1 4.5 2t5 2t4.5 2l4 2l5 2l9 3h1v-1l1 -1l1 -3q1 -2 2 -3l2 -2l2 -2v-2l-98 -91q-17 0 -26 9q-6 3 -20 20q0 2 -1.5 3.5t-1.5 2.5l-2 3q-1 2 -2 2q-1 5 -6 9l-16 40q-11 27 -11 37q-116 -103 -199 -114l-107 -2q-97 10 -159 91q-60 77 -60 176v8 q0 1 1 5v7q0 2 1 4v11q18 96 82.5 175.5t150.5 121.5l13 8l-79 -20l-111 2q-31 -5 -50 -23q-22 -21 -36 -45q-1 -3 -4.5 -8.5t-4.5 -8t-3 -8t-4 -8.5l-8 4v1q-1 0 -1.5 2.5t-1.5 5t-1 5.5v3q-1 1 -1 3v3q-1 0 -1 2v18l3 14q11 52 54 92.5t94 40.5l20 2l104 -33 q4 -4 7.5 -4.5t10.5 -0.5q1 -1 4 -1h5q7 0 32 5q7 3 21 7.5t21 7.5l6 6q2 3 7 6l3 3q1 0 3 2t4 3t2.5 1t1.5 1h5q1 1 2 1h14v2zM529 287h-21q-14 -2 -42 -10q-21 -8 -38 -21v-175q80 3 155 53v128q-7 2 -12.5 5.5t-14.5 6.5q-18 8 -27 11v2zM403 640q-4 -10 -6.5 -15.5 t-6 -12.5t-6.5 -12t-6 -13l-6 -19v-291q-26 -78 -124 -147q37 -27 73.5 -37t81.5 -10v557zM343 591q-81 -40 -128.5 -114t-47.5 -163v-12q0 -3 1 -7v-6q4 -17 10 -51q3 -8 8 -25q11 -18 22 -34q2 -3 23 -32q18 25 27 54.5t9 62.5v28q-2 10 -2 31q-1 4 -1 15q-1 3 -1 8v4 q-1 1 -1 4v6q-1 4 -1.5 6.5t-0.5 10.5v40q0 6 2 17q4 31 9 48q15 48 42 75q9 13 28 28zM428 285q36 23 76 23h5q1 -1 5 -1h5q3 -1 6 -1q13 -1 30.5 -8t27.5 -15v124q-2 -2 -5 -4.5t-7.5 -4.5t-13 -4.5t-25.5 -8.5l-24 -3q-9 0 -13 0.5t-31 7.5q-5 3 -26 10q0 1 -2 2t-4 1 t-4 2v-120z" />
<glyph unicode="V" horiz-adv-x="689" d="M543 696q40 -72 63 -180q1 -6 4 -38q2 -24 2 -36t-2 -36q0 -12 -4 -36l-9 -36q-3 -12 -10 -36q-45 -115 -202 -279q-5 -6 -16 -17q-5 -3 -16 -14h-4h-4q-2 1 -4.5 1.5t-8 3.5t-15.5 8q-4 3 -13 8q0 1 -2 2l-3 2q-1 0 -2.5 1t-3.5 1t-5 1h-6q-5 0 -11 2h-12q-1 0 -6 1h-13 q-3 -1 -9 -1t-31 -5q-6 -2 -7.5 -2t-4 -1t-4.5 -2.5t-4.5 -2t-4.5 -2.5q-9 -3 -8 -3h-5q1 0 -5 -1q-1 0 -4 -1h-9q-1 0 -2.5 1t-5 1.5t-4.5 1.5l52 176v12q0 40 -34 71.5t-74 31.5l-4 2q-3 -3 -9 -5l-9 -3l-2 6q0 17 11.5 32.5t24.5 27.5h1l2 2q2 2 10 4l6 2q1 0 3 1h2h14 q3 -1 7 -1q20 -5 36 -11q2 0 5.5 -2t6 -3t9.5 -6l-6 72q-5 14 -9.5 35t-10.5 42q-12 40 -34 71q-18 33 -56 42l-8 2q-10 -2 -28 -11q-5 -3 -22 -20l-12 -12v2q-1 0 -1 2v2q-1 0 -1 2v1q-2 2 -2 4v7q0 33 31.5 65.5t61.5 40.5q2 1 15 4q10 2 16 2l6 2q79 -12 128 -114 q1 -1 2.5 -3.5t1.5 -3t3.5 -8.5t5.5 -17zM386 254h-22q-17 -2 -49 -7q-20 -4 -46 -13q-19 -58 -41 -104q-26 -55 -52 -99q85 60 153 60h9q3 -1 10 -1.5t20 -3.5l13 -2l12 -3q32 45 74 140q-44 24 -81 31v2zM498 403q-1 -1 -18 -8q-6 -2 -17.5 -4.5t-35.5 -8.5q-24 -2 -34 -2 q-35 0 -100 17v-17l-1 -17q0 -3 -3 -34q-2 -10 -2 -18q-6 -30 -6.5 -35t-3.5 -16l15 3q-2 0 38 5q8 0 12 1h11q19 0 35 -3q13 -1 38 -7q13 -3 12 -3q4 -1 11 -4q1 0 22 -8q5 14 14 44q7 27 12 72q0 8 1 13v30zM440 616l-161 -89q5 -18 11 -55q1 -9 2 -26q1 -13 1 -27 q48 -16 91 -16q13 0 28 2q6 0 29 5q9 2 28 7q5 2 15 5q6 4 14 6v8q-1 3 -1 8v8q-1 2 -1 8q-2 27 -20 79q-14 40 -36 75v2z" />
<glyph unicode="W" horiz-adv-x="1078" d="M374 696l8 -27v-557l60 49q-7 20 -12 50q-4 23 -4 51q0 75 32 147q37 83 90 128l103 87q-22 -18 -50 -27q-24 -8 -56 -8h-2l-1 1h-3l-1 1h-8q-1 0 -3 1h-6q-1 0 -4 1h-9q-32 0 -61 -17q-29 -21 -44 -49l-4 10q-2 7 -2.5 7t-0.5 4q-1 1 -1 4v4q0 7 1 12t3 14q17 59 68 89 q3 1 6 4q3 0 5.5 2t4.5 3l3 2q1 0 3.5 1t3.5 1t7 2q1 0 5 1h5q1 0 2 1h7l20 2l87 -37q0 -3 2 -3h5q0 -1 1 -1h8q1 0 7 2h2q2 0 4 1h3q2 0 4 1h3q5 3 14 9q14 10 42 28h4q6 -2 9 -3.5t5 -1.5l3 -3v-248q1 -4 3 -4h3q11 -5 31 -10q4 -1 12 -1q6 0 10 1l12 3q1 0 2 1h2 q1 0 3.5 1t4.5 2t5 1t4 1.5t3 3.5l6 6q0 1 2 3v124l-35 35l-31 -29l-12 13l99 107l70 -62l41 39h21l-41 -72v-3l-2 -2l-1 -3l-2 -3v-3l-3 -457h-1v-5q0 2 4 -10q0 -2 2 -8q0 -1 1 -3v-3q2 -1 4 -4t3.5 -4.5t4.5 -3.5t4 -4q5 8 12 14q2 2 7 6q2 1 4.5 3t3.5 2.5t2.5 1 t3.5 2.5l2 -2l3 -3l3 -3q0 -1 1.5 -3.5t2.5 -2.5l3 -3l-100 -103h-4q-3 1 -5 1l-9 3q-45 45 -58 126q-34 -43 -89 -84q-48 -36 -111 -36h-9q-28 0 -62 9q-35 14 -53 32q-14 14 -35.5 43t-31.5 46q-38 -52 -91 -89q-59 -41 -112 -41h-7q-5 0 -40 5q-100 25 -141 138 q-24 66 -24 128v16l29 112q36 82 99 142l106 81l-2 8q-15 -14 -43 -26q-15 -5 -48 -11q-10 -2 -14 -2h-28q-2 0 -14 3q-9 0 -29 5q-34 -4 -57.5 -31t-29.5 -62l-8 2v23q2 3 2 21q0 2 1 6v7l3 12q12 47 40 83t70 36h2q0 -1 2 -1h9q0 -1 2 -1h5q58 -15 114 -41h1v-1h3v-1h10 q1 0 5 1h5q44 6 81 40h3q1 0 2 1h7q1 0 2 1h1zM719 655q-1 -2 -2 -6l-2 -2q-1 -5 -4.5 -8.5t-4 -6.5t-2.5 -5q-2 -8 -6 -14q0 -2 -1.5 -6t-2.5 -6v-295q-6 -47 -32 -83q-31 -43 -56 -68l-12 -12q-2 -1 -5 -6q-1 0 -2.5 -2t-3.5 -3q43 -49 117 -49h4q1 0 3 1h4q1 0 2 1h6v570 zM812 285h-19q-2 -2 -5 -2.5t-6 -0.5h-5q-3 -1 -6 -1q-6 -2 -8 -2q-18 -6 -15 -6q-3 -3 -6 -4l2 -182q59 12 101 64v118q1 0 -8 3q0 1 -1.5 2t-3 1t-3.5 2q-6 2 -17 6v2zM357 659q-6 -9 -15 -27l-12 -27q-11 -26 -16 -55v-240q0 -29 -8 -56q-6 -21 -21 -49l-76 -67 q42 -45 101 -45h11q3 0 13 2q1 0 2 1h2q2 0 5.5 0.5t6 1t4.5 1.5h3v560zM289 601q-62 -52 -99 -110q-54 -85 -57 -161q-1 -8 -1 -24v-13q0 -2 1 -6v-7q5 -38 19.5 -72t39.5 -63q3 5 14 18q4 7 9 21v275q5 40 25 71q25 39 49 63l6 6zM676 607q-161 -141 -159 -303 q0 -23 9 -58q6 -23 19 -53q6 -14 21 -44l2 2q1 0 3 2l8 8l3 12q2 5 4 14q0 2 2 10q0 3 2 9q0 2 2 10q0 2 1 5v4v238q8 35 67 121q2 2 8 10q1 2 2.5 3.5t2 2.5l1.5 3l2 2v2zM742 295q3 -1 6 -1q1 0 3 1h3q8 0 18 2q5 0 9 1h14q3 -1 6 -1h14l30 -6v118q-1 -4 -6 -4h-3 q-1 -1 -3 -1q-6 -2 -18 -4.5t-17 -2.5q-13 0 -27 4q-10 3 -29 8v-114z" />
<glyph unicode="X" horiz-adv-x="648" d="M467 696q46 -44 134 -84l-45 -87l-116 43l-72 -167l186 -2l-33 -75l-112 -2l105 -219q0 -3 1 -3v-1q0 -2 2 -2q4 -7 16 -15h2q0 -1 2 -2l4 -1h4l1 1h4l1 1h1q2 1 3.5 2t2.5 1l5 5l9 12l17 -16l-93 -97h-11q-1 1 -3 1h-3q-1 1 -3 1q-10 3 -27 14q-21 16 -35 38q-3 5 -9 14 l-103 221l-128 -289l-139 80l39 101l122 -59l93 208l-186 2l33 79l104 2l-81 173q-7 16 -23 23q-12 9 -32 11h-14q-3 -1 -6 -1l-12 -3q-1 0 -2.5 -1t-4.5 -1h-4q-1 -1 -3 -2t-3 -1t-2.5 -1t-2.5 -1.5t-3 -2.5l-4 -3q-2 -1 -3 -1t-2.5 -1t-2.5 -1.5t-3.5 -2t-4.5 -2.5l-10 2 l-3 4q0 21 21 44t43 35q4 4 8.5 6.5t17.5 6.5q3 1 8 3q2 0 3.5 1t3.5 1t8 2q3 0 6 1h5q3 0 6 1h5q62 0 109 -62l89 -188q70 114 120 254v2z" />
<glyph unicode="Y" horiz-adv-x="689" d="M128 680q117 -11 141 -103q47 39 95 59q31 13 69 18q1 0 5 1h22q3 -1 9 -1t42 -9q73 -27 102 -102q25 -64 25 -123v-27q0 -19 -9 -73q-4 -23 -15 -66q-4 -11 -44 -66q-68 -71 -175 -83h-269q-42 -11 -69 -36q-32 -29 -32 -69q0 -3 1 -10q0 1 3 -14q0 1 6 -17 q12 -23 34.5 -32.5t44.5 -9.5h6q3 1 7 1q16 0 44 8q4 1 6 3h2q0 1 0.5 1.5t2.5 0.5q56 26 94 41q47 18 92 18q3 0 30 -3q11 -2 32 -8q5 -4 15 -6q6 -2 15.5 -8t18.5 -21q6 -10 12 -28v-6q0 -2 1 -4v-3q0 -16 -8.5 -28.5t-28.5 -19.5h-12q-1 1 -2 1q-11 1 -23 14q-7 7 -13 24 v8l1 1v5l1 1v2q0 2 1 2.5t2.5 3t2 3.5t2 3.5l1.5 2.5l2 2v2q0 2 2 8q0 1 1 3v9q-2 2 -3.5 3t-3.5 1l-2 2q-1 1 -3 2t-4 1q-19 -6 -46 -20l-23 -12l-74 -39q-43 -21 -79 -29q-3 -1 -9.5 -2t-11.5 -1t-8 -1h-9q-6 0 -21 2q-7 1 -21.5 5.5t-42.5 17.5q-26 19 -41 45t-19 54v23 q0 40 26.5 72.5t65.5 45.5q10 4 28 8h9q2 0 4 1h13q1 0 5 1h4v26q-1 1 -1 5v10q-8 47 -40.5 89.5t-76.5 61.5q6 2 10 3l12 3q2 0 4 1h19q3 -1 8 -1q13 -2 18 -3q13 -3 12 -3q4 -1 11.5 -3.5t21.5 -8.5v4q0 1 1 3v7q0 1 1 2v5q0 33 -26 62q-33 37 -75 61q-3 2 -10 6 q-1 1 -4 3t-5 2q20 10 54 10h6q3 -1 6 -1h12q4 0 11 -1.5t10 -2.5h5q3 -1 5 -1q6 -2 9 -2v105l-21 40q-27 27 -91 31q11 18 26 24q23 10 35 10h13q4 0 7 1h6v2zM432 295h-19q-6 -2 -9 -2q-12 -3 -19.5 -4t-9.5 -1q-8 -2 -11 -2.5t-9.5 -2t-17.5 -6.5q-1 -1 -3 -4l-5 -6 q-2 -2 -5 -9v-138q1 -2 3 -2h2q0 -1 2 -1h7q0 -1 2 -1h5q57 0 96 35t61 85v3l1 1v4l1 1v1q0 12 -13 23t-27 16l-9 3q-3 0 -9 2q-10 2 -14 3v2zM306 572l-37 -31v-421h37v452zM508 436q-8 -9 -29 -23q-20 -9 -31.5 -12t-16.5 -3.5t-16 -0.5q-42 0 -89 27v-133q1 0 19 8 q11 5 21 6q4 2 20 4q6 0 10 1h9q7 0 25 -2q8 -2 13 -2q2 0 6.5 -1t6.5 -2q16 -6 25 -10q5 -1 13 -6q6 -1 12 -6q2 8 2.5 14t2 11.5t4.5 28.5q0 5 1 6v7q0 4 1 7v16q-1 11 -3 31q-1 9 -6 32v2zM357 591q-3 -3 -12 -4t-12 -4t-5 -6t-2.5 -5t-1.5 -4v-111q9 -19 29 -30.5 t36 -11.5h17q1 0 3 1h3q4 0 15.5 2.5t38.5 12.5q12 6 32 19q1 1 2 3l1 2q0 4 1 5.5t2 2.5v11q-1 1 -2 6t-2 9v2q-1 0 -1.5 0.5t-1 3t-1.5 5.5q-6 18 -6 17q-47 74 -112 74h-2q-1 -1 -3 -1h-9q-1 -1 -4 -1h-3v2z" />
<glyph unicode="Z" horiz-adv-x="627" d="M155 688h10l102 -39q3 -3 6 -3h2q1 -1 2 -1h3q3 0 8.5 -1t7.5 -2h4q3 -1 5 -1q6 -2 18 -2q3 -1 9 -1h19q13 0 18 0.5t19 2.5h6q4 0 7 1h12q4 0 7 1h6l132 37q-99 -159 -149 -271l112 2l-11 -33h-117q-4 -7 -10 -15l-1 -3q-2 -2 -2.5 -3l-1.5 -3l-4 -4l-1.5 -3t-0.5 -1.5 t-1.5 -2.5t-2 -3t-2 -2.5t-3.5 -4t-2 -4t-4 -5.5l133 2l-13 -33h-142q-51 -66 -113 -130q-55 -56 -125 -115l122 55q3 0 18 3l9 3q3 0 9 2q37 8 54 9q24 4 55 4h9q3 -1 10 -1h10q3 -1 11 -1h6q3 -1 6 -1h6q3 -1 6 -1l91 -27l37 35l9 -9l4 -4q0 -2 3 -5l-105 -122l-116 41 q-3 0 -13 2q-6 0 -26 5q-5 0 -13 2q-2 0 -28 2q-4 0 -13 1h-12q-29 0 -65.5 -5t-76.5 -18l-73 -24h-3q-1 0 -2 -1h-7q-1 0 -2 -1h-3l3 14q108 129 181 287l-119 2l14 31h124l31 52h-124l16 33h135q120 141 221 223l-103 -49q-29 -14 -75 -22q-39 -7 -72 -7q-39 0 -70 7 q-12 2 -35 8l-36 12l-33 -33l-14 14z" />
<glyph unicode="[" horiz-adv-x="367" d="M4 855l97 -18q6 1 17 3l15 3q5 1 17 3q2 0 17 3q5 0 8 1h8q5 0 9 1h17q19 0 44 -9q21 -7 38 -28q5 -8 13 -26q2 -2 3.5 -6.5t3 -7.5t4.5 -12q1 -5 1.5 -6t2 -6.5t1.5 -6.5l2 -3v-4h-6q-1 -2 -3 -2q-1 0 -2 1l-2 2h-1l-1 1h-1q-2 2 -3 3.5t-1 2.5q-8 11 -19 20 q-6 6 -21 17q-4 0 -50 -6l-24 -3l-25 -3q-23 3 -50 16q2 0 -16 6q28 -29 48.5 -65.5t32.5 -78.5v-497q-1 -4 -1 -11v-11q-1 -4 -1 -11.5t-2 -22.5l-3 -22q-18 -42 -36 -70t-46 -68q23 17 47 24t52 7q14 0 21 -1l64 -12q0 2 1 2.5t2 2.5t2 2.5t4.5 4t4.5 6.5l8 8l3 3q0 7 5 7 q6 6 7 6h2q0 1 2 1h2q0 1 2 1h4q-12 -45 -39.5 -80.5t-77.5 -35.5h-15q-10 2 -14 3h-3q-2 1 -4 1.5t-6 0.5h-2q-1 1 -2 1h-2q-1 1 -2 1q-18 1 -36 6q-24 2 -34 2l-36 -3q-6 -2 -18 -4.5t-18 -3.5h-6q-1 0 -2 -0.5t-1 -1.5h-2q71 84 79 174q-2 22 -2.5 32.5t-2.5 32.5l-4 66 q-2 22 -5 64t-7 67v19q-1 1 -1 7v15q-1 3 -1 8v15q0 65 6 114q5 56 17 114v42q0 8 -2 23v5q-1 4 -1 6q-1 8 -4 25l-6 24q-8 30 -16 46q-1 2 -3.5 6t-5 6.5t-8.5 11.5l-16 24q-2 4 -8 12q-1 3 -2.5 6t-4.5 6v2z" />
<glyph unicode="\" horiz-adv-x="301" d="M163 122q22 -29 42 -41h2q0 -1 1 -1h1q0 -1 0.5 -2t2.5 -1h3l37 35l17 -19l-110 -99h-10q-31 31 -57 47q-30 18 -67 33q22 16 30 41q9 21 9 52v257h-50l11 57h39v104q17 9 51 35q27 21 48 43v2l106 -29l-23 -72l-83 22v-464z" />
<glyph unicode="]" horiz-adv-x="367" d="M126 857q3 -3 5 -3.5t6 -0.5q8 -2 12 -2q9 -1 26.5 -4t26.5 -4h5q3 -1 5.5 -1.5t8.5 -0.5h19q14 0 22 1l24 3q-2 0 22 3l12 3q3 0 11 2l-2 -10q-62 -65 -73 -143v-4q-1 -3 -1 -5v-15q-1 -3 -1 -5v-8q0 -82 5 -127q2 -26 7 -63l9 -64v-63l-1 -29q-1 -19 -2 -57 q0 -13 -8 -96q-6 -60 -10 -94q0 -11 1 -21l6 -40q2 -8 3 -9q2 -6 3 -10q36 -58 64 -108q-2 2 -6 2h-4q-18 5 -54 10q-7 1 -21 1h-18l-19 -2q-12 -2 -36 -5q-9 -1 -15 -2q-2 0 -8 -1h-8q-13 -2 -30 -3q-38 2 -61 31t-34 65l-3 10q-2 7 -2 10h9q7 -9 22 -26q12 -10 29 -20 q8 0 24 2q8 2 14.5 3t10.5 1q56 7 48 7h4q2 0 4 -1h5q1 0 2 -1h2q16 -4 54 -21q-17 20 -46 60q-19 32 -33 70l-3 67q0 23 -1 68q0 8 -1 34q-1 20 -1 33v340q0 51 26 95q19 33 59 84q-8 -2 -13 -5t-14 -6q-23 -9 -54 -9h-12q-3 0 -7 1h-6q-16 2 -47 7q-7 0 -21 2 q-14 0 -24 -10q-10 -14 -13 -22q-2 -2 -2 -4v-3q-1 0 -2.5 -1.5t-2.5 -2t-3.5 -1.5t-6.5 -1h-4q4 10 9 29q11 32 39 60t64 28z" />
<glyph unicode="^" horiz-adv-x="581" d="M73 325l201 351h40l197 -351h-77l-144 250l-142 -250h-75z" />
<glyph unicode="_" d="M12 -41h649l-37 -50h-645z" />
<glyph unicode="`" horiz-adv-x="346" d="M183 522l-131 182h114l44 -182h-27z" />
<glyph unicode="a" horiz-adv-x="408" d="M176 496l134 -52v-1l2 2q2 3 10.5 10t14.5 8q1 0 3 1h3q1 0 3 1h3l4 2l-11 -19q-4 -6 -9 -18l-17 -39l-2 -282q1 -4 2 -5l1 -3v-3q0 -1 1 -3v-2l7 -10q1 -1 10 -8q0 -2 2 -2h1q0 -1 1 -1l18 13l15 -13l-87 -76h-6q-17 0 -29 14q-15 20 -19 35q-3 7 -6.5 23t-3.5 19v7 q-1 0 -1 2v5q-1 1 -1 3v6l-132 -114q-36 20 -58.5 55.5t-22.5 74.5v5q0 1 1 3v10q0 1 1 3v2q0 1 8 31q22 81 85 132l-49 140q1 -3 3 -3h6q0 -1 2 -1h14q3 0 5 0.5t4 1.5h2q21 3 47 15q23 11 41 29v2zM122 293q-18 -24 -24.5 -44t-6.5 -44v-14q0 -8 2 -14q8 -53 47 -107l11 6 l70 62v98zM83 430l39 -110l97 -56v116l-124 50h-12z" />
<glyph unicode="b" horiz-adv-x="433" d="M186 665h19q-43 -40 -50 -74v-205l136 112q27 -25 44 -49q20 -27 27 -58v-315q-24 -10 -71 -33q-38 -21 -65 -40q-1 -1 -2.5 -2t-4.5 -1q-3 -3 -6 -4l-44 37q-64 33 -138 52l25 49v294h-54v51h56v89q0 15 -14 41q-11 21 -27 34l6 2q1 -2 4 -2h3q0 -1 2 -1q19 -5 25 -9 q11 -6 23 -14q2 -2 3 -2t4 -2t6 -5q21 22 44 36.5t49 16.5v2zM227 411l-74 -64v-209q19 -15 53.5 -33t57.5 -26v299z" />
<glyph unicode="c" horiz-adv-x="329" d="M176 498v-2h-5q-6 1 -12.5 -5t-10.5 -9l-24 -24q-8 -5 -13 -9.5t-9 -7.5q-30 -21 -50 -26v-285q0 -35 -27 -66q61 -12 140 -68l126 95q-6 6 -6 11l-3 3q-2 2 -3 4t-2 3l-50 -38l-24 12l-16 10q-24 10 -40 26v285q43 -35 89 -50l45 67z" />
<glyph unicode="d" horiz-adv-x="408" d="M10 645l302 -207q2 1 8 9q3 3 11.5 10.5t21.5 13.5l-10 -33v-364q-24 -10 -71 -33l-65 -41q-2 0 -2.5 -1t-3.5 -3.5t-5 -3.5l-76 47l-108 35q29 25 29 64v275l89 37l-122 100zM167 426l-31 -19v-281l110 -45v279z" />
<glyph unicode="e" horiz-adv-x="346" d="M174 498l130 -134l-172 -151v-99l83 -40l62 46l14 -19l-134 -105h-4q-5 0 -14 2.5t-11.5 3t-23.5 15.5q-2 1 -6 5l-3 3q-2 2 -5 3.5t-10.5 6t-18.5 6.5l-9 3q-3 0 -7.5 1t-9.5 2t-9.5 3t-19.5 4q33 33 33 78v279q35 13 71 37q30 20 64 48v2zM132 409v-157q6 1 14 8l15 12 q2 1 3.5 2.5t2.5 2t3 2t2.5 2t4.5 3.5t6 5q9 5 19 13.5t17 15.5z" />
<glyph unicode="f" horiz-adv-x="301" d="M165 665l102 -25l-23 -78l-83 17v-100h77l-13 -55h-64v-288q0 -2 3 -17q2 -2 4 -7.5t4.5 -8t9 -8.5t9.5 -9q11 -7 24 -12l39 33q0 -1 1 -2v-1q0 -1 1.5 -1t3 -1t1.5 -1.5t3 -2.5t5 -7l-114 -99q-57 57 -128 82q39 32 39 75v272l-54 3l11 53l43 2v106z" />
<glyph unicode="g" horiz-adv-x="475" d="M194 498l153 -74h10l73 51v-105h-83v-263q0 -3 2 -9q0 -1 0.5 -3t2.5 -4q4 -12 18 -39l51 -75v-4q0 -2 2 -4v-4q0 -1 1 -2v-5q-1 -1 -1 -3v-4q-1 -1 -1 -2.5t-1.5 -6.5t-2.5 -6.5t-2 -4.5t-3 -5l-7 -7q-2 -1 -4 -3l-3 -3l-99 -56q-2 0 -8 2l-9 3q-8 3 -18 5q-6 2 -17 5 q-5 1 -18 3q-40 5 -56 5h-9q-1 0 -29 -4q1 0 -20 -3q-4 -1 -10 -3q-2 0 -17 -5q-3 0 -8.5 -2t-18.5 -4q-2 0 -5 -1h-6q-1 0 -6 -1h-6l-2 19l106 130l-98 70v352q88 13 149 68v2zM252 89l-118 -145l12 3q12 3 24 3q6 2 19 2h9q75 0 159 -37l3 9q-37 39 -62 76q-29 44 -46 87 v2zM140 417v-303l58 -40q40 30 54 71v231z" />
<glyph unicode="h" horiz-adv-x="433" d="M186 669h23q-29 -26 -39 -49t-15 -60v-176l136 114q30 -24 46 -47q17 -26 25 -58v-308q-19 -90 -94 -138.5t-161 -66.5h-3q-1 1 -2.5 1.5t-6.5 2.5h-1q-1 1 -2 1h-1q-1 1 -2 1l6 15q139 46 172 147v332l-38 35l-76 -62v-252l31 -37l-79 -68l-78 68l31 37v323l-52 2v53h56 v81q-12 58 -48 87l7 2q3 -3 8 -3h4q1 -1 4 -1q9 -3 25.5 -12t23.5 -19q1 0 2 -2t1 -3l4 -4q41 52 93 62v2z" />
<glyph unicode="i" horiz-adv-x="239" d="M101 492l73 -66l-29 -38v-281q0 -16 4.5 -25.5t17.5 -15.5l23 19l15 -15l-89 -76q-24 0 -40 16q-23 23 -25 50q-1 4 -1 12v318l-23 40zM134 653h60l-80 -108z" />
<glyph unicode="j" horiz-adv-x="260" d="M122 494l91 -93q-46 -67 -58 -145l2 -113q0 -2 1 -6v-5q0 -3 2 -9q0 -1 2 -23q0 -4 1 -11v-10q0 -127 -118 -197q-1 -2 -8 -4t-10 -2h-3q-1 1 -2 1t-2.5 1t-2.5 2h-1l-2 2v1l-1 1v2l-1 1v1q39 29 53 68t14 77q0 11 -2.5 31t-2.5 30l-3 21v2q-1 1 -1.5 2t-0.5 3v8 q-7 49 -7 44v4q-1 1 -1 4v14v2q-1 0 -1 1v22q0 8 1 15q4 66 34 142l-35 39l-31 -18l-12 12zM157 655h66l-87 -118z" />
<glyph unicode="k" horiz-adv-x="454" d="M184 669h23q-48 -36 -48 -92v-207l122 128h8l87 -105l-95 -89q42 -40 64 -91q20 -46 27 -105q0 -1 1 -6v-6q0 -2 1 -5v-6l12 -9l19 9l12 -13l-88 -76q-4 0 -10 2t-9 2q-32 53 -39 93l-118 -97q-31 20 -55 32l-29 14q-9 4 -30 12q5 5 7.5 9t4.5 11q2 2 3 5.5t2.5 5 t3.5 8.5v331h-52v57h52v71q-10 55 -43 97q23 0 39 -7.5t37 -23.5l4 -4q21 25 38 35q22 16 49 18v2zM211 229l-54 -53v-79l56 -27l56 50q-9 58 -58 107v2zM233 409l-51 -45l-23 -42v-109l132 130z" />
<glyph unicode="l" horiz-adv-x="280" d="M178 669h29q-28 -25 -37 -48q-10 -27 -15 -57v-444l54 -41l18 14l15 -17l-95 -84q-30 30 -58 49q-32 22 -68 36q39 25 39 68v440q-11 40 -43 66l6 2q3 -3 7.5 -3t11.5 -3l11 -5q4 -1 12.5 -5.5t21.5 -16.5l3 -3q0 -5 5 -5q0 -2 2 -2q21 24 36 35q19 16 45 22v2z" />
<glyph unicode="m" d="M91 498q56 -44 65 -114l1 -1v-5l124 118q7 -2 19 -8q30 -28 40 -49q16 -24 24 -59l117 116l69 -72l43 43l14 -15q-29 -38 -39 -72v-260q0 -4 2 -10q0 2 3 -7q0 -3 3.5 -8.5t4.5 -7.5l3 -3q5 -5 7.5 -6t3.5 -1l19 14l12 -15l-83 -80q-41 7 -55 36q-17 36 -17 67v258 q-12 37 -45 52l-64 -62v-246l33 -37l-2 -8l-77 -58l-12 2l-73 62q22 8 33 41v246q-1 1 -1 4v5q-1 1 -1 4q-1 8 -9 24q-2 4 -6 10q-1 2 -3 5t-5 4l-9 3q-1 0 -4 1h-5l-68 -66v-236q4 -6 12 -20q8 -10 14 -16q2 -1 4 -4.5t3 -4.5l2 -2l-83 -68l-78 70l31 33l-2 295l-19 23 l-27 -14l-10 14z" />
<glyph unicode="n" horiz-adv-x="454" d="M89 498q27 -24 46 -52t20 -62l124 112l68 -68l41 35l13 -13q-1 -3 -2 -4l-2 -2q-27 -27 -37 -64v-268l1 -5q1 -5 2.5 -7t2.5 -7q1 -1 3 -3.5t3 -3.5t5 -6t7 -6l21 17l16 -17l-92 -78q-22 7 -37 24q-17 23 -23 40v302q-2 0 -2 1.5t-1 3.5t-2 2q-2 7 -6 12q-6 12 -15 18 q-8 10 -18 12l-10 2l-62 -60v-241q3 -9 9.5 -20t12.5 -17q2 -1 4 -4.5l2 -3.5l3 -3q-47 -51 -79 -66l-74 68l29 31v279q0 5 -5 13q-3 5 -10 14q-6 3 -6 6l-22 -8l-9 14z" />
<glyph unicode="o" horiz-adv-x="408" d="M180 498q27 -23 64 -41.5t66 -26.5l33 -9v-345l-151 -80l-128 66l-52 14l21 31l6 33v275q38 7 75 29.5t66 51.5v2zM136 409v-287l110 -48v288z" />
<glyph unicode="p" horiz-adv-x="433" d="M87 498h2q3 -3 6 -3h2l2 -2q1 -1 3 -1t3.5 -1.5t2.5 -2t3 -2t3 -2t2.5 -2.5t2.5 -3l5 -5q1 0 2.5 -2t1.5 -3.5t2 -3t3 -3t1 -2.5t2 -3q22 -35 25 -69l108 110q40 -27 66 -67q29 -44 29 -88v-246q-72 -47 -124 -99l-77 37v-5q-1 -1 -1 -3v-3q-1 -1 -1 -3v-4 q-3 -15 -3.5 -17t-0.5 -12q0 -76 54 -124h-16q-1 1 -3 1h-9q-1 1 -3 1h-6q-27 14 -39 26q-6 4 -34 32q-5 0 -5 -5q-39 -35 -71 -35h-4q21 21 33 48q14 32 14 56v78q-3 -1 -8 -1q-1 0 -4 1h-5v1h-2q-6 0 -16 2q-6 0 -7 1h-7l-11 2v33q0 -3 2 -3h4l1 -1h7q2 0 3.5 1t3 1t3.5 1 h3q1 0 3 1h3q15 12 25 29v234q-1 1 -2 5.5t-1 7.5q-5 15 -9 19q0 2 -2.5 5t-3.5 4.5t-3 4t-4 3.5l-27 -16l-12 12zM219 409q-4 -6 -17 -16q-29 -29 -43 -50v-219l110 -35v264l-21 30q-14 17 -29 24v2z" />
<glyph unicode="q" horiz-adv-x="408" d="M176 498q57 -57 186 -105l-25 -29v-391q0 -28 12 -50q14 -26 31 -43q-21 0 -40 12q-22 14 -35 27l-5 5q-12 -19 -32 -33t-39 -19q-1 0 -4 -1h-5q-1 0 -4 -1h-18q-1 1 -3 1h-3q-1 1 -2 1q12 7 25 22l11 14q2 2 4.5 7t3 7t1.5 3q1 5 3 7v161l-120 -101q-28 12 -49.5 37 t-33.5 56l2 328q31 8 75 32q35 19 64 51v2zM130 401v-277q0 -43 50 -58l60 58v223z" />
<glyph unicode="r" horiz-adv-x="346" d="M85 498h2q3 -3 6 -3h2l2 -2q1 -1 3 -1q6 -6 9 -7.5t4.5 -3.5t2.5 -3t3 -2.5t2.5 -2.5t2 -3t1.5 -3q0 3 3 -6q3 -2 6 -8q2 -1 3 -6l2 -6q1 0 2 -2t1 -4t1.5 -5t2 -3.5t2 -5.5t2.5 -6l1 -3v-3l97 87l64 -75l2 -8l-66 -60l-58 62l-39 -35v-260q20 -26 49 -39l36 31l18 -17 l-116 -99q-51 55 -113 81q18 14 23 33q12 17 12 41v220q-1 1 -1 4v4q-1 1 -1.5 4.5t-9.5 19.5q-6 9 -15 14l-23 -12l-8 14z" />
<glyph unicode="s" horiz-adv-x="433" d="M339 562h10q15 -6 19 -14q8 -16 9 -24q0 -1 1 -3v-16q-1 -3 -1 -7l-3 -12v-3q-1 -1 -1 -2v-2q-1 -1 -1 -2l-108 -155l93 -58v-192q-43 -18 -62 -30q-34 -20 -56 -38q-1 0 -3 -1.5t-3.5 -2t-2.5 -1.5t-2.5 -2t-2.5 -1q-11 6 -34 16q-16 6 -36 11q-2 0 -8 2q-2 0 -5 1h-4 q-6 0 -9 1h-18q-3 -1 -9 -1q-13 -2 -46 -12q-8 -3 -25 -14l-14 10l119 174l-91 56v171q48 16 104 72l6 6q1 1 2 3l1 1l3 3l103 -37q4 -4 6 -4h3q1 -1 3 -1l11 -4h6q9 0 12 1l24 8q6 5 11 7.5t9 18.5v19q-1 2 -6 4q0 2 -6 7q-1 5 -4.5 6.5t-3.5 2.5l-3 3v1q-1 0 -1 1v2 q-1 0 -2 1.5t-1 2.5v4q0 1 0.5 3t5.5 9q3 4 9 8l1 1h1v2zM207 242l-97 -141q2 -2 6 -2q1 0 3 1h3q14 2 18.5 2t8.5 1h15q1 -1 7 -1h8q3 -1 9 -1.5t21 -3.5q7 -2 21 -7q21 -8 41 -20v130zM134 291l56 -33l89 128q-4 -4 -9 -4h-5q-3 -1 -5 -1h-6q-1 -1 -5 -1h-9q3 0 -53 7 q-18 5 -53 18v-114z" />
<glyph unicode="t" horiz-adv-x="301" d="M157 626v-149h103v-49h-105v-314l47 -40l36 27l14 -16l-107 -93q-33 31 -53 45q-33 23 -61 35q13 18 19 36q10 31 10 39v277l-37 4l6 18z" />
<glyph unicode="u" horiz-adv-x="454" d="M99 498h8l73 -64q-7 -21 -20 -34l-9 -9l-2 -261q0 -15 6.5 -27t18.5 -22h1q0 -1 1.5 -2t2 -1t1.5 -1v-1h2q0 -2 2 -2h2l4 5h2l70 64v250l-29 35l79 70l72 -64l4 -10l-28 -34v-283l5 -15q3 -3 8 -10q0 -2 2 -2q0 -5 5 -5q0 -1 2 -3l21 15l14 -13l-86 -82h-5q-1 1 -2.5 1 t-7.5 2q-1 1 -6 3q-50 34 -50 101v2q0 1 1 2v4q0 1 1 2v1l-136 -114l-2 1l-2 2l-1 1h-2q-24 19 -41.5 41.5t-23.5 49.5v302l-19 20l-16 -10l-11 12z" />
<glyph unicode="v" horiz-adv-x="433" d="M118 626l8 -12q-9 -9 -25 -29q-7 -9 -10 -15.5t-3 -15.5q-1 -1 -1 -4v-4q0 -6 1 -9q0 2 7 -19q5 -5 6 -8q43 -51 52 -126l138 114q22 -21 63 -65q3 -3 3.5 -5.5t1.5 -3t3 -2.5v-339q-8 -18 -23 -23q-10 -2 -15 -6q-2 0 -7.5 -2t-7.5 -2.5t-3 -1.5t-3 -1h-2q-1 -1 -2 -1 q-6 -2 -8 -2t-4.5 -1t-4.5 -2q-10 -2 -15 -5t-14 -9l-15 -9q-11 -9 -26 -18q-3 -3 -6 -4l-4 -4q-81 74 -183 89q19 19 25 35q12 22 12 43v250q-7 10 -21 28q-5 10 -13 32q-2 5 -4 15q-1 4 -1 16v8q0 1 1 5v5q3 19 16 43q7 13 34 38q2 2 6 4.5t6 3.5t4 2.5t4.5 2t4.5 2.5 q6 4 12.5 6t7.5 3t5 1v2zM229 411l-76 -60v-227l111 -50v280q-1 1 -1 3v3q-1 1 -1 3q-2 14 -11 27t-19 18h-2v1h-1v2z" />
<glyph unicode="w" horiz-adv-x="627" d="M116 624v-21q-2 -3 -16 -17q-2 -2 -7 -7.5t-7.5 -8t-2.5 -5.5l-2 -6v-2q-1 -2 -1 -3v-6q-1 -1 -1 -6v-5q28 -35 46 -72q22 -37 24 -81l128 116q59 -52 70 -118l8 2l122 114q1 -3 4 -3h6q2 -2 4 -2h3q0 -1 1 -1.5t2 -2.5t3 -2q15 -21 30 -47q13 -19 20 -52v-305 q-5 -5 -8 -6q-5 -4 -8.5 -5t-9 -4t-8.5 -4l-58 -34l-29 -17q-3 -3 -26 -17l-36 15q-15 8 -38 15q-11 3 -32 8q-12 3 -30 3q-52 0 -93 -41q-4 4 -7.5 6.5t-6.5 3.5l-15 12q-8 7 -20 15q-49 28 -53 30q-30 14 -58 14q19 15 27.5 34t8.5 42v248q-38 63 -38 101q0 6 1 12l6 24 q1 2 2.5 6t1.5 6q17 23 33 39t41 31h3q1 0 2 1h4q1 0 2 1h2zM421 405l-72 -68v-223l110 -42v296q-1 11 -13 24q-8 11 -25 11v2zM217 411l-70 -66v-213l8 -8l95 -45v287q0 4 -1 9t-5 13l-6 6q-2 3 -7 6q-8 8 -14 9v2z" />
<glyph unicode="x" horiz-adv-x="475" d="M110 498h2q2 -1 6 -2t6.5 -2.5t5 -2.5t4.5 -2.5t3.5 -2t5.5 -5.5q3 -1 6 -6q1 0 7 -6q3 -1 5.5 -5t6.5 -8l3 -3q2 -2 2 -4q8 -8 9 -11q12 -17 32 -51q10 -16 26 -54l70 165l95 -58l-29 -76l-78 31l-40 -97l91 -182q9 -18 18.5 -27.5t25.5 -18.5l22 17l15 -13l-91 -82 q-4 3 -31 25l-27 31l-79 146l-84 -202l-91 56q0 -4 6 26q1 3 11 28q4 10 14 28l76 -33l52 130l-72 145q-20 20 -27 25q-13 12 -31 20l-29 -16l-10 12z" />
<glyph unicode="y" horiz-adv-x="433" d="M105 496q2 -2 9 -3.5t11 -5t14 -15.5q3 -2 6.5 -6.5t7.5 -10.5q0 -2 1 -2.5t3.5 -3.5t3.5 -5l3 -9q1 -4 3 -10l3 -9q1 -3 2 -9.5t3 -14.5l3 -12l128 116h8q30 -50 46 -96l9 -34q2 -4 4 -24q0 -8 1 -11v-16q-1 -3 -1 -6v-10q-1 -6 -3.5 -17t-3.5 -17q-29 -77 -89 -129 q-87 -75 -211 -142q-14 -12 -21 -20.5t-14 -29.5v-6q0 -5 1 -8q0 1 7 -20q5 -5 6 -9q33 -19 54 -21q3 0 6 -1h5q5 0 6 -1h15q1 1 3 1q13 2 19 4t14 10v2h1q0 1 1 1q5 10 17 20t23 10q6 -4 14 -16q0 -1 1 -2v-1q0 -1 1 -2v-3q-1 0 -1 -1v-5q-1 0 -1 -1v-2q-12 -17 -33 -24 q-31 -11 -44 -11h-12q-1 0 -6 -1h-21q-3 1 -5 1q-15 1 -42 6q-54 13 -54 62q0 13 5 29q10 31 39 60q9 11 17 29t9 30v308l-5 15q-2 1 -2 3v2q-1 0 -1.5 1.5t-5.5 2.5q-1 2 -6 3q-7 -3 -20 -12q-2 -2 -8 -7t-9 -8l-17 17zM240 401l-64 -58v-254q37 26 67 74t37 92q0 7 2 17 q0 5 1 9v15q-1 1 -1 6v7q-1 1 -1 7q-7 49 -41 83v2z" />
<glyph unicode="z" horiz-adv-x="346" d="M145 498q19 -27 50 -51.5t63 -35.5l23 2l-134 -130q4 -3 13 -3h4q2 -1 3.5 -2t5.5 -1q43 -8 76.5 -40t33.5 -74v-2q-1 -1 -1 -3v-6q-1 -1 -1 -3v-4q-14 -60 -55 -92q-44 -35 -90 -59q-3 -2 -10 -5q0 -1 -2 -2t-4 -1t-3 -1.5t-3.5 -3t-2 -1.5t-8.5 -3q-2 -2 -6 -4.5t-5 -3 t-2 -1.5h-1v-1q-1 0 -1.5 -2t-5.5 -7l-10 -20q-2 -8 -2 -10v-5q0 -4 1 -6t2 -3.5t1.5 -2.5t2 -3t2 -3t2 -2.5t1.5 -2.5l5 -5q2 -1 3.5 -2t2.5 -1t3 -1h2q1 0 5 -1h8q1 1 5 1h5q1 1 3 1.5t4 0.5h2q2 2 4 2h8q1 -1 3 -2t6 -5l4 -4q0 -27 -27 -27q-2 0 -6 1h-3q-2 1 -5 1t-12 4 t-20 10q-2 0 -5 2.5t-5 3.5l-7 7q-2 1 -5 6l-2 2q-2 2 -3 3.5t-3 7.5t-3 10.5t-1 6.5v11q0 1 1 3v3q1 4 4.5 12t6 12.5t4.5 9.5q3 2 8.5 6t7.5 5t4.5 3.5t4.5 4t8 6.5q81 63 81 130v6q-1 3 -1 7.5t-4 13.5q-2 6 -2.5 7t-3 8.5t-2.5 7t-1.5 2t-2.5 2.5q-6 8 -22 15 q-4 3 -25 8q-2 0 -5 1h-5q-1 0 -4 1h-11q-3 -1 -7 -1h-6q-3 -1 -6.5 -1t-9.5 -1.5t-11 -3t-7 -1.5t-4.5 -1t-4.5 -2h-2q-1 -1 -2 -1h-2q-1 -1 -2 -1l149 149l-89 81l-54 -34l-14 13z" />
<glyph unicode="{" horiz-adv-x="388" d="M231 855q6 -2 43 -16q18 -6 38 -25q2 -4 7 -13q1 -2 3.5 -6.5t3.5 -7.5t9 -25q1 0 2 -2.5t1 -3.5t1.5 -6.5t2.5 -6.5l1 -3v-4h-6q-1 -2 -3 -2q-1 0 -2 1l-2 2h-2l-1 1h-1q-2 2 -3 3.5t-1 2.5q-9 13 -18 20q-5 6 -21 17q-4 0 -50 -6l-24 -3l-25 -3q-23 3 -50 16q2 0 -16 6 q62 -68 76 -146v-159q-11 -42 -31 -73l-43 -35l43 -35q14 -26 20 -43q11 -31 11 -42v-184q-12 -45 -34 -75q-15 -26 -50 -65q41 31 87 31h12q13 0 18.5 -0.5t19.5 -2.5q4 0 12 -2q3 0 11 -2l12 -3q4 -1 11 -3q0 2 1 2.5t2 2.5t2 2.5t3 2.5h1q0 1 0.5 1t1.5 1v1q2 0 3.5 2.5 t2.5 3.5l3 3q2 2 3 4t5 6.5t5.5 7t3.5 2.5h4q2 2 4 2h5q-1 -5 -3 -13l-3 -8q-22 -66 -68 -89h-12q-1 0 -6 -1h-23q-4 0 -7 -1h-16q-4 1 -11 1h-11q-2 0 -10 1q-12 1 -36 4q-9 2 -18 2q-2 0 -7.5 1t-8.5 2l-14 18l-15 15l2 6l2 6l3 18q2 12 2.5 17t3.5 14q12 44 14 73 q0 3 1 10v9q0 6 1 10v26l-1 17l-2 34q-2 10 -2 16v8q-1 2 -1 9t-4 37q-2 24 -2 39l-33 70l-52 25l56 47l25 56q0 10 2 36q0 4 2 18t2 21v5q0 1 1 3v2q0 11 2 33t2 33q1 7 1 21v10q-1 3 -1 10v11q-1 3 -1 10l-3 24q-2 14 -5 23q-4 18 -17 46q0 2 1 3.5t2 3.5v2q0 2 1 3.5 t2 3.5l2 2q3 6 7 17l35 21q10 1 28 5q9 2 27 5q34 5 54 6v2z" />
<glyph unicode="|" d="M269 680h86v-688h-86v688z" />
<glyph unicode="}" horiz-adv-x="408" d="M130 855q7 -3 18 -3q35 -5 37 -5t35 -7q6 -2 9 -2l9 -3l37 -17q2 -5 4 -15q1 0 2 -2.5t1 -3.5t2 -7q0 -1 1 -2v-3q0 -2 2 -4q-6 -12 -16 -40q-5 -18 -11 -53q-1 -4 -1 -13q-1 -13 -1 -24q0 -14 2 -44q0 -6 2.5 -21.5t2.5 -23.5v-4q0 -1 1 -3q1 -14 3.5 -41t3.5 -41 l25 -54l55 -47l-51 -25l-31 -68v-10q-1 -6 -1 -8q-1 -6 -2 -17.5t-4 -34.5v-4q-1 -2 -1.5 -4t-0.5 -9q-6 -54 -6 -93v-16q0 -1 1 -3v-3q0 -24 6 -53q3 -12 14 -49q0 -11 1.5 -17.5t3.5 -17.5q0 -1 1 -3v-3q0 -4 2 -6q-6 -4 -9 -9t-9 -12q-2 -2 -2 -3l-3 -3q-1 -3 -4 -6 q-7 0 -29 -2l-31 -6h-8l-6 -2q-45 -5 -50 -5q-20 0 -40 6.5t-34 20.5q-16 23 -25 43t-16 46h4q1 0 2 -1h2q1 0 2 -1h2q2 0 3.5 -2t3 -3.5t2 -2.5l1.5 -3l2 -2q3 -3 9 -10l4 -4q0 -1 2 -3l2 -2q0 -1 2 -3l2 -2q0 -1 2 -3l2 -2q21 6 62 12q7 1 21 1q7 0 16 -1q22 -1 52 -13 q18 -7 31 -17q-26 28 -49 64.5t-34 73.5v12q-1 3 -1 11v12q-1 4 -1 12q-1 1 -1 4v4q-1 13 -2 27.5t-1 27.5v15q0 5 1 8v8q0 30 10 67.5t26 64.5l40 33l-40 31l-31 66v174q29 82 77 142l-9 -3q-9 -3 -8 -3q-8 -2 -14 -6q-2 -2 -7 -3t-6 -1q-4 -1 -11 -4h-2q-2 -1 -4 -1.5 t-5 -0.5l-50 6l-24 3l-25 3q-15 -10 -22 -17q-10 -7 -18 -20q-1 -1 -2.5 -3t-1.5 -3h-1q-1 -1 -2 -1h-1l-1 -1h-1l-1 -1h-2l-1 -1h-2l-4 4q0 4 3 14l5 13q11 36 35 60q28 28 62 28z" />
<glyph unicode="~" horiz-adv-x="667" d="M571 412h31q-3 -70 -34 -115q-37 -52 -103 -52q-47 0 -184 57q-70 30 -101 30q-70 0 -84 -87h-31q4 71 32 114q35 54 100 54q28 0 54 -8q50 -13 134 -50q47 -21 70 -27q15 -4 32 -4q74 0 84 88z" />
<glyph unicode="&#xa1;" horiz-adv-x="281" d="M141 528l74 -74l-74 -75l-75 75zM228 -48l-87 -91l-87 91q62 124 76 394h20q21 -278 78 -394z" />
<glyph unicode="&#xa2;" horiz-adv-x="346" d="M171 651h44v-77q25 -37 68 -51l-50 -66l-18 6v-281l4 -8q1 -1 4 -1q4 0 6 1.5t6 3.5t6 2q4 4 15 11.5t17 13.5l16 -13l-74 -66v-138h-46v103q-69 49 -142 68q8 18 21 55l2 5q1 5 2 6v283q25 13 52 34l53 39l9 9q3 3 5 11v50zM143 512v-295l16 -19h15v294z" />
<glyph unicode="&#xa3;" horiz-adv-x="520" d="M291 640l145 -68l8 -10l-43 -83l-176 79q-19 -29 -30 -68v-4q-1 -2 -1.5 -4t-1 -10t-0.5 -15v-12q0 -2 0.5 -4t1.5 -4v-3q0 -1 1 -2v-2q0 -1 0.5 -5t1 -6t1.5 -4v-4l42 -107h128v-21h-126l4 -33h122v-19h-124q-10 -64 -50 -142l110 23q55 -4 79 -8q44 -7 76 -21l-35 -93 l-124 43l-102 2q-5 -3 -18 -5q-6 -1 -19 -4l-36 -9q-6 -1 -18 -6q-7 -1 -19 -6q-5 -2 -18 -5q-3 0 -9 -2t-9 -2l-11 14l9 11l105 53q6 6 8 15l3 9q0 3 2 9v10q0 1 1 5v12q-1 3 -1 9v4q-1 3 -1 5q-2 6 -2 8q-12 52 -27 69l-78 2v19h66l-14 29l-52 2v23h47v3q-1 1 -1 4v5 q-1 1 -2 6t-1 8v9q0 148 170 295l9 3q1 0 5 1h4v2z" />
<glyph unicode="&#xa4;" horiz-adv-x="700" d="M683 589l-31 -73q-95 111 -225 111q-81 0 -146 -55.5t-85 -135.5h423l-30 -72h-405v-36h389l-30 -73h-346q26 -83 84 -135q63 -56 146 -56q131 0 232 119v-106q-105 -85 -232 -85q-114 0 -198 77q-79 72 -108 186h-108l30 73h68q-1 9 -1 18q0 8 1 18h-98l30 72h78 q26 114 107 187q85 77 199 77q147 0 256 -111z" />
<glyph unicode="&#x20ac;" horiz-adv-x="700" d="M683 589l-31 -73q-95 111 -225 111q-81 0 -146 -55.5t-85 -135.5h423l-30 -72h-405v-36h389l-30 -73h-346q26 -83 84 -135q63 -56 146 -56q131 0 232 119v-106q-105 -85 -232 -85q-114 0 -198 77q-79 72 -108 186h-108l30 73h68q-1 9 -1 18q0 8 1 18h-98l30 72h78 q26 114 107 187q85 77 199 77q147 0 256 -111z" />
<glyph unicode="&#xa5;" horiz-adv-x="729" d="M704 588l-36 -72l-129 52l-105 -248v-36h161l-25 -74h-136v-104q26 7 57 7q22 0 48 -7l-37 -81q-46 8 -63 8q-97 0 -203 -33l-7 21q33 19 106 53v136h-160l25 74h135v36l-113 189q-2 4 -8 13q-21 39 -35 53q-24 25 -56 25q-24 0 -45 -14q-15 -9 -40 -43l-14 16 q19 50 53 81q39 35 88 35q57 0 93 -43q24 -28 39 -55l129 -219l130 314q47 -32 104 -61z" />
<glyph unicode="&#xa6;" horiz-adv-x="566" d="M236 696h91v-356h-91v356zM236 220h91v-355h-91v355z" />
<glyph unicode="&#xa7;" horiz-adv-x="510" d="M92 -92l47 80l205 -73q24 31 24 53q0 36 -50 72q-14 10 -111 71q-70 43 -94 63q-65 56 -65 130t84 147q-35 37 -35 85q0 81 118 185l203 -73l-48 -79l-204 74q-23 -35 -23 -54q0 -45 88 -97q63 -37 94 -57q57 -38 86 -67q51 -50 51 -111q0 -73 -84 -151q37 -39 37 -83 q0 -50 -40 -104q-16 -21 -77 -84zM364 122q48 43 48 81q0 40 -48 83q-24 21 -82 57q-47 28 -135 92q-48 -45 -48 -84q0 -40 56 -87q24 -19 90 -59t119 -83z" />
<glyph unicode="&#xa8;" horiz-adv-x="346" d="M258 578l-53 54l53 53l54 -53zM63 578l-54 54l54 53l53 -53z" />
<glyph unicode="&#xa9;" horiz-adv-x="760" d="M380 677q92 0 173.5 -46.5t126.5 -125.5q47 -84 47 -174q0 -93 -47 -174.5t-128.5 -126.5t-171.5 -45q-93 0 -174.5 46.5t-126.5 128t-45 171.5q0 93 47.5 175.5t129.5 126.5t169 44zM380 647q-84 0 -158.5 -42.5t-115.5 -114.5q-42 -76 -42 -159q0 -85 42.5 -159 t117 -115.5t156.5 -41.5q85 0 159.5 42.5t115.5 117t41 156.5q0 85 -43 160t-118 115.5t-155 40.5zM551 554l10 -137h-19q-35 115 -148 115q-79 0 -123 -61q-34 -48 -34 -129q0 -89 36 -141q41 -60 126 -60q95 0 152 79l18 -10q-68 -99 -187 -99q-95 0 -159 61 q-67 62 -67 156q0 100 73 164q69 62 170 62q35 0 91 -18q12 -4 18 -4q15 0 24 22h19z" />
<glyph unicode="&#xaa;" horiz-adv-x="302" d="M278 494l9 -15l-79 -52q-32 21 -36 62l-99 -62q-53 38 -53 80q0 55 65 111l-33 78l12 19q21 -7 35 -7q20 0 53 21l64 -24q8 -3 12 -3q11 0 26 19l14 -10q-4 -8 -11 -20q-12 -20 -14 -30q-5 -20 -5 -48v-68q0 -63 18 -63q3 0 14 8q1 0 8 4zM172 595v66l-99 31l28 -63z M172 510v66l-70 34q-17 -39 -17 -59q0 -40 33 -75z" />
<glyph unicode="&#xab;" horiz-adv-x="541" d="M364 399h80l-126 -161l126 -155h-80l-126 155q13 14 26 32q2 3 13 18q4 6 14 18l19 23q8 10 16 23q12 15 38 45v2zM186 401h76l-124 -159l129 -157h-81l-130 157z" />
<glyph unicode="&#xac;" horiz-adv-x="667" d="M63 494h540v-328h-90v238h-450v90z" />
<glyph unicode="&#xad;" horiz-adv-x="396" d="M165 289h169v-63h-169v63z" />
<glyph unicode="&#xae;" horiz-adv-x="760" d="M380 677q92 0 173.5 -46.5t126.5 -125.5q47 -84 47 -174q0 -93 -47 -174.5t-128.5 -126.5t-171.5 -45q-93 0 -174.5 46.5t-126.5 128t-45 171.5q0 93 47.5 175.5t129.5 126.5t169 44zM380 647q-84 0 -158.5 -42.5t-115.5 -114.5q-42 -76 -42 -159q0 -85 42.5 -159 t117 -115.5t156.5 -41.5q85 0 159.5 42.5t115.5 117t41 156.5q0 85 -43 160t-118 115.5t-155 40.5zM188 544h189q58 0 98 -25q47 -29 47 -84q0 -81 -108 -109l102 -145q28 -41 59 -43v-16h-90l-144 197h-37v-151q6 -30 58 -30v-16h-179v16q40 0 48 25q2 6 2 42v255 q0 38 -1 43q-7 23 -44 23v18zM304 340h15q124 0 124 89q0 41 -28 67t-70 26q-18 0 -41 -7v-175z" />
<glyph unicode="&#xaf;" horiz-adv-x="333" d="M315 608h-297v66h297v-66z" />
<glyph unicode="&#x2c9;" horiz-adv-x="333" d="M315 608h-297v66h297v-66z" />
<glyph unicode="&#xb0;" horiz-adv-x="400" d="M198 676q71 0 120 -49t49 -120q0 -70 -49.5 -119.5t-119.5 -49.5q-71 0 -120 49.5t-49 119.5q0 71 49 120t120 49zM198 612q-44 0 -74.5 -30.5t-30.5 -74.5q0 -43 30.5 -74t74.5 -31t74.5 31t30.5 74q0 44 -30.5 74.5t-74.5 30.5z" />
<glyph unicode="&#xb1;" horiz-adv-x="667" d="M63 458h225v225h90v-225h225v-90h-225v-224h-90v224h-225v90zM63 64h540v-90h-540v90z" />
<glyph unicode="&#xb2;" horiz-adv-x="333" d="M46 310l-26 9q11 62 112 132q47 32 62 56q24 36 24 75q0 23 -21 44l-120 -75l-57 52l113 73l171 -70q4 -20 4 -32q0 -54 -37 -88q-23 -22 -80 -46q-62 -27 -80 -40.5t-34 -36.5q71 32 137 32q50 0 94 -17l-56 -68q-66 20 -109 20q-51 0 -97 -20z" />
<glyph unicode="&#xb3;" horiz-adv-x="333" d="M83 311l-87 70l61 57l122 -94q26 26 26 64q0 48 -32 71q-20 15 -69 15h-18v25q106 0 106 79q0 36 -24 36q-10 0 -25 -11l-71 -50l-52 56l66 45l203 -55q-17 -90 -81 -110q92 -23 92 -83q0 -104 -217 -115z" />
<glyph unicode="&#xb4;" horiz-adv-x="346" d="M138 522h-27l44 182h114z" />
<glyph unicode="&#xb5;" horiz-adv-x="500" d="M42 462h99v-275q0 -61 9 -91q17 -52 64 -52q24 0 58 26l48 42v350h99v-334v-51q5 -37 26 -37q37 0 44 60h24q-6 -114 -103 -114q-79 0 -90 93q-59 -56 -66 -61q-41 -32 -81 -32q-52 0 -86 42q-1 -15 -1 -23q0 -40 20 -116q8 -30 8 -51q0 -23 -16 -38.5t-39 -15.5 q-54 0 -54 53q0 23 17 81q12 39 14 52q7 52 6 82v41v369z" />
<glyph unicode="&#xb6;" horiz-adv-x="448" d="M390 635v-851h-36v851h-91v-851h-35v509q-77 4 -119 17q-62 21 -91 72q-25 43 -25 97q0 109 97 159q47 24 123 24h242v-27h-65z" />
<glyph unicode="&#xb7;" horiz-adv-x="280" d="M136 386q27 -5 42 -22q18 -21 19 -44q0 -1 1 -3v-10q-1 -1 -1 -4v-6q-1 -5 -5 -16q-1 -5 -8 -12q-20 -20 -44 -23q-6 -2 -8 -2h-15q-25 0 -46 18t-21 46v2q0 1 1 2v4q0 1 1 2v4q0 25 23.5 43.5t48.5 18.5z" />
<glyph unicode="&#x2219;" horiz-adv-x="280" d="M136 386q27 -5 42 -22q18 -21 19 -44q0 -1 1 -3v-10q-1 -1 -1 -4v-6q-1 -5 -5 -16q-1 -5 -8 -12q-20 -20 -44 -23q-6 -2 -8 -2h-15q-25 0 -46 18t-21 46v2q0 1 1 2v4q0 1 1 2v4q0 25 23.5 43.5t48.5 18.5z" />
<glyph unicode="&#xb8;" horiz-adv-x="367" d="M167 10h19l-27 -49h2q0 1 2 1h5q1 1 4 1h4q11 0 17.5 -1.5t17.5 -3.5q7 -3 22 -8q8 -2 12 -4.5t11 -5.5q5 -6 13 -17q3 -7 7 -18v-6q0 -1 1 -3v-7q-1 -1 -1 -4v-5q-1 -1 -1 -5q-14 -42 -52 -57l-30 -6q-6 0 -7 -1h-7q-1 0 -6 -1h-6q-31 0 -82 17q-18 6 -27 10l-6 6v8 l37 25q8 -13 24.5 -26t31.5 -17q2 0 4 -1h4q2 0 4 -1h10q1 1 3 1q9 1 21.5 7.5t17.5 13.5q0 1 1 3v4q0 1 0.5 2.5t1.5 2.5v2v10q0 1 1 4v10v3q-1 2 -1 3q-2 6 -2 7q-2 8 -3 11q-14 14 -28.5 20.5t-33.5 6.5h-2l-1 -1h-2l-1 -1h-7z" />
<glyph unicode="&#xb9;" horiz-adv-x="333" d="M265 371l-82 -58l-76 43l18 19v192q0 53 -13 53q-6 0 -27 -16l-12 19l80 53q34 -10 47 -35q10 -19 10 -70v-182q2 -5 10 -13q2 -1 6 -5l26 18z" />
<glyph unicode="&#xba;" horiz-adv-x="281" d="M243 696v-222q-47 -13 -99 -45q-72 32 -109 32h-10l-7 13q19 23 19 70v142q54 11 99 44q49 -29 107 -34zM178 484v163q-32 17 -75 23v-159z" />
<glyph unicode="&#xbb;" horiz-adv-x="541" d="M242 401h76l130 -163l-128 -155h-78l126 155zM62 403h78l127 -161l-127 -157h-78l124 157z" />
<glyph unicode="&#xbc;" horiz-adv-x="1010" d="M312 -33h-64l444 712h64zM355 371l-82 -58l-75 43l18 19v192q0 53 -13 53q-6 0 -27 -16l-12 19l80 53q34 -10 47 -35q9 -19 9 -70l1 -182q2 -5 10 -13l5 -5l27 18zM805 0l-72 42l14 20v35h-138l-17 67l169 200q42 -9 56 -30.5t14 -65.5v-111h48l16 -60h-64v-16l16 -23 l24 12l13 -19zM747 157v99q0 12 1 29q-1 7 -3.5 11t-5.5 4q-6 0 -20 -16l-103 -123z" />
<glyph unicode="&#xbd;" horiz-adv-x="1010" d="M312 -33h-64l444 712h64zM355 371l-82 -58l-75 43l18 19v192q0 53 -13 53q-6 0 -27 -16l-12 19l80 53q34 -10 47 -35q9 -19 9 -70l1 -182q2 -5 10 -13l5 -5l27 18zM633 0l-27 9q12 62 113 132q46 31 62 56q24 37 24 74q0 24 -20 45l-121 -74l-58 50l114 74l171 -70 q4 -20 4 -32q0 -54 -36 -88q-24 -22 -81 -47q-62 -26 -80 -39.5t-34 -36.5q72 31 137 31q50 0 95 -16l-57 -68q-66 20 -110 20q-50 0 -96 -20z" />
<glyph unicode="&#xbe;" horiz-adv-x="1010" d="M312 -33h-64l444 712h64zM173 311l-87 70l61 57l122 -94q26 26 26 64q0 48 -32 71q-19 15 -69 15h-17v25q106 0 106 79q0 36 -24 36q-10 0 -26 -11l-71 -50l-52 56l67 45l202 -55q-17 -90 -81 -110q93 -23 93 -83q0 -104 -218 -115zM805 0l-72 42l14 20v35h-138l-17 67 l169 200q42 -9 57 -32q12 -19 12 -64v-111h49l16 -60h-65v-16l17 -23l23 12l14 -19zM747 157v99q0 12 1 29q-1 7 -3.5 11t-5.5 4q-6 0 -20 -16l-103 -123z" />
<glyph unicode="&#xbf;" horiz-adv-x="333" d="M197 528l74 -74l-74 -75l-74 75zM317 -7l-73 -131l-17 -1q-85 -2 -137 44q-49 43 -49 102q0 60 72 146q43 51 57.5 88.5t14.5 102.5h22q1 -20 1 -31q0 -67 -41 -183q-20 -53 -20 -88q0 -47 40 -69q19 -11 40 -11q39 0 76 39z" />
<glyph unicode="&#xc0;" d="M589 692h16q-16 -16 -45 -51q-19 -25 -27 -58v-451q7 -29 29 -51l33 26l19 -20l-115 -99q-1 1 -2 1h-3q-10 2 -14.5 5t-12.5 6q-41 47 -52 103l-155 -115l-175 95h-9l-2 -2q-1 -1 -3 -1h-4q-8 -2 -12.5 -4t-6.5 -10v-1q-1 -1 -1 -2v-3q-2 -2 -2 -4v-8q0 -1 1 -2v-3l2 -6 q0 -1 1 -2q1 -6 3 -14.5t2 -12.5v-2q-1 -1 -1.5 -2.5t-2.5 -3.5v-2q-1 0 -1 -1v-2q-1 0 -2 -0.5t-2.5 -1.5t-2.5 -2q-4 -1 -6 -2h-3q-1 0 -2 -1h-2q-11 0 -19 11q-8 8 -8 24q4 13 14 35q6 12 15 35l99 147q-50 38 -80 92q-33 57 -33 116q0 10 3 25q3 19 4 24q0 1 2 9 q0 -3 5 17q0 3 2 8q29 73 93 109.5t136 40.5q1 0 5 1h26q3 -1 10 -1h11q3 -1 11 -2t13 -1.5t15 -2.5q15 -1 27 -6l99 -49q1 -1 3 1l4 4q26 26 46 40q27 19 57 25v2zM149 209l-31 -50l206 -97h9l82 68l-2 79h-264zM238 599q-75 -8 -130.5 -57.5t-55.5 -124.5v-7l2 -6 q0 -1 1 -3v-4q0 -1 1 -3v-3q11 -76 89 -131l140 203q-4 0 -7 3q1 0 -6 3l-10 3q-1 0 -8 2t-9.5 2t-7.5 1h-6q-50 0 -74 -45l-2 6q-1 3 -1 8q-1 1 -1 3v4q0 53 78 82q7 3 20.5 5.5t19.5 2.5q3 0 38 -5h3q0 -1 2 -1h3q0 -1 2 -1q6 -2 8 -2h4q1 -1 4 -1l27 35q-24 13 -55.5 21 t-58.5 8zM384 548l-177 -257h206l-8 221l-15 36h-6zM456 771l-130 182h113l44 -182h-27z" />
<glyph unicode="&#xc1;" d="M589 692h16q-16 -16 -45 -51q-19 -25 -27 -58v-451q7 -29 29 -51l33 26l19 -20l-115 -99q-1 1 -2 1h-3q-10 2 -14.5 5t-12.5 6q-41 47 -52 103l-155 -115l-175 95h-9l-2 -2q-1 -1 -3 -1h-4q-8 -2 -12.5 -4t-6.5 -10v-1q-1 -1 -1 -2v-3q-2 -2 -2 -4v-8q0 -1 1 -2v-3l2 -6 q0 -1 1 -2q1 -6 3 -14.5t2 -12.5v-2q-1 -1 -1.5 -2.5t-2.5 -3.5v-2q-1 0 -1 -1v-2q-1 0 -2 -0.5t-2.5 -1.5t-2.5 -2q-4 -1 -6 -2h-3q-1 0 -2 -1h-2q-11 0 -19 11q-8 8 -8 24q4 13 14 35q6 12 15 35l99 147q-50 38 -80 92q-33 57 -33 116q0 10 3 25q3 19 4 24q0 1 2 9 q0 -3 5 17q0 3 2 8q29 73 93 109.5t136 40.5q1 0 5 1h26q3 -1 10 -1h11q3 -1 11 -2t13 -1.5t15 -2.5q15 -1 27 -6l99 -49q1 -1 3 1l4 4q26 26 46 40q27 19 57 25v2zM149 209l-31 -50l206 -97h9l82 68l-2 79h-264zM238 599q-75 -8 -130.5 -57.5t-55.5 -124.5v-7l2 -6 q0 -1 1 -3v-4q0 -1 1 -3v-3q11 -76 89 -131l140 203q-4 0 -7 3q1 0 -6 3l-10 3q-1 0 -8 2t-9.5 2t-7.5 1h-6q-50 0 -74 -45l-2 6q-1 3 -1 8q-1 1 -1 3v4q0 53 78 82q7 3 20.5 5.5t19.5 2.5q3 0 38 -5h3q0 -1 2 -1h3q0 -1 2 -1q6 -2 8 -2h4q1 -1 4 -1l27 35q-24 13 -55.5 21 t-58.5 8zM384 548l-177 -257h206l-8 221l-15 36h-6zM377 742h-27l44 182h114z" />
<glyph unicode="&#xc2;" d="M589 692h16q-16 -16 -45 -51q-19 -25 -27 -58v-451q7 -29 29 -51l33 26l19 -20l-115 -99q-1 1 -2 1h-3q-10 2 -14.5 5t-12.5 6q-41 47 -52 103l-155 -115l-175 95h-9l-2 -2q-1 -1 -3 -1h-4q-8 -2 -12.5 -4t-6.5 -10v-1q-1 -1 -1 -2v-3q-2 -2 -2 -4v-8q0 -1 1 -2v-3l2 -6 q0 -1 1 -2q1 -6 3 -14.5t2 -12.5v-2q-1 -1 -1.5 -2.5t-2.5 -3.5v-2q-1 0 -1 -1v-2q-1 0 -2 -0.5t-2.5 -1.5t-2.5 -2q-4 -1 -6 -2h-3q-1 0 -2 -1h-2q-11 0 -19 11q-8 8 -8 24q4 13 14 35q6 12 15 35l99 147q-50 38 -80 92q-33 57 -33 116q0 10 3 25q3 19 4 24q0 1 2 9 q0 -3 5 17q0 3 2 8q29 73 93 109.5t136 40.5q1 0 5 1h26q3 -1 10 -1h11q3 -1 11 -2t13 -1.5t15 -2.5q15 -1 27 -6l99 -49q1 -1 3 1l4 4q26 26 46 40q27 19 57 25v2zM149 209l-31 -50l206 -97h9l82 68l-2 79h-264zM238 599q-75 -8 -130.5 -57.5t-55.5 -124.5v-7l2 -6 q0 -1 1 -3v-4q0 -1 1 -3v-3q11 -76 89 -131l140 203q-4 0 -7 3q1 0 -6 3l-10 3q-1 0 -8 2t-9.5 2t-7.5 1h-6q-50 0 -74 -45l-2 6q-1 3 -1 8q-1 1 -1 3v4q0 53 78 82q7 3 20.5 5.5t19.5 2.5q3 0 38 -5h3q0 -1 2 -1h3q0 -1 2 -1q6 -2 8 -2h4q1 -1 4 -1l27 35q-24 13 -55.5 21 t-58.5 8zM384 548l-177 -257h206l-8 221l-15 36h-6zM309 742h-29l92 183h106l90 -183h-29l-114 105z" />
<glyph unicode="&#xc3;" d="M589 692h16q-16 -16 -45 -51q-19 -25 -27 -58v-451q7 -29 29 -51l33 26l19 -20l-115 -99q-1 1 -2 1h-3q-10 2 -14.5 5t-12.5 6q-41 47 -52 103l-155 -115l-175 95h-9l-2 -2q-1 -1 -3 -1h-4q-8 -2 -12.5 -4t-6.5 -10v-1q-1 -1 -1 -2v-3q-2 -2 -2 -4v-8q0 -1 1 -2v-3l2 -6 q0 -1 1 -2q1 -6 3 -14.5t2 -12.5v-2q-1 -1 -1.5 -2.5t-2.5 -3.5v-2q-1 0 -1 -1v-2q-1 0 -2 -0.5t-2.5 -1.5t-2.5 -2q-4 -1 -6 -2h-3q-1 0 -2 -1h-2q-11 0 -19 11q-8 8 -8 24q4 13 14 35q6 12 15 35l99 147q-50 38 -80 92q-33 57 -33 116q0 10 3 25q3 19 4 24q0 1 2 9 q0 -3 5 17q0 3 2 8q29 73 93 109.5t136 40.5q1 0 5 1h26q3 -1 10 -1h11q3 -1 11 -2t13 -1.5t15 -2.5q15 -1 27 -6l99 -49q1 -1 3 1l4 4q26 26 46 40q27 19 57 25v2zM149 209l-31 -50l206 -97h9l82 68l-2 79h-264zM238 599q-75 -8 -130.5 -57.5t-55.5 -124.5v-7l2 -6 q0 -1 1 -3v-4q0 -1 1 -3v-3q11 -76 89 -131l140 203q-4 0 -7 3q1 0 -6 3l-10 3q-1 0 -8 2t-9.5 2t-7.5 1h-6q-50 0 -74 -45l-2 6q-1 3 -1 8q-1 1 -1 3v4q0 53 78 82q7 3 20.5 5.5t19.5 2.5q3 0 38 -5h3q0 -1 2 -1h3q0 -1 2 -1q6 -2 8 -2h4q1 -1 4 -1l27 35q-24 13 -55.5 21 t-58.5 8zM384 548l-177 -257h206l-8 221l-15 36h-6zM283 757h-20q7 52 26 78q29 41 72 41q12 0 30 -5q12 -3 41 -16q53 -24 77 -24q34 0 50 44h18q-11 -118 -102 -118q-27 0 -76 21.5t-69 21.5q-32 0 -47 -43z" />
<glyph unicode="&#xc4;" d="M589 692h16q-16 -16 -45 -51q-19 -25 -27 -58v-451q7 -29 29 -51l33 26l19 -20l-115 -99q-1 1 -2 1h-3q-10 2 -14.5 5t-12.5 6q-41 47 -52 103l-155 -115l-175 95h-9l-2 -2q-1 -1 -3 -1h-4q-8 -2 -12.5 -4t-6.5 -10v-1q-1 -1 -1 -2v-3q-2 -2 -2 -4v-8q0 -1 1 -2v-3l2 -6 q0 -1 1 -2q1 -6 3 -14.5t2 -12.5v-2q-1 -1 -1.5 -2.5t-2.5 -3.5v-2q-1 0 -1 -1v-2q-1 0 -2 -0.5t-2.5 -1.5t-2.5 -2q-4 -1 -6 -2h-3q-1 0 -2 -1h-2q-11 0 -19 11q-8 8 -8 24q4 13 14 35q6 12 15 35l99 147q-50 38 -80 92q-33 57 -33 116q0 10 3 25q3 19 4 24q0 1 2 9 q0 -3 5 17q0 3 2 8q29 73 93 109.5t136 40.5q1 0 5 1h26q3 -1 10 -1h11q3 -1 11 -2t13 -1.5t15 -2.5q15 -1 27 -6l99 -49q1 -1 3 1l4 4q26 26 46 40q27 19 57 25v2zM149 209l-31 -50l206 -97h9l82 68l-2 79h-264zM238 599q-75 -8 -130.5 -57.5t-55.5 -124.5v-7l2 -6 q0 -1 1 -3v-4q0 -1 1 -3v-3q11 -76 89 -131l140 203q-4 0 -7 3q1 0 -6 3l-10 3q-1 0 -8 2t-9.5 2t-7.5 1h-6q-50 0 -74 -45l-2 6q-1 3 -1 8q-1 1 -1 3v4q0 53 78 82q7 3 20.5 5.5t19.5 2.5q3 0 38 -5h3q0 -1 2 -1h3q0 -1 2 -1q6 -2 8 -2h4q1 -1 4 -1l27 35q-24 13 -55.5 21 t-58.5 8zM384 548l-177 -257h206l-8 221l-15 36h-6zM546 783l-53 53l53 54l54 -54zM351 783l-54 53l54 54l53 -54z" />
<glyph unicode="&#xc5;" d="M589 692h16q-16 -16 -45 -51q-19 -25 -27 -58v-451q7 -29 29 -51l33 26l19 -20l-115 -99q-1 1 -2 1h-3q-10 2 -14.5 5t-12.5 6q-41 47 -52 103l-155 -115l-175 95h-9l-2 -2q-1 -1 -3 -1h-4q-8 -2 -12.5 -4t-6.5 -10v-1q-1 -1 -1 -2v-3q-2 -2 -2 -4v-8q0 -1 1 -2v-3l2 -6 q0 -1 1 -2q1 -6 3 -14.5t2 -12.5v-2q-1 -1 -1.5 -2.5t-2.5 -3.5v-2q-1 0 -1 -1v-2q-1 0 -2 -0.5t-2.5 -1.5t-2.5 -2q-4 -1 -6 -2h-3q-1 0 -2 -1h-2q-11 0 -19 11q-8 8 -8 24q4 13 14 35q6 12 15 35l99 147q-50 38 -80 92q-33 57 -33 116q0 10 3 25q3 19 4 24q0 1 2 9 q0 -3 5 17q0 3 2 8q29 73 93 109.5t136 40.5q1 0 5 1h26q3 -1 10 -1h11q3 -1 11 -2t13 -1.5t15 -2.5q15 -1 27 -6l99 -49q1 -1 3 1l4 4q26 26 46 40q27 19 57 25v2zM149 209l-31 -50l206 -97h9l82 68l-2 79h-264zM238 599q-75 -8 -130.5 -57.5t-55.5 -124.5v-7l2 -6 q0 -1 1 -3v-4q0 -1 1 -3v-3q11 -76 89 -131l140 203q-4 0 -7 3q1 0 -6 3l-10 3q-1 0 -8 2t-9.5 2t-7.5 1h-6q-50 0 -74 -45l-2 6q-1 3 -1 8q-1 1 -1 3v4q0 53 78 82q7 3 20.5 5.5t19.5 2.5q3 0 38 -5h3q0 -1 2 -1h3q0 -1 2 -1q6 -2 8 -2h4q1 -1 4 -1l27 35q-24 13 -55.5 21 t-58.5 8zM384 548l-177 -257h206l-8 221l-15 36h-6zM473 920q34 0 57.5 -23.5t23.5 -57.5t-23.5 -58t-57.5 -24t-58 24t-24 58t24 57.5t58 23.5zM473 892q-23 0 -38.5 -15.5t-15.5 -37.5t16 -38t38 -16t37.5 16t15.5 38t-15.5 37.5t-37.5 15.5z" />
<glyph unicode="&#xc6;" horiz-adv-x="991" d="M281 684q49 -8 89 -27.5t82 -46.5q27 27 64 48.5t77 21.5l14 2q-41 -23 -68.5 -54.5t-40.5 -73.5l-8 -108l6 -151q1 -19 7 -40q3 -12 12 -35q2 -2 3 -7t4 -10.5t4.5 -8t3.5 -8.5q0 -1 0.5 -3.5t2.5 -4.5q3 4 11 17q4 7 8 18q0 4 1 7t3 5v279l167 178h10l102 -46 q5 -4 12 -4q12 -3 22 -3q9 -3 19 -3h17q3 0 11 2q1 0 5 1h4q1 0 5 1h4l-120 -159h93l-50 -99h-140v-296l68 5q41 7 80 33q36 24 67 55v-16q-74 -144 -196 -163q-1 0 -6 -1h-6q-2 0 -5 -1h-29q-176 0 -256 140l-172 -138l-16 2l-174 99q-1 -3 -4 -6l-2 -2q-2 -2 -2.5 -2 t-2.5 -2.5t-3 -3.5q-4 -4 -4.5 -5.5t-2 -4t-2.5 -3.5l-1 -3q-1 -2 -1.5 -3.5t-1.5 -3t-1.5 -4.5t-0.5 -7h2v-5q0 -2 1 -3t3 -7q0 -2 2 -8v-6q0 -1 1 -3v-3q0 -7 -4 -11q-2 -7 -13 -9q-18 0 -23.5 8.5t-5.5 17.5v7q0 2 2 8q0 3 1 6.5t2 5t2.5 4.5t1.5 4v2q0 1 2 3l111 179 l-33 38q-2 -2 -2 1l-3 3q-2 2 -2 3.5t-1 3t-2 1.5q-64 92 -64 159v2q0 1 1 2v4l1 1v1q0 94 73 163t166 69zM153 205l-39 -60l200 -93l107 86l-20 67h-248zM690 581l-33 -29v-226q0 -38 -27 -77q-22 -32 -51 -64q-12 -12 -34 -38q56 -68 145 -77v511zM238 599 q-71 -6 -124.5 -62.5t-53.5 -123.5v-7l2 -6v-3l1 -1v-6q0 -1 1 -2v-2q7 -37 26 -71.5t46 -58.5l4 -2l137 203q-5 5 -19 13q-11 5 -20 6q-1 0 -3 1h-11q-3 -1 -5 -1q-17 0 -43 -19q-17 -13 -27 -25v2q-1 0 -1 1v5q-1 0 -1 1v3q0 34 29 59q33 28 64 34l15 3q5 0 8 1h8l18 2 q4 -4 10 -4h5q1 -1 6 -2l10 -2q5 -1 9 -2l14 27q-24 18 -41 23q-23 13 -45 13h-10q-1 0 -4 1h-5v2zM366 531l-166 -248h186l11 211zM717 562v-167l105 130z" />
<glyph unicode="&#xc7;" horiz-adv-x="648" d="M314 585l-39 -33v-219q0 -38 -21 -70q-14 -21 -47 -59q-3 -4 -9 -11l-10 -10q-6 -5 -17 -18q27 -27 76 -62q35 -20 69 -20zM301 -10l-17 -30h2q0 1 2 1h5q1 1 4 1h4q11 0 17.5 -1.5t17.5 -3.5q7 -3 22 -8q8 -2 12 -4.5t11 -5.5q5 -6 13 -17q3 -7 7 -18v-6q0 -1 1 -3v-7 q-1 -1 -1 -4v-5q-1 -1 -1 -5q-14 -42 -52 -57l-30 -6q-6 0 -7 -1h-7q-1 0 -6 -1h-6q-31 0 -82 17q-18 6 -27 10l-6 6v8l37 25q8 -13 24.5 -26t31.5 -17q2 0 4 -1h4q2 0 4 -1h10q1 1 3 1q9 1 21.5 7.5t17.5 13.5q0 1 1 3v4q0 1 0.5 2.5t1.5 2.5v2v10q0 1 1 4v10v3q-1 2 -1 3 q-2 6 -2 7q-2 8 -3 11q-14 14 -28.5 20.5t-33.5 6.5h-2l-1 -1h-2l-1 -1h-7l26 52l-41 1q-111 19 -178 110q-64 86 -64 202v4q0 1 1 3v8q0 1 1 3v2l29 110q65 127 176 178l14 2q-1 -3 -5 -7t-7 -5q-31 -28 -65 -69q-31 -37 -43 -83q-2 -8 -2 -10v-5q-1 -3 -1 -5q-2 -8 -2 -9 v-4q-1 -3 -1 -5q-2 -6 -2 -11q-2 -11 -2 -33q0 -48 15 -95q14 -42 47 -85q1 1 2 3l2 2q0 -4 6 14q0 2 2 8v289l203 176q92 -62 198 -62h2q1 0 2 1h4l1 1h1l-93 -95l-140 47v-489q4 -4 9 -4h5q3 -1 6 -1h5q1 -1 5 -1h9q103 0 213 95l-8 -32q-86 -138 -225 -152z" />
<glyph unicode="&#xc8;" d="M370 684q88 -60 186 -60h9q3 0 11 2q1 0 5 1h5q1 0 5 1h4l-143 -153h108l-50 -103h-167v-289l3 -2q0 -1 2 -1h6l15 -3h15q57 0 113 26.5t98 65.5q-6 -52 -48 -92q-38 -37 -90 -62q-7 -4 -20 -9q-7 -1 -17 -4.5t-31 -6.5l-15 -3q-5 0 -13.5 -1t-11.5 -2h-11q-7 0 -10 -1 h-19q-94 0 -173.5 52t-112.5 138q-21 55 -21 115q0 40 19 120q4 6 6 14q2 5 7 15q72 144 183 180l19 2q-145 -125 -145 -246v-2l1 -1v-3l1 -1v-1q0 -98 56 -172v-2h1q0 -1 0.5 -1t1.5 -1v-1h1v-1l10 25q4 37 10 113q0 6 1 19v35l-1 16q-2 32 -2 34q-2 14 -2 22q-2 14 -2 22 v6q-1 1 -1 5v6q-1 1 -1 5zM316 585l-39 -35v-228l-8 -35q-46 -67 -83 -104l-8 -8q-3 -3 -3 -4l-4 -4q63 -66 145 -86v504zM343 570v-177l124 130zM441 727l-131 182h114l44 -182h-27z" />
<glyph unicode="&#xc9;" d="M370 684q88 -60 186 -60h9q3 0 11 2q1 0 5 1h5q1 0 5 1h4l-143 -153h108l-50 -103h-167v-289l3 -2q0 -1 2 -1h6l15 -3h15q57 0 113 26.5t98 65.5q-6 -52 -48 -92q-38 -37 -90 -62q-7 -4 -20 -9q-7 -1 -17 -4.5t-31 -6.5l-15 -3q-5 0 -13.5 -1t-11.5 -2h-11q-7 0 -10 -1 h-19q-94 0 -173.5 52t-112.5 138q-21 55 -21 115q0 40 19 120q4 6 6 14q2 5 7 15q72 144 183 180l19 2q-145 -125 -145 -246v-2l1 -1v-3l1 -1v-1q0 -98 56 -172v-2h1q0 -1 0.5 -1t1.5 -1v-1h1v-1l10 25q4 37 10 113q0 6 1 19v35l-1 16q-2 32 -2 34q-2 14 -2 22q-2 14 -2 22 v6q-1 1 -1 5v6q-1 1 -1 5zM316 585l-39 -35v-228l-8 -35q-46 -67 -83 -104l-8 -8q-3 -3 -3 -4l-4 -4q63 -66 145 -86v504zM343 570v-177l124 130zM309 727h-26l43 182h114z" />
<glyph unicode="&#xca;" d="M370 684q88 -60 186 -60h9q3 0 11 2q1 0 5 1h5q1 0 5 1h4l-143 -153h108l-50 -103h-167v-289l3 -2q0 -1 2 -1h6l15 -3h15q57 0 113 26.5t98 65.5q-6 -52 -48 -92q-38 -37 -90 -62q-7 -4 -20 -9q-7 -1 -17 -4.5t-31 -6.5l-15 -3q-5 0 -13.5 -1t-11.5 -2h-11q-7 0 -10 -1 h-19q-94 0 -173.5 52t-112.5 138q-21 55 -21 115q0 40 19 120q4 6 6 14q2 5 7 15q72 144 183 180l19 2q-145 -125 -145 -246v-2l1 -1v-3l1 -1v-1q0 -98 56 -172v-2h1q0 -1 0.5 -1t1.5 -1v-1h1v-1l10 25q4 37 10 113q0 6 1 19v35l-1 16q-2 32 -2 34q-2 14 -2 22q-2 14 -2 22 v6q-1 1 -1 5v6q-1 1 -1 5zM316 585l-39 -35v-228l-8 -35q-46 -67 -83 -104l-8 -8q-3 -3 -3 -4l-4 -4q63 -66 145 -86v504zM343 570v-177l124 130zM256 728h-29l92 182h105l91 -182h-30l-113 105z" />
<glyph unicode="&#xcb;" d="M370 684q88 -60 186 -60h9q3 0 11 2q1 0 5 1h5q1 0 5 1h4l-143 -153h108l-50 -103h-167v-289l3 -2q0 -1 2 -1h6l15 -3h15q57 0 113 26.5t98 65.5q-6 -52 -48 -92q-38 -37 -90 -62q-7 -4 -20 -9q-7 -1 -17 -4.5t-31 -6.5l-15 -3q-5 0 -13.5 -1t-11.5 -2h-11q-7 0 -10 -1 h-19q-94 0 -173.5 52t-112.5 138q-21 55 -21 115q0 40 19 120q4 6 6 14q2 5 7 15q72 144 183 180l19 2q-145 -125 -145 -246v-2l1 -1v-3l1 -1v-1q0 -98 56 -172v-2h1q0 -1 0.5 -1t1.5 -1v-1h1v-1l10 25q4 37 10 113q0 6 1 19v35l-1 16q-2 32 -2 34q-2 14 -2 22q-2 14 -2 22 v6q-1 1 -1 5v6q-1 1 -1 5zM316 585l-39 -35v-228l-8 -35q-46 -67 -83 -104l-8 -8q-3 -3 -3 -4l-4 -4q63 -66 145 -86v504zM343 570v-177l124 130zM468 759l-53 53l53 54l54 -54zM273 759l-53 53l53 54l54 -54z" />
<glyph unicode="&#xcc;" horiz-adv-x="561" d="M149 680h22q6 -2 32 -4l32 -3q6 0 16 -2l15 -3q11 -1 32 -1l10 2q6 -2 26 0q9 2 26 4h1l1 1q4 0 12 2q4 0 12 2q-68 -75 -78 -145v-16q-1 -3 -1 -6v-4q-1 -1 -1 -4v-8q-2 -14 -2 -19v-40q0 -26 5 -72q4 -42 17 -126l5 -17v-19q-1 -1 -1 -5v-4q-1 -3 -1 -5q-1 -19 -12 -37 q-6 -15 -22 -29q-13 -6 -30 -12q-5 -1 -15.5 -4.5t-15.5 -4.5h-3q-2 -1 -4 -1.5t-6 -0.5h-12l5 -5q3 -1 6 -6l12 -12q26 -21 33 -26q19 -13 39 -19q10 -3 12 -3h4q2 -1 3 -1h14q1 0 9 2q1 0 7 2q1 1 3.5 2t3.5 1.5t3 2t3 2t3.5 2.5t3 3t2 3t1.5 2.5t3 9.5l3 9q0 3 2 9 q0 2 1 5v6q0 3 1 6v18l-39 326l6 110q14 49 52.5 89.5t92.5 40.5l14 2l2 -6q-2 -1 -4 -2.5t-3.5 -2.5t-3.5 -2.5t-4.5 -1.5t-4.5 -1l-4 -2q-15 -8 -24.5 -15.5t-15.5 -24.5q0 -1 -1 -2.5t-1 -4.5v-3q0 -2 -1 -5.5t-3 -8.5v-4l-3 -15q-1 -5 -1 -13v-9q0 -3 2 -9q0 -1 1 -2v-2 q0 -1 0.5 -2.5t1.5 -6.5q0 -1 1 -3v-3l35 -265q0 -6 1 -7v-15q0 -1 1 -3v-29q-1 -4 -1 -11v-11q-1 -4 -1 -11q-6 -55 -31.5 -109.5t-90.5 -70.5q-3 0 -11 -2l-12 -3q-4 0 -10.5 -1t-9.5 -2h-8q-6 0 -7 -1h-11q-1 1 -4 1h-9q-3 1 -7 1h-6l-144 45l-2 -2h-3q-1 0 -3 1h-8 q-1 0 -3 1h-2q-29 0 -54 -21q-18 -14 -26 -31v2q-1 1 -2 3t-1 4v1q-1 4 -2.5 6.5t-1.5 8.5q0 33 29 61t61 40q3 2 10 4q2 0 8.5 2.5t11.5 3.5t8 1l58 2q0 -2 2 -2q1 0 2 1t7 3q1 1 3 2l4 2l7 8q5 5 6.5 7.5t3.5 9.5v10q0 3 2 11v14q0 2 1 4v13q-1 3 -1 10v10q-1 3 -1 10 q-16 102 -83 102l-8 2q-12 -3 -36 -8q-6 -2 -18 -5q-3 -1 -9 -2.5t-10 -3.5q10 45 50 69q36 22 85 22q0 120 93 213l-7 -3l-9 -5q-4 -2 -13 -4l-30 -9q-18 -2 -28 -2t-32 2q-5 1 -16 3t-17 2t-16 2q-6 0 -14 2q-23 -6 -37.5 -18t-26.5 -34q2 41 29.5 76t67.5 42v2zM428 751 l-161 182h113l75 -182h-27z" />
<glyph unicode="&#xcd;" horiz-adv-x="561" d="M149 680h22q6 -2 32 -4l32 -3q6 0 16 -2l15 -3q11 -1 32 -1l10 2q6 -2 26 0q9 2 26 4h1l1 1q4 0 12 2q4 0 12 2q-68 -75 -78 -145v-16q-1 -3 -1 -6v-4q-1 -1 -1 -4v-8q-2 -14 -2 -19v-40q0 -26 5 -72q4 -42 17 -126l5 -17v-19q-1 -1 -1 -5v-4q-1 -3 -1 -5q-1 -19 -12 -37 q-6 -15 -22 -29q-13 -6 -30 -12q-5 -1 -15.5 -4.5t-15.5 -4.5h-3q-2 -1 -4 -1.5t-6 -0.5h-12l5 -5q3 -1 6 -6l12 -12q26 -21 33 -26q19 -13 39 -19q10 -3 12 -3h4q2 -1 3 -1h14q1 0 9 2q1 0 7 2q1 1 3.5 2t3.5 1.5t3 2t3 2t3.5 2.5t3 3t2 3t1.5 2.5t3 9.5l3 9q0 3 2 9 q0 2 1 5v6q0 3 1 6v18l-39 326l6 110q14 49 52.5 89.5t92.5 40.5l14 2l2 -6q-2 -1 -4 -2.5t-3.5 -2.5t-3.5 -2.5t-4.5 -1.5t-4.5 -1l-4 -2q-15 -8 -24.5 -15.5t-15.5 -24.5q0 -1 -1 -2.5t-1 -4.5v-3q0 -2 -1 -5.5t-3 -8.5v-4l-3 -15q-1 -5 -1 -13v-9q0 -3 2 -9q0 -1 1 -2v-2 q0 -1 0.5 -2.5t1.5 -6.5q0 -1 1 -3v-3l35 -265q0 -6 1 -7v-15q0 -1 1 -3v-29q-1 -4 -1 -11v-11q-1 -4 -1 -11q-6 -55 -31.5 -109.5t-90.5 -70.5q-3 0 -11 -2l-12 -3q-4 0 -10.5 -1t-9.5 -2h-8q-6 0 -7 -1h-11q-1 1 -4 1h-9q-3 1 -7 1h-6l-144 45l-2 -2h-3q-1 0 -3 1h-8 q-1 0 -3 1h-2q-29 0 -54 -21q-18 -14 -26 -31v2q-1 1 -2 3t-1 4v1q-1 4 -2.5 6.5t-1.5 8.5q0 33 29 61t61 40q3 2 10 4q2 0 8.5 2.5t11.5 3.5t8 1l58 2q0 -2 2 -2q1 0 2 1t7 3q1 1 3 2l4 2l7 8q5 5 6.5 7.5t3.5 9.5v10q0 3 2 11v14q0 2 1 4v13q-1 3 -1 10v10q-1 3 -1 10 q-16 102 -83 102l-8 2q-12 -3 -36 -8q-6 -2 -18 -5q-3 -1 -9 -2.5t-10 -3.5q10 45 50 69q36 22 85 22q0 120 93 213l-7 -3l-9 -5q-4 -2 -13 -4l-30 -9q-18 -2 -28 -2t-32 2q-5 1 -16 3t-17 2t-16 2q-6 0 -14 2q-23 -6 -37.5 -18t-26.5 -34q2 41 29.5 76t67.5 42v2zM358 751 h-27l44 182h114z" />
<glyph unicode="&#xce;" horiz-adv-x="561" d="M149 680h22q6 -2 32 -4l32 -3q6 0 16 -2l15 -3q11 -1 32 -1l10 2q6 -2 26 0q9 2 26 4h1l1 1q4 0 12 2q4 0 12 2q-68 -75 -78 -145v-16q-1 -3 -1 -6v-4q-1 -1 -1 -4v-8q-2 -14 -2 -19v-40q0 -26 5 -72q4 -42 17 -126l5 -17v-19q-1 -1 -1 -5v-4q-1 -3 -1 -5q-1 -19 -12 -37 q-6 -15 -22 -29q-13 -6 -30 -12q-5 -1 -15.5 -4.5t-15.5 -4.5h-3q-2 -1 -4 -1.5t-6 -0.5h-12l5 -5q3 -1 6 -6l12 -12q26 -21 33 -26q19 -13 39 -19q10 -3 12 -3h4q2 -1 3 -1h14q1 0 9 2q1 0 7 2q1 1 3.5 2t3.5 1.5t3 2t3 2t3.5 2.5t3 3t2 3t1.5 2.5t3 9.5l3 9q0 3 2 9 q0 2 1 5v6q0 3 1 6v18l-39 326l6 110q14 49 52.5 89.5t92.5 40.5l14 2l2 -6q-2 -1 -4 -2.5t-3.5 -2.5t-3.5 -2.5t-4.5 -1.5t-4.5 -1l-4 -2q-15 -8 -24.5 -15.5t-15.5 -24.5q0 -1 -1 -2.5t-1 -4.5v-3q0 -2 -1 -5.5t-3 -8.5v-4l-3 -15q-1 -5 -1 -13v-9q0 -3 2 -9q0 -1 1 -2v-2 q0 -1 0.5 -2.5t1.5 -6.5q0 -1 1 -3v-3l35 -265q0 -6 1 -7v-15q0 -1 1 -3v-29q-1 -4 -1 -11v-11q-1 -4 -1 -11q-6 -55 -31.5 -109.5t-90.5 -70.5q-3 0 -11 -2l-12 -3q-4 0 -10.5 -1t-9.5 -2h-8q-6 0 -7 -1h-11q-1 1 -4 1h-9q-3 1 -7 1h-6l-144 45l-2 -2h-3q-1 0 -3 1h-8 q-1 0 -3 1h-2q-29 0 -54 -21q-18 -14 -26 -31v2q-1 1 -2 3t-1 4v1q-1 4 -2.5 6.5t-1.5 8.5q0 33 29 61t61 40q3 2 10 4q2 0 8.5 2.5t11.5 3.5t8 1l58 2q0 -2 2 -2q1 0 2 1t7 3q1 1 3 2l4 2l7 8q5 5 6.5 7.5t3.5 9.5v10q0 3 2 11v14q0 2 1 4v13q-1 3 -1 10v10q-1 3 -1 10 q-16 102 -83 102l-8 2q-12 -3 -36 -8q-6 -2 -18 -5q-3 -1 -9 -2.5t-10 -3.5q10 45 50 69q36 22 85 22q0 120 93 213l-7 -3l-9 -5q-4 -2 -13 -4l-30 -9q-18 -2 -28 -2t-32 2q-5 1 -16 3t-17 2t-16 2q-6 0 -14 2q-23 -6 -37.5 -18t-26.5 -34q2 41 29.5 76t67.5 42v2zM236 728 h-29l92 182h105l91 -182h-30l-113 105z" />
<glyph unicode="&#xcf;" horiz-adv-x="561" d="M149 680h22q6 -2 32 -4l32 -3q6 0 16 -2l15 -3q11 -1 32 -1l10 2q6 -2 26 0q9 2 26 4h1l1 1q4 0 12 2q4 0 12 2q-68 -75 -78 -145v-16q-1 -3 -1 -6v-4q-1 -1 -1 -4v-8q-2 -14 -2 -19v-40q0 -26 5 -72q4 -42 17 -126l5 -17v-19q-1 -1 -1 -5v-4q-1 -3 -1 -5q-1 -19 -12 -37 q-6 -15 -22 -29q-13 -6 -30 -12q-5 -1 -15.5 -4.5t-15.5 -4.5h-3q-2 -1 -4 -1.5t-6 -0.5h-12l5 -5q3 -1 6 -6l12 -12q26 -21 33 -26q19 -13 39 -19q10 -3 12 -3h4q2 -1 3 -1h14q1 0 9 2q1 0 7 2q1 1 3.5 2t3.5 1.5t3 2t3 2t3.5 2.5t3 3t2 3t1.5 2.5t3 9.5l3 9q0 3 2 9 q0 2 1 5v6q0 3 1 6v18l-39 326l6 110q14 49 52.5 89.5t92.5 40.5l14 2l2 -6q-2 -1 -4 -2.5t-3.5 -2.5t-3.5 -2.5t-4.5 -1.5t-4.5 -1l-4 -2q-15 -8 -24.5 -15.5t-15.5 -24.5q0 -1 -1 -2.5t-1 -4.5v-3q0 -2 -1 -5.5t-3 -8.5v-4l-3 -15q-1 -5 -1 -13v-9q0 -3 2 -9q0 -1 1 -2v-2 q0 -1 0.5 -2.5t1.5 -6.5q0 -1 1 -3v-3l35 -265q0 -6 1 -7v-15q0 -1 1 -3v-29q-1 -4 -1 -11v-11q-1 -4 -1 -11q-6 -55 -31.5 -109.5t-90.5 -70.5q-3 0 -11 -2l-12 -3q-4 0 -10.5 -1t-9.5 -2h-8q-6 0 -7 -1h-11q-1 1 -4 1h-9q-3 1 -7 1h-6l-144 45l-2 -2h-3q-1 0 -3 1h-8 q-1 0 -3 1h-2q-29 0 -54 -21q-18 -14 -26 -31v2q-1 1 -2 3t-1 4v1q-1 4 -2.5 6.5t-1.5 8.5q0 33 29 61t61 40q3 2 10 4q2 0 8.5 2.5t11.5 3.5t8 1l58 2q0 -2 2 -2q1 0 2 1t7 3q1 1 3 2l4 2l7 8q5 5 6.5 7.5t3.5 9.5v10q0 3 2 11v14q0 2 1 4v13q-1 3 -1 10v10q-1 3 -1 10 q-16 102 -83 102l-8 2q-12 -3 -36 -8q-6 -2 -18 -5q-3 -1 -9 -2.5t-10 -3.5q10 45 50 69q36 22 85 22q0 120 93 213l-7 -3l-9 -5q-4 -2 -13 -4l-30 -9q-18 -2 -28 -2t-32 2q-5 1 -16 3t-17 2t-16 2q-6 0 -14 2q-23 -6 -37.5 -18t-26.5 -34q2 41 29.5 76t67.5 42v2zM448 759 l-53 53l53 54l54 -54zM253 759l-53 53l53 54l54 -54z" />
<glyph unicode="&#xd0;" horiz-adv-x="842" d="M531 225q-2 -1 -15 -4q-17 -3 -48 -16q-11 -4 -28 -19v-58q87 -13 148 -28q16 -4 48 -13q0 1 1 5v4q0 2 1 5v32q-1 3 -1 8v16q-2 10 -2 16l-3 15q-11 8 -36 21q-18 11 -39 12q-2 0 -5 1h-5q-2 0 -5 1h-5zM628 345q-2 -2 -6 -5t-5 -4q-6 -1 -12.5 -4.5t-10.5 -7.5 q-12 -4 -36 -10q-16 -2 -23 -2q-45 0 -93 29v-122q31 13 48 17q9 3 24 5q3 0 11 1h12q8 0 24 -2q8 0 25 -4q12 -5 36 -13q2 -1 6 -2.5t6 -3.5zM440 539v-155q5 -24 22 -33q14 -9 40 -15q14 -3 15 -3h18q2 0 4 1h6q1 0 3 1h2q24 5 36 11.5t34 21.5q0 2 2 8q0 1 1 5v5q0 1 1 2 v12q-1 1 -1 4v5q-1 1 -1 4q-7 34 -34 65.5t-55 45.5q-2 1 -4.5 2t-8.5 3q-2 2 -12 4q-2 0 -6 1h-7q-4 0 -12 2h-14q-1 0 -6 1h-6zM363 384h41v-25h-43q-1 -21 -1 -32v-15q0 -23 1 -30t2 -16l2 -17q0 -3 1 -7v-8q-8 -47 -40 -100l23 2q4 -3 15 -3h17q14 -2 18 -2h9q3 -1 9 -1 v413l-27 -2q-2 -5 -7 -15q0 -2 -2 -7t-3 -8q-2 -9 -8 -30v-4q-1 -3 -1.5 -6t-0.5 -9v-9q-1 -4 -1 -10q-3 -21 -3 -29v-10q0 -7 -1 -20zM283 384h53l6 63l7 32q8 36 17 62l-6 2q-1 -2 -3 -2h-1l-1 -1h-3q-1 -1 -3 -2t-4 -1q-47 -32 -58 -78v-10q0 -1 -1 -10q-1 -12 -1 -21 q-1 -1 -1 -6v-6q0 1 -1 -17v-5zM51 384h125q33 97 138 153l-184 2q-34 0 -67 37q-26 35 -30 71v18q0 3 2 11l1 1v2q0 1 0.5 4.5t0.5 4.5l2 3v5q22 -46 68 -55l337 14q37 -3 107 -10q49 -7 90 -44q38 -34 59 -83q19 -44 31 -93q2 -5 4 -16q0 -4 3 -15t6 -32q2 -8 4 -50 q3 -51 3 -52v-34q0 -12 1 -17v-67q0 -8 -1 -24.5t-1 -24.5q-79 -30 -165 -105q-13 4 -82 21l-42 9q-42 9 -64 9q-32 4 -64 4h-25q-2 -1 -8 -1q-17 -1 -50 -5q-17 -2 -48 -10q-73 -19 -140 -58h-3q-1 0 -2 -1h-6l-1 -1h-7q0 2 2 8q1 3 2 3t2 1.5t1 2.5t1 2h1v1l206 134 q32 21 57 60q22 34 26 79v8q0 1 -1 9.5t-1 16.5q-3 33 -3 34v9q-1 6 -1 9v27h-54v-22v-15q0 -10 1 -14q0 -31 3 -58q-8 -68 -53.5 -117.5t-103.5 -88.5l-37 -25q-24 -16 -35 -21h-13l16 16q6 6 17 18q37 42 45 55q22 33 22 66v4q-1 1 -2 6t-1 9v4q-2 2 -2 4v4q-2 2 -3 7 q-1 0 -1 2q-9 21 -24.5 35t-35.5 14l-12 2l-23 -14q-6 -5 -20 -14l-3 -3l-2 -2q0 45 36 72q33 23 80 23h6l27 2q1 26 6 51h-118v25z" />
<glyph unicode="&#xd1;" horiz-adv-x="797" d="M467 671l47 -10q90 -44 133 -88q58 -61 58 -143q-2 -10 -2 -15q-7 -37 -13 -58l-6 -21q-4 -14 -6 -22l-75 -143l-58 -76q3 0 19 2q35 5 40 5t9 1h16q1 -1 7 -1h15q10 -2 15 -2l15 -3q14 -1 28 -6l18 23l21 -11l-68 -115q-12 1 -24 6q-4 0 -12 2l-12 3h-6q-5 1 -7 1h-12 q-16 2 -24 2q-43 0 -74 -15q-34 -17 -54 -57l-13 4l15 62q31 50 61 120q32 75 48 130q-23 23 -77 34q-5 0 -8 1h-12q-1 -1 -4 -1h-9q-18 0 -40 -12q-19 -7 -36 -24v-128q-7 -76 -67 -134t-139 -58h-23l-122 36q-1 1 -2 1h-2q-19 0 -31 -6q-17 -6 -30 -12l-1 -1h-1 q-1 0 -3 -2q13 36 48 61.5t74 25.5l10 2q4 -3 16 -5q6 -1 20 -3q8 -2 12 -2h4l3 -2h6q10 -2 15 -2h15q20 0 40.5 9.5t27.5 27.5v4q0 1 1 3v6q0 1 1 3v8q0 31 -33 63q-29 28 -64 33h-8l-4 2q-4 -3 -11 -4t-8.5 -1t-3 -1t-4 -2t-6.5 -1h-2q-1 -1 -2 -1h-1q-1 -1 -2 -1l-2 6 q0 1 1 2v1q0 1 1 2v1l2 2q0 1 1 3l1 1v1q29 29 73 29h4q1 -1 4 -1h11q6 -2 9 -2l9 -3v10q-1 1 -1 4t-4 8q-3 9 -3 6q0 1 -1.5 3t-2 3t-1.5 2l-2 2l-6 6l-4 4q-2 1 -3.5 4.5t-6.5 4.5q-1 1 -3.5 3t-3.5 2.5t-2.5 1.5t-2.5 1q-5 2 -7.5 4t-4 3t-3.5 1q-8 4 -17 9q-1 0 -7 2 q-10 2 -13 2h-1q-1 -1 -2 -1h-5q-1 -1 -2 -1h-3l-12 -3q-4 -1 -12 -1l-1 1h-1q-2 0 -2.5 1t-1.5 2h-1q-2 0 -2 2q11 18 26 27.5t31 10.5h7q9 0 34 -5q3 -1 15 -4q8 -2 8.5 -2.5t13.5 -5.5q6 -2 8 -2q3 3 3 9q0 1 1 5v5q-20 39 -56.5 64.5t-79.5 25.5l-9 2q4 4 6 7.5t7 7.5 q2 2 12 4l12 3q1 0 4 1h5q5 0 16 2h7q30 0 76 -14v87zM357 566l-35 -21v-409q0 -46 -26 -85q-20 -30 -50 -47h2q0 -1 1 -1h6q0 -1 2 -1h3q25 0 51 21q20 20 33 46q0 1 1 2v2q0 2 2 4q2 11 3 18q0 -7 2 19l3 39q0 5 1 15v14q0 10 1 15v369zM591 411q-9 -8 -36 -24 q-46 -19 -72 -19q-20 0 -35 5q-2 2 -8.5 4t-9.5 3.5t-9 4t-10 4.5t-14 9l-15 9v-130q14 6 43 14q28 5 42 5q19 0 31 -3t17 -3.5t17.5 -3.5t9.5 -3q4 -1 11 -4q4 -1 11 -3.5t10 -4.5q19 41 19 97v5q-1 1 -1 5v16q-1 1 -1 5v12zM380 566v-116q11 -29 36 -46q23 -13 52 -18h20 q23 0 60 19q22 12 37 31q-12 43 -55 76.5t-91 45.5q-4 2 -24 4q-16 2 -22 2zM328 757h-20q8 52 26 78q29 41 72 41q12 0 31 -5q11 -3 40 -16q53 -24 78 -24q34 0 50 44h18q-12 -118 -102 -118q-28 0 -77 21.5t-68 21.5q-33 0 -48 -43z" />
<glyph unicode="&#xd2;" horiz-adv-x="756" d="M353 680q5 -3 16 -3q3 0 8.5 -1t7.5 -2q11 -1 32 -6q104 -25 186 -95q85 -73 85 -185q0 -64 -30 -115q-27 -46 -67 -101l-110 -96l-70 -47l-101 -39q-1 0 -5 -1h-5q-1 0 -6 -1h-27q-90 0 -160 51q-73 53 -97 139l-14 109l8 75l31 107zM438 289q0 -1 -0.5 -1.5t-1.5 -0.5 h-1q-1 -1 -2 -1q-27 -4 -56 -21q-28 -20 -38 -44v-161q66 7 132 51q63 42 89 110q-7 24 -26 35q-28 24 -70 29q-16 2 -22 2zM271 572v-262q0 -21 -7 -39q-5 -10 -15 -32q-2 -2 -2 -3v-1l-1 -1l-79 -87q30 -34 66 -52.5t81 -24.5v502h-43zM180 517h-4q-1 -3 -2 -2l-1 -1h-1 q-1 -1 -2 -1h-2q-2 -2 -3 -2.5t-2 -0.5q-33 -46 -45 -75q-26 -61 -28 -99q-1 -7 -1 -20l3 -36q6 -26 10 -38l3 -9q2 -3 4.5 -9t9 -19t13.5 -25q6 -8 19 -23q13 14 21 30.5t8 33.5v296zM560 426q-12 -12 -34 -25q-16 -7 -48 -19q-3 0 -7 -1t-6 -1q-13 -2 -25 -2h-8q-2 0 -5 1 h-4q-3 0 -16 3q-35 8 -66 31v-146q11 8 34 20q8 5 36 14q2 1 17 4q6 0 9 1h16q1 -1 7 -1q10 -2 15.5 -2.5t24.5 -6.5q8 -4 24 -11q23 -11 44 -31q7 11 8 17l3 9q0 3 1 8t2 8v7q0 4 1 7v6q0 6 -2 22q0 4 -2 12q0 4 -2 11t-2.5 10.5t-2.5 11.5q0 2 -10 31q-2 6 -2 10v2z M339 566v-103q7 -42 70 -58q8 -2 9.5 -2.5t8.5 -1t15 -0.5h4q1 0 3 1h8q1 0 2 1h2q56 10 82 47q-26 37 -72.5 68.5t-90.5 41.5q-5 1 -18 3q-5 0 -8 1h-9zM385 751l-130 182h113l44 -182h-27z" />
<glyph unicode="&#xd3;" horiz-adv-x="756" d="M353 680q5 -3 16 -3q3 0 8.5 -1t7.5 -2q11 -1 32 -6q104 -25 186 -95q85 -73 85 -185q0 -64 -30 -115q-27 -46 -67 -101l-110 -96l-70 -47l-101 -39q-1 0 -5 -1h-5q-1 0 -6 -1h-27q-90 0 -160 51q-73 53 -97 139l-14 109l8 75l31 107zM438 289q0 -1 -0.5 -1.5t-1.5 -0.5 h-1q-1 -1 -2 -1q-27 -4 -56 -21q-28 -20 -38 -44v-161q66 7 132 51q63 42 89 110q-7 24 -26 35q-28 24 -70 29q-16 2 -22 2zM271 572v-262q0 -21 -7 -39q-5 -10 -15 -32q-2 -2 -2 -3v-1l-1 -1l-79 -87q30 -34 66 -52.5t81 -24.5v502h-43zM180 517h-4q-1 -3 -2 -2l-1 -1h-1 q-1 -1 -2 -1h-2q-2 -2 -3 -2.5t-2 -0.5q-33 -46 -45 -75q-26 -61 -28 -99q-1 -7 -1 -20l3 -36q6 -26 10 -38l3 -9q2 -3 4.5 -9t9 -19t13.5 -25q6 -8 19 -23q13 14 21 30.5t8 33.5v296zM560 426q-12 -12 -34 -25q-16 -7 -48 -19q-3 0 -7 -1t-6 -1q-13 -2 -25 -2h-8q-2 0 -5 1 h-4q-3 0 -16 3q-35 8 -66 31v-146q11 8 34 20q8 5 36 14q2 1 17 4q6 0 9 1h16q1 -1 7 -1q10 -2 15.5 -2.5t24.5 -6.5q8 -4 24 -11q23 -11 44 -31q7 11 8 17l3 9q0 3 1 8t2 8v7q0 4 1 7v6q0 6 -2 22q0 4 -2 12q0 4 -2 11t-2.5 10.5t-2.5 11.5q0 2 -10 31q-2 6 -2 10v2z M339 566v-103q7 -42 70 -58q8 -2 9.5 -2.5t8.5 -1t15 -0.5h4q1 0 3 1h8q1 0 2 1h2q56 10 82 47q-26 37 -72.5 68.5t-90.5 41.5q-5 1 -18 3q-5 0 -8 1h-9zM353 751h-27l44 182h113z" />
<glyph unicode="&#xd4;" horiz-adv-x="756" d="M353 680q5 -3 16 -3q3 0 8.5 -1t7.5 -2q11 -1 32 -6q104 -25 186 -95q85 -73 85 -185q0 -64 -30 -115q-27 -46 -67 -101l-110 -96l-70 -47l-101 -39q-1 0 -5 -1h-5q-1 0 -6 -1h-27q-90 0 -160 51q-73 53 -97 139l-14 109l8 75l31 107zM438 289q0 -1 -0.5 -1.5t-1.5 -0.5 h-1q-1 -1 -2 -1q-27 -4 -56 -21q-28 -20 -38 -44v-161q66 7 132 51q63 42 89 110q-7 24 -26 35q-28 24 -70 29q-16 2 -22 2zM271 572v-262q0 -21 -7 -39q-5 -10 -15 -32q-2 -2 -2 -3v-1l-1 -1l-79 -87q30 -34 66 -52.5t81 -24.5v502h-43zM180 517h-4q-1 -3 -2 -2l-1 -1h-1 q-1 -1 -2 -1h-2q-2 -2 -3 -2.5t-2 -0.5q-33 -46 -45 -75q-26 -61 -28 -99q-1 -7 -1 -20l3 -36q6 -26 10 -38l3 -9q2 -3 4.5 -9t9 -19t13.5 -25q6 -8 19 -23q13 14 21 30.5t8 33.5v296zM560 426q-12 -12 -34 -25q-16 -7 -48 -19q-3 0 -7 -1t-6 -1q-13 -2 -25 -2h-8q-2 0 -5 1 h-4q-3 0 -16 3q-35 8 -66 31v-146q11 8 34 20q8 5 36 14q2 1 17 4q6 0 9 1h16q1 -1 7 -1q10 -2 15.5 -2.5t24.5 -6.5q8 -4 24 -11q23 -11 44 -31q7 11 8 17l3 9q0 3 1 8t2 8v7q0 4 1 7v6q0 6 -2 22q0 4 -2 12q0 4 -2 11t-2.5 10.5t-2.5 11.5q0 2 -10 31q-2 6 -2 10v2z M339 566v-103q7 -42 70 -58q8 -2 9.5 -2.5t8.5 -1t15 -0.5h4q1 0 3 1h8q1 0 2 1h2q56 10 82 47q-26 37 -72.5 68.5t-90.5 41.5q-5 1 -18 3q-5 0 -8 1h-9zM236 728h-29l92 182h105l91 -182h-30l-113 105z" />
<glyph unicode="&#xd5;" horiz-adv-x="756" d="M353 680q5 -3 16 -3q3 0 8.5 -1t7.5 -2q11 -1 32 -6q104 -25 186 -95q85 -73 85 -185q0 -64 -30 -115q-27 -46 -67 -101l-110 -96l-70 -47l-101 -39q-1 0 -5 -1h-5q-1 0 -6 -1h-27q-90 0 -160 51q-73 53 -97 139l-14 109l8 75l31 107zM438 289q0 -1 -0.5 -1.5t-1.5 -0.5 h-1q-1 -1 -2 -1q-27 -4 -56 -21q-28 -20 -38 -44v-161q66 7 132 51q63 42 89 110q-7 24 -26 35q-28 24 -70 29q-16 2 -22 2zM271 572v-262q0 -21 -7 -39q-5 -10 -15 -32q-2 -2 -2 -3v-1l-1 -1l-79 -87q30 -34 66 -52.5t81 -24.5v502h-43zM180 517h-4q-1 -3 -2 -2l-1 -1h-1 q-1 -1 -2 -1h-2q-2 -2 -3 -2.5t-2 -0.5q-33 -46 -45 -75q-26 -61 -28 -99q-1 -7 -1 -20l3 -36q6 -26 10 -38l3 -9q2 -3 4.5 -9t9 -19t13.5 -25q6 -8 19 -23q13 14 21 30.5t8 33.5v296zM560 426q-12 -12 -34 -25q-16 -7 -48 -19q-3 0 -7 -1t-6 -1q-13 -2 -25 -2h-8q-2 0 -5 1 h-4q-3 0 -16 3q-35 8 -66 31v-146q11 8 34 20q8 5 36 14q2 1 17 4q6 0 9 1h16q1 -1 7 -1q10 -2 15.5 -2.5t24.5 -6.5q8 -4 24 -11q23 -11 44 -31q7 11 8 17l3 9q0 3 1 8t2 8v7q0 4 1 7v6q0 6 -2 22q0 4 -2 12q0 4 -2 11t-2.5 10.5t-2.5 11.5q0 2 -10 31q-2 6 -2 10v2z M339 566v-103q7 -42 70 -58q8 -2 9.5 -2.5t8.5 -1t15 -0.5h4q1 0 3 1h8q1 0 2 1h2q56 10 82 47q-26 37 -72.5 68.5t-90.5 41.5q-5 1 -18 3q-5 0 -8 1h-9zM228 757h-20q7 52 26 78q29 41 72 41q12 0 30 -5q12 -3 41 -16q53 -24 78 -24q34 0 49 44h19q-12 -118 -103 -118 q-27 0 -76 21.5t-69 21.5q-32 0 -47 -43z" />
<glyph unicode="&#xd6;" horiz-adv-x="756" d="M353 680q5 -3 16 -3q3 0 8.5 -1t7.5 -2q11 -1 32 -6q104 -25 186 -95q85 -73 85 -185q0 -64 -30 -115q-27 -46 -67 -101l-110 -96l-70 -47l-101 -39q-1 0 -5 -1h-5q-1 0 -6 -1h-27q-90 0 -160 51q-73 53 -97 139l-14 109l8 75l31 107zM438 289q0 -1 -0.5 -1.5t-1.5 -0.5 h-1q-1 -1 -2 -1q-27 -4 -56 -21q-28 -20 -38 -44v-161q66 7 132 51q63 42 89 110q-7 24 -26 35q-28 24 -70 29q-16 2 -22 2zM271 572v-262q0 -21 -7 -39q-5 -10 -15 -32q-2 -2 -2 -3v-1l-1 -1l-79 -87q30 -34 66 -52.5t81 -24.5v502h-43zM180 517h-4q-1 -3 -2 -2l-1 -1h-1 q-1 -1 -2 -1h-2q-2 -2 -3 -2.5t-2 -0.5q-33 -46 -45 -75q-26 -61 -28 -99q-1 -7 -1 -20l3 -36q6 -26 10 -38l3 -9q2 -3 4.5 -9t9 -19t13.5 -25q6 -8 19 -23q13 14 21 30.5t8 33.5v296zM560 426q-12 -12 -34 -25q-16 -7 -48 -19q-3 0 -7 -1t-6 -1q-13 -2 -25 -2h-8q-2 0 -5 1 h-4q-3 0 -16 3q-35 8 -66 31v-146q11 8 34 20q8 5 36 14q2 1 17 4q6 0 9 1h16q1 -1 7 -1q10 -2 15.5 -2.5t24.5 -6.5q8 -4 24 -11q23 -11 44 -31q7 11 8 17l3 9q0 3 1 8t2 8v7q0 4 1 7v6q0 6 -2 22q0 4 -2 12q0 4 -2 11t-2.5 10.5t-2.5 11.5q0 2 -10 31q-2 6 -2 10v2z M339 566v-103q7 -42 70 -58q8 -2 9.5 -2.5t8.5 -1t15 -0.5h4q1 0 3 1h8q1 0 2 1h2q56 10 82 47q-26 37 -72.5 68.5t-90.5 41.5q-5 1 -18 3q-5 0 -8 1h-9zM458 759l-53 53l53 54l54 -54zM263 759l-53 53l53 54l53 -54z" />
<glyph unicode="&#xd7;" horiz-adv-x="667" d="M82 516l63 64l189 -190l188 190l64 -64l-188 -189l186 -187l-63 -63l-187 186l-188 -186l-63 63l188 187z" />
<glyph unicode="&#xd8;" horiz-adv-x="756" d="M579 727h51l-76 -113q63 -43 98.5 -105t35.5 -131v-26q-1 -1 -1 -5v-5q-1 -3 -1 -5q-20 -81 -81 -147l-122 -116l-103 -60l-66 -24h-10q-2 0 -5 -1h-16q-2 0 -5 -1h-5q-38 0 -70 8l-12 3q-16 2 -23 5.5t-18 5.5q-3 2 -8.5 4t-9.5 3l-76 -102h-50l87 128q-95 101 -95 236 v4q1 1 1 4v16q1 1 1 4v9q0 24 8 55q6 28 14 54q3 8 7 22q0 4 1 6t3 8l327 221q5 -2 38 -11q26 -7 39 -10q18 -7 39 -12l12 -3q8 -2 8.5 -3t5.5 -2t6.5 -2t5.5 -1zM314 267l-116 -166l62 -37l54 -10v213zM436 285q-58 -19 -97 -64v-163q140 15 215 149v10q0 11 -12 23 q-7 8 -26 21q-5 4 -16 8q-7 5 -11.5 6t-5.5 2l-3 1h-3q-4 0 -10 2q-10 2 -15.5 2t-8.5 1h-7v2zM178 514l-50 -57l-33 -79v-5q-1 -3 -1.5 -5.5t-0.5 -7.5v-3q-1 -2 -1.5 -4t-1 -6t-0.5 -12q0 -1 -1 -3v-10q0 -10 1 -21q2 -47 30 -105q25 -42 58 -58v376zM560 421 q-55 -49 -126 -49h-12q-2 0 -4 0.5t-4 1.5h-3q-1 0 -2 1h-2q-1 0 -5 0.5t-6 1t-4 1.5h-4l-49 -70v-44q11 8 34 20q8 5 36 14q3 1 9 2t8 1q6 0 9 1h16q1 -1 7 -1q10 -2 15.5 -2.5t24.5 -6.5q8 -3 24 -11q24 -13 44 -33q1 2 2.5 4.5t1.5 3.5q0 -7 6 17q0 2 2 8q1 2 4 16 q0 5 1 9v17q-1 3 -1 9v4q-1 3 -1 5q-2 6 -2 8q-1 11 -6 26q-3 10 -3.5 13t-5 14t-4.5 17v2zM273 570v-283l41 60v223h-41zM339 380l111 151l-70 27q-6 -1 -15 0q-5 0 -15 2h-11v-180zM481 517l-74 -112q3 -3 6 -3h2q1 -1 2 -1h3q1 -1 4 -1h2q0 -1 2 -1q6 -2 10 -2h17 q21 0 47 11.5t39 33.5q-11 24 -26 39q-5 7 -34 34v2z" />
<glyph unicode="&#xd9;" horiz-adv-x="822" d="M424 688l4 -19v-225q2 -4 5.5 -9.5t4.5 -10.5q42 -19 66 -19h10q3 0 11 2q20 2 58 23v123h-1v1q-1 0 -2 2t-7 9q-9 9 -21 15q-7 4 -16 5h-5l-2 2l-35 -39l-15 10l106 126l97 -62l45 41h15q-2 -5 -6 -16q-2 -5 -7 -14q-2 -4 -6 -14l-6 -14q-2 -8 -5 -15t-7 -13l-3 -455 q3 -29 19 -45l5 2l4.5 3t5 2t4.5 1l4 2l5 3l9 3h1v-1l1 -1l1 -3q1 -2 2 -3l2 -2l2 -2v-2l-98 -91q-17 0 -26 9q-6 3 -20 20q0 2 -1.5 3.5t-1.5 2.5l-2 3q-1 2 -2 2q-1 5 -6 9l-16 40q-11 27 -11 37q-116 -103 -199 -114l-107 -2q-97 10 -159 91q-60 77 -60 176v8q0 1 1 5v7 q0 2 1 4v11q18 96 82.5 175.5t150.5 121.5l13 8l-79 -20l-111 2q-31 -5 -50 -23q-22 -21 -36 -45q-3 -5 -9 -17q-1 -2 -3 -7.5t-4 -8.5l-8 4v1q-1 0 -1.5 2.5t-1.5 5t-1 5.5v3q-1 1 -1 3v3q-1 0 -1 2v18l3 14q11 52 54 92.5t94 40.5l20 2l104 -33q4 -4 7.5 -4.5t10.5 -0.5 q1 -1 4 -1h5q7 0 32 5q7 3 21 7.5t21 7.5l6 6q2 3 7 6l3 3q1 0 3 2t4 3t2.5 1t1.5 1h5q1 1 2 1h14v2zM529 287h-21q-14 -2 -42 -10q-21 -8 -38 -21v-175q80 3 155 53v128q-7 2 -12.5 5.5t-14.5 6.5q-18 8 -27 11v2zM403 640q-4 -10 -6.5 -15.5t-6 -12.5t-6.5 -12t-6 -13 l-6 -19v-291q-26 -78 -124 -147q37 -27 73.5 -37t81.5 -10v557zM343 591q-81 -40 -128.5 -114t-47.5 -163v-12q0 -3 1 -7v-6q4 -17 10 -51q3 -8 8 -25q10 -18 22 -34q2 -3 23 -32q18 25 27 54.5t9 62.5v28q-2 10 -2 31q-1 4 -1 15q-1 3 -1 8v4q-1 1 -1 4v6q-1 4 -1.5 6.5 t-0.5 10.5v40q0 6 2 17q4 31 9 48q15 48 42 75q9 13 28 28zM428 285q36 23 76 23h5q1 -1 5 -1h5q3 -1 6 -1q13 -1 30.5 -8t27.5 -15v124q-2 -2 -5 -4.5t-7.5 -4.5t-13 -4.5t-25.5 -8.5l-24 -3q-9 0 -13 0.5t-31 7.5q-5 3 -26 10q0 1 -2 2t-4 1t-4 2v-120zM476 751l-130 182 h113l45 -182h-28z" />
<glyph unicode="&#xda;" horiz-adv-x="822" d="M424 688l4 -19v-225q2 -4 5.5 -9.5t4.5 -10.5q42 -19 66 -19h10q3 0 11 2q20 2 58 23v123h-1v1q-1 0 -2 2t-7 9q-9 9 -21 15q-7 4 -16 5h-5l-2 2l-35 -39l-15 10l106 126l97 -62l45 41h15q-2 -5 -6 -16q-2 -5 -7 -14q-2 -4 -6 -14l-6 -14q-2 -8 -5 -15t-7 -13l-3 -455 q3 -29 19 -45l5 2l4.5 3t5 2t4.5 1l4 2l5 3l9 3h1v-1l1 -1l1 -3q1 -2 2 -3l2 -2l2 -2v-2l-98 -91q-17 0 -26 9q-6 3 -20 20q0 2 -1.5 3.5t-1.5 2.5l-2 3q-1 2 -2 2q-1 5 -6 9l-16 40q-11 27 -11 37q-116 -103 -199 -114l-107 -2q-97 10 -159 91q-60 77 -60 176v8q0 1 1 5v7 q0 2 1 4v11q18 96 82.5 175.5t150.5 121.5l13 8l-79 -20l-111 2q-31 -5 -50 -23q-22 -21 -36 -45q-3 -5 -9 -17q-1 -2 -3 -7.5t-4 -8.5l-8 4v1q-1 0 -1.5 2.5t-1.5 5t-1 5.5v3q-1 1 -1 3v3q-1 0 -1 2v18l3 14q11 52 54 92.5t94 40.5l20 2l104 -33q4 -4 7.5 -4.5t10.5 -0.5 q1 -1 4 -1h5q7 0 32 5q7 3 21 7.5t21 7.5l6 6q2 3 7 6l3 3q1 0 3 2t4 3t2.5 1t1.5 1h5q1 1 2 1h14v2zM529 287h-21q-14 -2 -42 -10q-21 -8 -38 -21v-175q80 3 155 53v128q-7 2 -12.5 5.5t-14.5 6.5q-18 8 -27 11v2zM403 640q-4 -10 -6.5 -15.5t-6 -12.5t-6.5 -12t-6 -13 l-6 -19v-291q-26 -78 -124 -147q37 -27 73.5 -37t81.5 -10v557zM343 591q-81 -40 -128.5 -114t-47.5 -163v-12q0 -3 1 -7v-6q4 -17 10 -51q3 -8 8 -25q10 -18 22 -34q2 -3 23 -32q18 25 27 54.5t9 62.5v28q-2 10 -2 31q-1 4 -1 15q-1 3 -1 8v4q-1 1 -1 4v6q-1 4 -1.5 6.5 t-0.5 10.5v40q0 6 2 17q4 31 9 48q15 48 42 75q9 13 28 28zM428 285q36 23 76 23h5q1 -1 5 -1h5q3 -1 6 -1q13 -1 30.5 -8t27.5 -15v124q-2 -2 -5 -4.5t-7.5 -4.5t-13 -4.5t-25.5 -8.5l-24 -3q-9 0 -13 0.5t-31 7.5q-5 3 -26 10q0 1 -2 2t-4 1t-4 2v-120zM397 751h-27 l44 182h114z" />
<glyph unicode="&#xdb;" horiz-adv-x="822" d="M424 688l4 -19v-225q2 -4 5.5 -9.5t4.5 -10.5q42 -19 66 -19h10q3 0 11 2q20 2 58 23v123h-1v1q-1 0 -2 2t-7 9q-9 9 -21 15q-7 4 -16 5h-5l-2 2l-35 -39l-15 10l106 126l97 -62l45 41h15q-2 -5 -6 -16q-2 -5 -7 -14q-2 -4 -6 -14l-6 -14q-2 -8 -5 -15t-7 -13l-3 -455 q3 -29 19 -45l5 2l4.5 3t5 2t4.5 1l4 2l5 3l9 3h1v-1l1 -1l1 -3q1 -2 2 -3l2 -2l2 -2v-2l-98 -91q-17 0 -26 9q-6 3 -20 20q0 2 -1.5 3.5t-1.5 2.5l-2 3q-1 2 -2 2q-1 5 -6 9l-16 40q-11 27 -11 37q-116 -103 -199 -114l-107 -2q-97 10 -159 91q-60 77 -60 176v8q0 1 1 5v7 q0 2 1 4v11q18 96 82.5 175.5t150.5 121.5l13 8l-79 -20l-111 2q-31 -5 -50 -23q-22 -21 -36 -45q-3 -5 -9 -17q-1 -2 -3 -7.5t-4 -8.5l-8 4v1q-1 0 -1.5 2.5t-1.5 5t-1 5.5v3q-1 1 -1 3v3q-1 0 -1 2v18l3 14q11 52 54 92.5t94 40.5l20 2l104 -33q4 -4 7.5 -4.5t10.5 -0.5 q1 -1 4 -1h5q7 0 32 5q7 3 21 7.5t21 7.5l6 6q2 3 7 6l3 3q1 0 3 2t4 3t2.5 1t1.5 1h5q1 1 2 1h14v2zM529 287h-21q-14 -2 -42 -10q-21 -8 -38 -21v-175q80 3 155 53v128q-7 2 -12.5 5.5t-14.5 6.5q-18 8 -27 11v2zM403 640q-4 -10 -6.5 -15.5t-6 -12.5t-6.5 -12t-6 -13 l-6 -19v-291q-26 -78 -124 -147q37 -27 73.5 -37t81.5 -10v557zM343 591q-81 -40 -128.5 -114t-47.5 -163v-12q0 -3 1 -7v-6q4 -17 10 -51q3 -8 8 -25q10 -18 22 -34q2 -3 23 -32q18 25 27 54.5t9 62.5v28q-2 10 -2 31q-1 4 -1 15q-1 3 -1 8v4q-1 1 -1 4v6q-1 4 -1.5 6.5 t-0.5 10.5v40q0 6 2 17q4 31 9 48q15 48 42 75q9 13 28 28zM428 285q36 23 76 23h5q1 -1 5 -1h5q3 -1 6 -1q13 -1 30.5 -8t27.5 -15v124q-2 -2 -5 -4.5t-7.5 -4.5t-13 -4.5t-25.5 -8.5l-24 -3q-9 0 -13 0.5t-31 7.5q-5 3 -26 10q0 1 -2 2t-4 1t-4 2v-120zM300 718h-29 l92 183h106l90 -183h-29l-114 105z" />
<glyph unicode="&#xdc;" horiz-adv-x="822" d="M424 688l4 -19v-225q2 -4 5.5 -9.5t4.5 -10.5q42 -19 66 -19h10q3 0 11 2q20 2 58 23v123h-1v1q-1 0 -2 2t-7 9q-9 9 -21 15q-7 4 -16 5h-5l-2 2l-35 -39l-15 10l106 126l97 -62l45 41h15q-2 -5 -6 -16q-2 -5 -7 -14q-2 -4 -6 -14l-6 -14q-2 -8 -5 -15t-7 -13l-3 -455 q3 -29 19 -45l5 2l4.5 3t5 2t4.5 1l4 2l5 3l9 3h1v-1l1 -1l1 -3q1 -2 2 -3l2 -2l2 -2v-2l-98 -91q-17 0 -26 9q-6 3 -20 20q0 2 -1.5 3.5t-1.5 2.5l-2 3q-1 2 -2 2q-1 5 -6 9l-16 40q-11 27 -11 37q-116 -103 -199 -114l-107 -2q-97 10 -159 91q-60 77 -60 176v8q0 1 1 5v7 q0 2 1 4v11q18 96 82.5 175.5t150.5 121.5l13 8l-79 -20l-111 2q-31 -5 -50 -23q-22 -21 -36 -45q-3 -5 -9 -17q-1 -2 -3 -7.5t-4 -8.5l-8 4v1q-1 0 -1.5 2.5t-1.5 5t-1 5.5v3q-1 1 -1 3v3q-1 0 -1 2v18l3 14q11 52 54 92.5t94 40.5l20 2l104 -33q4 -4 7.5 -4.5t10.5 -0.5 q1 -1 4 -1h5q7 0 32 5q7 3 21 7.5t21 7.5l6 6q2 3 7 6l3 3q1 0 3 2t4 3t2.5 1t1.5 1h5q1 1 2 1h14v2zM529 287h-21q-14 -2 -42 -10q-21 -8 -38 -21v-175q80 3 155 53v128q-7 2 -12.5 5.5t-14.5 6.5q-18 8 -27 11v2zM403 640q-4 -10 -6.5 -15.5t-6 -12.5t-6.5 -12t-6 -13 l-6 -19v-291q-26 -78 -124 -147q37 -27 73.5 -37t81.5 -10v557zM343 591q-81 -40 -128.5 -114t-47.5 -163v-12q0 -3 1 -7v-6q4 -17 10 -51q3 -8 8 -25q10 -18 22 -34q2 -3 23 -32q18 25 27 54.5t9 62.5v28q-2 10 -2 31q-1 4 -1 15q-1 3 -1 8v4q-1 1 -1 4v6q-1 4 -1.5 6.5 t-0.5 10.5v40q0 6 2 17q4 31 9 48q15 48 42 75q9 13 28 28zM428 285q36 23 76 23h5q1 -1 5 -1h5q3 -1 6 -1q13 -1 30.5 -8t27.5 -15v124q-2 -2 -5 -4.5t-7.5 -4.5t-13 -4.5t-25.5 -8.5l-24 -3q-9 0 -13 0.5t-31 7.5q-5 3 -26 10q0 1 -2 2t-4 1t-4 2v-120zM512 759l-53 53 l53 54l54 -54zM318 759l-54 53l54 54l53 -54z" />
<glyph unicode="&#xdd;" horiz-adv-x="689" d="M128 680q117 -11 141 -103q48 39 95 59q31 13 69 18q1 0 5 1h22q3 -1 9 -1t42 -9q73 -27 102 -102q25 -64 25 -123v-27q0 -19 -9 -73q-4 -23 -15 -66q-4 -11 -44 -66q-68 -71 -175 -83h-269q-42 -11 -69 -36q-32 -29 -32 -69q0 -3 1 -10q0 1 3 -14q0 1 6 -17 q12 -23 34.5 -32.5t44.5 -9.5h6q3 1 7 1q16 0 44 8q4 1 6 3h2q0 1 0.5 1.5t2.5 0.5q56 26 94 41q47 18 92 18q3 0 30 -3q11 -2 32 -8q5 -4 15 -6q6 -2 15.5 -8t18.5 -21q6 -10 12 -28v-6q0 -2 1 -4v-3q0 -16 -8.5 -28.5t-28.5 -19.5h-12q-1 1 -2 1q-11 1 -23 14q-7 7 -13 24 v8l1 1v5l1 1v2q0 2 1 2.5t2.5 3t2 3.5t2 3.5l1.5 2.5l2 2v2q0 2 2 8q0 1 1 3v9q-2 2 -3.5 3t-3.5 1l-2 2q-1 1 -3 2t-4 1q-19 -6 -46 -20l-23 -12l-74 -39q-43 -21 -79 -29q-3 -1 -9.5 -2t-11.5 -1t-8 -1h-9q-6 0 -21 2q-7 1 -21.5 5.5t-42.5 17.5q-26 19 -41 45t-19 54v23 q0 40 26.5 72.5t65.5 45.5q10 4 28 8h9q2 0 4 1h13q1 0 5 1h4v26q-1 1 -1 5v10q-8 47 -40.5 89.5t-76.5 61.5q6 2 10 3l12 3q2 0 4 1h19q3 -1 8 -1q13 -2 18 -3q14 -3 12 -3q4 -1 11.5 -3.5t21.5 -8.5v4q0 1 1 3v7q0 1 1 2v5q0 33 -26 62q-33 37 -75 61q-3 2 -10 6 q-1 1 -4 3t-5 2q20 10 54 10h6q3 -1 6 -1h12q4 0 11 -1.5t10 -2.5h5q3 -1 5 -1q6 -2 9 -2v105l-21 40q-27 27 -91 31q11 18 26 24q23 10 35 10h13q4 0 7 1h6v2zM432 295h-19q-6 -2 -9 -2q-12 -3 -19.5 -4t-9.5 -1q-8 -2 -11 -2.5t-9.5 -2t-17.5 -6.5q-1 -1 -3 -4l-5 -6 q-2 -2 -5 -9v-138q1 -2 3 -2h2q0 -1 2 -1h7q0 -1 2 -1h5q57 0 96 35t61 85v3l1 1v4l1 1v1q0 12 -13 23t-27 16l-9 3q-3 0 -9 2q-10 2 -14 3v2zM306 572l-37 -31v-421h37v452zM508 436q-8 -9 -29 -23q-20 -9 -31.5 -12t-16.5 -3.5t-16 -0.5q-42 0 -89 27v-133q1 0 19 8 q11 5 21 6q4 2 20 4q6 0 10 1h9q7 0 25 -2q8 -2 13 -2q2 0 6.5 -1t6.5 -2q16 -6 25 -10q5 -1 13 -6q6 -1 12 -6q2 8 2.5 13.5t2 11.5t4.5 29q0 5 1 6v7q0 4 1 7v16q-1 11 -3 31q-1 9 -6 32v2zM357 591q-3 -3 -12 -4t-12 -4t-5 -6t-2.5 -5t-1.5 -4v-111q9 -19 29 -30.5 t36 -11.5h17q1 0 3 1h3q4 0 15.5 2.5t38.5 12.5q12 6 32 19q1 1 2 3l1 2q0 4 1 5.5t2 2.5v11q-1 1 -2 6t-2 9v2q-1 0 -1.5 0.5t-1 3t-1.5 5.5q-6 18 -6 17q-47 74 -112 74h-2q-1 -1 -3 -1h-9q-1 -1 -4 -1h-3v2zM358 751h-27l44 182h114z" />
<glyph unicode="&#xde;" horiz-adv-x="844" d="M436 -141h-183v161q-148 -4 -222 -72l-13 15q110 118 235 146q-24 130 -183 171v24l183 114v304h183v-185l137 89q149 -90 187 -175q18 -39 18 -98v-256l-151 -134q-115 42 -191 48v-152zM412 521v180h-57v-217zM436 368q50 -43 116 -43q68 0 126 43q1 7 1 10 q0 58 -80 116q-49 35 -103 59l-60 -41v-144zM412 -119v615l-57 -38v-577h57zM253 390l-107 -71q63 -25 107 -71v142zM436 216q67 38 118 38q70 0 124 -42v129q-62 -39 -131 -39q-51 0 -111 39v-125zM436 109q107 -5 242 -68v137q-44 53 -118 53q-65 0 -124 -44v-78z" />
<glyph unicode="&#xdf;" horiz-adv-x="520" d="M163 665l106 -29l-23 -72l-81 21v-184l137 97h8q51 -80 128 -91l-128 -122q6 -2 6.5 -2.5t4.5 -0.5q8 -2 12 -2q38 -7 76 -43q35 -33 35 -76v-2q-1 -1 -1 -3v-6q-1 -1 -1 -3v-4q-5 -29 -25 -58q-16 -24 -43 -46l-4 -2l-106 -56q-14 -11 -23.5 -21.5t-9.5 -27.5v-6l3 -10 q1 -4 1 -5l2 -3q1 -2 2 -5l1 -1v-1q8 -8 14 -9q9 -4 19 -4h4q1 1 4 1h10q6 2 8 2q6 2 9 2q1 -1 2 -3l1 -2q1 -3 4 -6q0 -1 1 -2v-2q0 -2 2 -4q-2 -14 -27 -19h-9q-3 1 -6 1l-12 3q-6 3 -19 9q-3 2 -9 5q-1 1 -3 2l-4 3l-5.5 5.5t-5 4.5t-2.5 2.5t-1.5 4t-2.5 4.5l-3 9 q-3 12 -3 10q-1 3 -1 8q0 25 18 49q8 11 42 41l27 24q29 26 38 54q5 16 5 34v23q-12 32 -39 44q-21 9 -58 12l-29 2l-4 8l126 124l-87 83l-75 -50l-6 -12v-240q22 -29 42 -41h2q0 -1 1 -1h1q0 -1 0.5 -2t2.5 -1h3l37 35l17 -19l-110 -99h-10q-31 31 -57 47q-30 18 -67 33 q22 16 30 41q9 21 9 52v257h-50l11 57h39v104q17 9 51 35q27 21 48 43v2z" />
<glyph unicode="&#xe0;" horiz-adv-x="408" d="M176 496l134 -52v-1l2 2q2 3 10.5 10t14.5 8q1 0 3 1h3q1 0 3 1h3l4 2l-11 -19q-4 -6 -9 -18l-17 -39l-2 -282q1 -4 2 -5l1 -3v-3q0 -1 1 -3v-2l7 -10q1 -1 10 -8q0 -2 2 -2h1q0 -1 1 -1l18 13l15 -13l-87 -76h-6q-17 0 -29 14q-15 20 -19 35q-3 7 -6.5 23t-3.5 19v7 q-1 0 -1 2v5q-1 1 -1 3v6l-132 -114q-36 20 -58.5 55.5t-22.5 74.5v5q0 1 1 3v10q0 1 1 3v2q0 1 8 31q22 81 85 132l-49 140q1 -3 3 -3h6q0 -1 2 -1h14q3 0 5 0.5t4 1.5h2q21 3 47 15q23 11 41 29v2zM122 293q-18 -24 -24.5 -44t-6.5 -44v-14q0 -8 2 -14q8 -53 47 -107l11 6 l70 62v98zM83 430l39 -110l97 -56v116l-124 50h-12zM247 522l-131 182h114l44 -182h-27z" />
<glyph unicode="&#xe1;" horiz-adv-x="408" d="M176 496l134 -52v-1l2 2q2 3 10.5 10t14.5 8q1 0 3 1h3q1 0 3 1h3l4 2l-11 -19q-4 -6 -9 -18l-17 -39l-2 -282q1 -4 2 -5l1 -3v-3q0 -1 1 -3v-2l7 -10q1 -1 10 -8q0 -2 2 -2h1q0 -1 1 -1l18 13l15 -13l-87 -76h-6q-17 0 -29 14q-15 20 -19 35q-3 7 -6.5 23t-3.5 19v7 q-1 0 -1 2v5q-1 1 -1 3v6l-132 -114q-36 20 -58.5 55.5t-22.5 74.5v5q0 1 1 3v10q0 1 1 3v2q0 1 8 31q22 81 85 132l-49 140q1 -3 3 -3h6q0 -1 2 -1h14q3 0 5 0.5t4 1.5h2q21 3 47 15q23 11 41 29v2zM122 293q-18 -24 -24.5 -44t-6.5 -44v-14q0 -8 2 -14q8 -53 47 -107l11 6 l70 62v98zM83 430l39 -110l97 -56v116l-124 50h-12zM187 522h-27l44 182h114z" />
<glyph unicode="&#xe2;" horiz-adv-x="408" d="M176 496l134 -52v-1l2 2q2 3 10.5 10t14.5 8q1 0 3 1h3q1 0 3 1h3l4 2l-11 -19q-4 -6 -9 -18l-17 -39l-2 -282q1 -4 2 -5l1 -3v-3q0 -1 1 -3v-2l7 -10q1 -1 10 -8q0 -2 2 -2h1q0 -1 1 -1l18 13l15 -13l-87 -76h-6q-17 0 -29 14q-15 20 -19 35q-3 7 -6.5 23t-3.5 19v7 q-1 0 -1 2v5q-1 1 -1 3v6l-132 -114q-36 20 -58.5 55.5t-22.5 74.5v5q0 1 1 3v10q0 1 1 3v2q0 1 8 31q22 81 85 132l-49 140q1 -3 3 -3h6q0 -1 2 -1h14q3 0 5 0.5t4 1.5h2q21 3 47 15q23 11 41 29v2zM122 293q-18 -24 -24.5 -44t-6.5 -44v-14q0 -8 2 -14q8 -53 47 -107l11 6 l70 62v98zM83 430l39 -110l97 -56v116l-124 50h-12zM95 523h-29l92 183h105l91 -183h-30l-113 105z" />
<glyph unicode="&#xe3;" horiz-adv-x="408" d="M176 496l134 -52v-1l2 2q2 3 10.5 10t14.5 8q1 0 3 1h3q1 0 3 1h3l4 2l-11 -19q-4 -6 -9 -18l-17 -39l-2 -282q1 -4 2 -5l1 -3v-3q0 -1 1 -3v-2l7 -10q1 -1 10 -8q0 -2 2 -2h1q0 -1 1 -1l18 13l15 -13l-87 -76h-6q-17 0 -29 14q-15 20 -19 35q-3 7 -6.5 23t-3.5 19v7 q-1 0 -1 2v5q-1 1 -1 3v6l-132 -114q-36 20 -58.5 55.5t-22.5 74.5v5q0 1 1 3v10q0 1 1 3v2q0 1 8 31q22 81 85 132l-49 140q1 -3 3 -3h6q0 -1 2 -1h14q3 0 5 0.5t4 1.5h2q21 3 47 15q23 11 41 29v2zM122 293q-18 -24 -24.5 -44t-6.5 -44v-14q0 -8 2 -14q8 -53 47 -107l11 6 l70 62v98zM83 430l39 -110l97 -56v116l-124 50h-12zM73 552h-20q7 53 25 79q30 40 73 40q11 0 30 -5q12 -3 40 -16q53 -24 78 -24q34 0 50 45h18q-11 -119 -102 -119q-27 0 -76 21.5t-69 21.5q-32 0 -47 -43z" />
<glyph unicode="&#xe4;" horiz-adv-x="408" d="M176 496l134 -52v-1l2 2q2 3 10.5 10t14.5 8q1 0 3 1h3q1 0 3 1h3l4 2l-11 -19q-4 -6 -9 -18l-17 -39l-2 -282q1 -4 2 -5l1 -3v-3q0 -1 1 -3v-2l7 -10q1 -1 10 -8q0 -2 2 -2h1q0 -1 1 -1l18 13l15 -13l-87 -76h-6q-17 0 -29 14q-15 20 -19 35q-3 7 -6.5 23t-3.5 19v7 q-1 0 -1 2v5q-1 1 -1 3v6l-132 -114q-36 20 -58.5 55.5t-22.5 74.5v5q0 1 1 3v10q0 1 1 3v2q0 1 8 31q22 81 85 132l-49 140q1 -3 3 -3h6q0 -1 2 -1h14q3 0 5 0.5t4 1.5h2q21 3 47 15q23 11 41 29v2zM122 293q-18 -24 -24.5 -44t-6.5 -44v-14q0 -8 2 -14q8 -53 47 -107l11 6 l70 62v98zM83 430l39 -110l97 -56v116l-124 50h-12zM307 578l-53 54l53 53l54 -53zM113 578l-54 54l54 53l53 -53z" />
<glyph unicode="&#xe5;" horiz-adv-x="408" d="M176 496l134 -52v-1l2 2q2 3 10.5 10t14.5 8q1 0 3 1h3q1 0 3 1h3l4 2l-11 -19q-4 -6 -9 -18l-17 -39l-2 -282q1 -4 2 -5l1 -3v-3q0 -1 1 -3v-2l7 -10q1 -1 10 -8q0 -2 2 -2h1q0 -1 1 -1l18 13l15 -13l-87 -76h-6q-17 0 -29 14q-15 20 -19 35q-3 7 -6.5 23t-3.5 19v7 q-1 0 -1 2v5q-1 1 -1 3v6l-132 -114q-36 20 -58.5 55.5t-22.5 74.5v5q0 1 1 3v10q0 1 1 3v2q0 1 8 31q22 81 85 132l-49 140q1 -3 3 -3h6q0 -1 2 -1h14q3 0 5 0.5t4 1.5h2q21 3 47 15q23 11 41 29v2zM122 293q-18 -24 -24.5 -44t-6.5 -44v-14q0 -8 2 -14q8 -53 47 -107l11 6 l70 62v98zM83 430l39 -110l97 -56v116l-124 50h-12zM190 691q34 0 58 -23.5t24 -57.5t-24 -58t-58 -24t-57.5 24t-23.5 58t23.5 57.5t57.5 23.5zM190 663q-22 0 -37.5 -15.5t-15.5 -37.5q0 -23 15.5 -38.5t37.5 -15.5t38 15.5t16 38.5q0 22 -15.5 37.5t-38.5 15.5z" />
<glyph unicode="&#xe6;" horiz-adv-x="541" d="M176 496l122 -46l62 46l128 -132q-6 -6 -17.5 -16.5t-16.5 -15.5q-9 -9 -17 -15q-4 -3 -17 -16q-3 -3 -4 -3t-5 -4l-8 -8q-14 -14 -21.5 -19.5t-21.5 -18.5q-17 -17 -42 -37v-91q28 -39 81 -48l64 48l16 -17l-138 -111q-29 19 -52 29q-18 9 -56 22l-12 64l-130 -111 q-3 0 -9.5 2t-9.5 2q-28 31 -47 63.5t-19 68.5q0 6 0.5 10t2.5 12v1q0 1 1 2v6l2 3v3q11 38 37.5 77.5t51.5 67.5l-49 145q3 -3 6 -3h4q1 -1 3 -1h1q0 -1 1 -1h5q0 -1 2 -1h5q11 0 17.5 1.5t17.5 3.5q7 2 22 8l6 3q4 2 6 2q4 4 11 6l8 8q1 0 2 1.5t7 7.5v2zM120 289l-9 -26 l-3 -12q-2 -8 -3.5 -12.5t-4.5 -23.5q-3 -15 -3 -25v-8q0 -4 1 -8q8 -64 49 -108l74 64l2 101zM318 405v-157l83 68zM85 434l41 -110l93 -57v115z" />
<glyph unicode="&#xe7;" horiz-adv-x="330" d="M184 10l107 81q-6 6 -6 11l-3 3q-2 2 -3 4t-2 3l-50 -38l-24 12l-16 10q-24 10 -40 26v285q43 -35 89 -50l45 67l-105 74v-2h-5q-6 1 -12.5 -5t-10.5 -9l-24 -24q-8 -5 -13 -9.5t-9 -7.5q-30 -21 -50 -26v-285q0 -35 -27 -66q60 -12 136 -65l-29 -59h7l1 1h2l1 1h2 q35 0 62 -27q1 -3 3 -11q0 1 2 -7q0 -2 1 -3v-3v-10q-1 -2 -1 -4v-10v-2q-2 -2 -2 -5v-4q-1 -1 -1 -3q-5 -7 -17.5 -13.5t-21.5 -7.5q-2 0 -3 -1h-10q-1 1 -4 1h-4q-1 1 -4 1q-15 4 -31.5 17t-24.5 26l-37 -25v-8l6 -6l11 -4q7 -3 16 -6q53 -17 82 -17h6q3 1 6 1h7q1 1 7 1 l30 6q39 15 52 57q0 4 1 5v5q0 3 1 4v7q-1 1 -1 3v6q-2 5 -3.5 9.5t-3.5 8.5l-8 10q-3 4 -5 7q-7 3 -11 5.5t-12 4.5t-13 4t-9 4q-11 2 -17.5 3.5t-17.5 1.5h-4q-3 0 -4 -1h-5q-2 0 -2 -1h-2l27 49h-2z" />
<glyph unicode="&#xe8;" horiz-adv-x="346" d="M174 498l130 -134l-172 -151v-99l83 -40l62 46l14 -19l-134 -105h-4q-5 0 -14 2.5t-11.5 3t-23.5 15.5q-2 1 -6 5l-3 3q-2 2 -5 3.5t-10.5 6t-18.5 6.5l-9 3q-3 0 -7.5 1t-9.5 2t-9.5 3t-19.5 4q33 33 33 78v279q35 13 71 37q30 20 64 48v2zM132 409v-157q6 1 14 8l15 12 q2 1 3.5 2.5t2.5 2t3 2t2.5 2t4.5 3.5t6 5q9 5 19 13.5t17 15.5zM183 522l-131 182h114l44 -182h-27z" />
<glyph unicode="&#xe9;" horiz-adv-x="346" d="M174 498l130 -134l-172 -151v-99l83 -40l62 46l14 -19l-134 -105h-4q-5 0 -14 2.5t-11.5 3t-23.5 15.5q-2 1 -6 5l-3 3q-2 2 -5 3.5t-10.5 6t-18.5 6.5l-9 3q-3 0 -7.5 1t-9.5 2t-9.5 3t-19.5 4q33 33 33 78v279q35 13 71 37q30 20 64 48v2zM132 409v-157q6 1 14 8l15 12 q2 1 3.5 2.5t2.5 2t3 2t2.5 2t4.5 3.5t6 5q9 5 19 13.5t17 15.5zM138 522h-27l44 182h114z" />
<glyph unicode="&#xea;" horiz-adv-x="346" d="M174 498l130 -134l-172 -151v-99l83 -40l62 46l14 -19l-134 -105h-4q-5 0 -14 2.5t-11.5 3t-23.5 15.5q-2 1 -6 5l-3 3q-2 2 -5 3.5t-10.5 6t-18.5 6.5l-9 3q-3 0 -7.5 1t-9.5 2t-9.5 3t-19.5 4q33 33 33 78v279q35 13 71 37q30 20 64 48v2zM132 409v-157q6 1 14 8l15 12 q2 1 3.5 2.5t2.5 2t3 2t2.5 2t4.5 3.5t6 5q9 5 19 13.5t17 15.5zM45 523h-29l92 183h106l90 -183h-29l-114 105z" />
<glyph unicode="&#xeb;" horiz-adv-x="346" d="M174 498l130 -134l-172 -151v-99l83 -40l62 46l14 -19l-134 -105h-4q-5 0 -14 2.5t-11.5 3t-23.5 15.5q-2 1 -6 5l-3 3q-2 2 -5 3.5t-10.5 6t-18.5 6.5l-9 3q-3 0 -7.5 1t-9.5 2t-9.5 3t-19.5 4q33 33 33 78v279q35 13 71 37q30 20 64 48v2zM132 409v-157q6 1 14 8l15 12 q2 1 3.5 2.5t2.5 2t3 2t2.5 2t4.5 3.5t6 5q9 5 19 13.5t17 15.5zM258 578l-53 54l53 53l54 -53zM63 578l-54 54l54 53l53 -53z" />
<glyph unicode="&#xec;" horiz-adv-x="239" d="M101 492l73 -66l-29 -38v-281q0 -16 4.5 -25.5t17.5 -15.5l23 19l15 -15l-89 -76q-24 0 -40 16q-23 23 -25 50q-1 4 -1 12v318l-23 40zM131 522l-130 182h113l44 -182h-27z" />
<glyph unicode="&#xed;" horiz-adv-x="239" d="M101 492l73 -66l-29 -38v-281q0 -16 4.5 -25.5t17.5 -15.5l23 19l15 -15l-89 -76q-24 0 -40 16q-23 23 -25 50q-1 4 -1 12v318l-23 40zM86 522h-27l44 182h114z" />
<glyph unicode="&#xee;" horiz-adv-x="239" d="M101 492l73 -66l-29 -38v-281q0 -16 4.5 -25.5t17.5 -15.5l23 19l15 -15l-89 -76q-24 0 -40 16q-23 23 -25 50q-1 4 -1 12v318l-23 40zM-6 523h-29l92 183h105l91 -183h-30l-113 105z" />
<glyph unicode="&#xef;" horiz-adv-x="239" d="M101 492l73 -66l-29 -38v-281q0 -16 4.5 -25.5t17.5 -15.5l23 19l15 -15l-89 -76q-24 0 -40 16q-23 23 -25 50q-1 4 -1 12v318l-23 40zM206 578l-53 54l53 53l54 -53zM12 578l-54 54l54 53l53 -53z" />
<glyph unicode="&#xf0;" horiz-adv-x="408" d="M167 426l-31 -19v-281l110 -45v279zM-5 473l36 58l-23 19l2 95l65 -44l36 57l31 -20l-37 -58l207 -142q2 1 8 9q3 3 11.5 10.5t21.5 13.5l-10 -33v-364q-24 -10 -71 -33l-65 -41q-2 0 -2.5 -1t-3.5 -3.5t-5 -3.5l-76 47l-108 35q29 25 29 64v275l89 37l-70 57l-34 -54z " />
<glyph unicode="&#xf1;" horiz-adv-x="454" d="M89 498q27 -24 46 -52t20 -62l124 112l68 -68l41 35l13 -13q-1 -3 -2 -4l-2 -2q-27 -27 -37 -64v-268l1 -5q1 -5 2.5 -7t2.5 -7q1 -1 3 -3.5t3 -3.5t5 -6t7 -6l21 17l16 -17l-92 -78q-22 7 -37 24q-17 23 -23 40v302q-2 0 -2 1.5t-1 3.5t-2 2q-2 7 -6 12q-6 12 -15 18 q-8 10 -18 12l-10 2l-62 -60v-241q3 -9 9.5 -20t12.5 -17q3 -3 4.5 -5.5l1.5 -2.5l3 -3q-47 -51 -79 -66l-74 68l29 31v279q0 5 -5 13q-3 5 -10 14q-6 3 -6 6l-22 -8l-9 14zM81 552h-20q7 53 26 79q29 40 72 40q12 0 31 -5q11 -3 40 -16q53 -24 78 -24q34 0 49 45h19 q-12 -119 -103 -119q-27 0 -76 21.5t-69 21.5q-32 0 -47 -43z" />
<glyph unicode="&#xf2;" horiz-adv-x="408" d="M180 498q27 -23 64 -41.5t66 -26.5l33 -9v-345l-151 -80l-128 66l-52 14l21 31l6 33v275q38 7 75 29.5t66 51.5v2zM136 409v-287l110 -48v288zM213 522l-131 182h114l44 -182h-27z" />
<glyph unicode="&#xf3;" horiz-adv-x="408" d="M180 498q27 -23 64 -41.5t66 -26.5l33 -9v-345l-151 -80l-128 66l-52 14l21 31l6 33v275q38 7 75 29.5t66 51.5v2zM136 409v-287l110 -48v288zM168 522h-27l44 182h114z" />
<glyph unicode="&#xf4;" horiz-adv-x="408" d="M180 498q27 -23 64 -41.5t66 -26.5l33 -9v-345l-151 -80l-128 66l-52 14l21 31l6 33v275q38 7 75 29.5t66 51.5v2zM136 409v-287l110 -48v288zM75 523h-29l92 183h106l90 -183h-29l-114 105z" />
<glyph unicode="&#xf5;" horiz-adv-x="408" d="M180 498q27 -23 64 -41.5t66 -26.5l33 -9v-345l-151 -80l-128 66l-52 14l21 31l6 33v275q38 7 75 29.5t66 51.5v2zM136 409v-287l110 -48v288zM53 552h-20q7 53 26 79q29 40 72 40q12 0 30 -5q12 -3 41 -16q53 -24 78 -24q34 0 49 45h18q-11 -119 -102 -119 q-27 0 -76 21.5t-69 21.5q-32 0 -47 -43z" />
<glyph unicode="&#xf6;" horiz-adv-x="408" d="M180 498q27 -23 64 -41.5t66 -26.5l33 -9v-345l-151 -80l-128 66l-52 14l21 31l6 33v275q38 7 75 29.5t66 51.5v2zM136 409v-287l110 -48v288zM288 578l-53 54l53 53l54 -53zM93 578l-54 54l54 53l53 -53z" />
<glyph unicode="&#xf7;" horiz-adv-x="667" d="M332 587q23 0 38.5 -16t15.5 -39q0 -22 -16 -38t-38 -16q-23 0 -39 15.5t-16 38.5t15.5 39t39.5 16zM63 371h540v-86h-540v86zM332 182q23 0 39.5 -16t16.5 -39t-16.5 -39t-39.5 -16t-39 16t-16 39t16 39t39 16z" />
<glyph unicode="&#xf8;" horiz-adv-x="408" d="M293 583h48l-54 -141l58 -21v-347l-105 -47l-42 -31l-2 1q-3 1 -5 2t-6.5 2t-13.5 6q0 1 -2.5 2t-3.5 1l-3 2l-4 2l-6 3l-6 4q-1 1 -6 3q0 1 -1.5 2t-2.5 1l-51 -132h-44l54 155l-87 26q15 8 23 24.5t9 29.5q0 1 1 3v282q34 6 70 27.5t60 49.5h3q1 0 2 1h5q1 0 2 1h6 q0 -1 1.5 -1t5 -1t5.5 -1q6 -2 9 -4.5t10 -6.5q3 -3 9 -7.5t9 -6.5t8 -7zM250 355l-89 -250l91 -37v287h-2zM132 409v-281l93 246l-82 35h-11z" />
<glyph unicode="&#xf9;" horiz-adv-x="454" d="M99 498h8l73 -64q-7 -21 -20 -34l-9 -9l-2 -261q0 -15 6.5 -27t18.5 -22h1q0 -1 1.5 -2t2 -1t1.5 -1v-1h2q0 -2 2 -2h2l4 5h2l70 64v250l-29 35l79 70l72 -64l4 -10l-28 -34v-283l5 -15q3 -3 8 -10q0 -2 2 -2q0 -5 5 -5q0 -1 2 -3l21 15l14 -13l-86 -82h-5q-1 1 -2.5 1 t-7.5 2q-1 1 -6 3q-50 34 -50 101v2q0 1 1 2v4q0 1 1 2v1l-136 -114l-2 1l-2 2l-1 1h-2q-24 19 -41.5 41.5t-23.5 49.5v302l-19 20l-16 -10l-11 12zM211 522l-131 182h114l44 -182h-27z" />
<glyph unicode="&#xfa;" horiz-adv-x="454" d="M99 498h8l73 -64q-7 -21 -20 -34l-9 -9l-2 -261q0 -15 6.5 -27t18.5 -22h1q0 -1 1.5 -2t2 -1t1.5 -1v-1h2q0 -2 2 -2h2l4 5h2l70 64v250l-29 35l79 70l72 -64l4 -10l-28 -34v-283l5 -15q3 -3 8 -10q0 -2 2 -2q0 -5 5 -5q0 -1 2 -3l21 15l14 -13l-86 -82h-5q-1 1 -2.5 1 t-7.5 2q-1 1 -6 3q-50 34 -50 101v2q0 1 1 2v4q0 1 1 2v1l-136 -114l-2 1l-2 2l-1 1h-2q-24 19 -41.5 41.5t-23.5 49.5v302l-19 20l-16 -10l-11 12zM226 522h-27l44 182h114z" />
<glyph unicode="&#xfb;" horiz-adv-x="454" d="M99 498h8l73 -64q-7 -21 -20 -34l-9 -9l-2 -261q0 -15 6.5 -27t18.5 -22h1q0 -1 1.5 -2t2 -1t1.5 -1v-1h2q0 -2 2 -2h2l4 5h2l70 64v250l-29 35l79 70l72 -64l4 -10l-28 -34v-283l5 -15q3 -3 8 -10q0 -2 2 -2q0 -5 5 -5q0 -1 2 -3l21 15l14 -13l-86 -82h-5q-1 1 -2.5 1 t-7.5 2q-1 1 -6 3q-50 34 -50 101v2q0 1 1 2v4q0 1 1 2v1l-136 -114l-2 1l-2 2l-1 1h-2q-24 19 -41.5 41.5t-23.5 49.5v302l-19 20l-16 -10l-11 12zM90 523h-30l93 183h105l90 -183h-29l-114 105z" />
<glyph unicode="&#xfc;" horiz-adv-x="454" d="M99 498h8l73 -64q-7 -21 -20 -34l-9 -9l-2 -261q0 -15 6.5 -27t18.5 -22h1q0 -1 1.5 -2t2 -1t1.5 -1v-1h2q0 -2 2 -2h2l4 5h2l70 64v250l-29 35l79 70l72 -64l4 -10l-28 -34v-283l5 -15q3 -3 8 -10q0 -2 2 -2q0 -5 5 -5q0 -1 2 -3l21 15l14 -13l-86 -82h-5q-1 1 -2.5 1 t-7.5 2q-1 1 -6 3q-50 34 -50 101v2q0 1 1 2v4q0 1 1 2v1l-136 -114l-2 1l-2 2l-1 1h-2q-24 19 -41.5 41.5t-23.5 49.5v302l-19 20l-16 -10l-11 12zM312 578l-53 54l53 53l54 -53zM117 578l-53 54l53 53l53 -53z" />
<glyph unicode="&#xfd;" horiz-adv-x="433" d="M105 496q2 -2 9 -3.5t11 -5t14 -15.5q3 -2 6.5 -6.5t7.5 -10.5q0 -2 1 -2.5t3.5 -3.5t3.5 -5l3 -9q1 -4 3 -10l3 -9q1 -2 2 -5.5t1 -4.5q0 -6 2 -14l3 -12l128 116h8q30 -50 46 -96l9 -34q2 -4 4 -24q0 -8 1 -11v-16q-1 -3 -1 -6v-10q-1 -6 -3.5 -17t-3.5 -17 q-29 -77 -89 -129q-87 -75 -211 -142q-14 -12 -21 -20.5t-14 -29.5v-6q0 -5 1 -8q0 1 7 -20q5 -5 6 -9q33 -19 54 -21q3 0 6 -1h5q5 0 6 -1h15q1 1 3 1q13 2 19 4t14 10v2h1q0 1 1 1q5 10 17 20t23 10q6 -4 14 -16q0 -1 1 -2v-1q0 -1 1 -2v-3q-1 0 -1 -1v-5q-1 0 -1 -1v-2 q-12 -17 -33 -24q-31 -11 -44 -11h-12q-1 0 -6 -1h-21q-3 1 -5 1q-15 1 -42 6q-54 13 -54 62q0 13 5 29q10 31 39 60q9 11 17 29t9 30v308l-5 15q-2 1 -2 3v2q-1 0 -1.5 1.5t-5.5 2.5q-1 2 -6 3q-7 -3 -20 -12q-2 -2 -8 -7t-9 -8l-17 17zM240 401l-64 -58v-254q37 26 67 74 t37 92q0 7 2 17q0 5 1 9v15q-1 1 -1 6v7q-1 1 -1 7q-7 49 -41 83v2zM198 522h-27l44 182h113z" />
<glyph unicode="&#xfe;" horiz-adv-x="448" d="M19 75v39q37 10 65 12v417q0 68 -17 95q-10 16 -35 35l8 10q44 -13 80 -52q62 66 135 69v-13q-41 -22 -57 -56q-13 -28 -13 -81v-147l125 116q85 -62 97 -106q4 -13 4 -58v-252q-79 -40 -143 -106q-27 20 -83 44v-37q0 -47 9 -73q12 -34 46 -56l-6 -14q-75 23 -112 73 q-26 -28 -67 -44l-7 12q36 25 36 108v58q-27 6 -65 7zM185 379v-253q82 -14 127 -36v266q0 30 -5 37q-12 16 -57 45z" />
<glyph unicode="&#xff;" horiz-adv-x="433" d="M105 496q2 -2 9 -3.5t11 -5t14 -15.5q3 -2 6.5 -6.5t7.5 -10.5q0 -2 1 -2.5t3.5 -3.5t3.5 -5l3 -9q1 -4 3 -10l3 -9q1 -3 2 -9.5t3 -14.5l3 -12l128 116h8q30 -50 46 -96l9 -34q2 -4 4 -24q0 -8 1 -11v-16q-1 -3 -1 -6v-10q-1 -6 -3.5 -17t-3.5 -17q-29 -77 -89 -129 q-87 -75 -211 -142q-14 -12 -21 -20.5t-14 -29.5v-6q0 -5 1 -8q0 1 7 -20q5 -5 6 -9q33 -19 54 -21q3 0 6 -1h5q5 0 6 -1h15q1 1 3 1q13 2 19 4t14 10v2h1q0 1 1 1q5 10 17 20t23 10q6 -4 14 -16q0 -1 1 -2v-1q0 -1 1 -2v-3q-1 0 -1 -1v-5q-1 0 -1 -1v-2q-12 -17 -33 -24 q-31 -11 -44 -11h-12q-1 0 -6 -1h-21q-3 1 -5 1q-15 1 -42 6q-54 13 -54 62q0 13 5 29q10 31 39 60q9 11 17 29t9 30v308l-5 15q-2 1 -2 3v2q-1 0 -1.5 1.5t-5.5 2.5q-1 2 -6 3q-7 -3 -20 -12q-2 -2 -8 -7t-9 -8l-17 17zM240 401l-64 -58v-254q37 26 67 74t37 92q0 7 2 17 q0 5 1 9v15q-1 1 -1 6v7q-1 1 -1 7q-7 49 -41 83v2zM308 578l-54 54l54 53l53 -53zM113 578l-54 54l54 53l53 -53z" />
<glyph unicode="&#x152;" horiz-adv-x="1245" d="M438 289l-1 -2h-1h-1q-1 -1 -2 -1q-27 -4 -56 -21q-28 -20 -38 -44v-161q66 7 132 51q63 42 89 110q-7 24 -26 35q-28 24 -70 29q-16 2 -22 2zM271 572v-262q0 -21 -7 -39q-5 -10 -15 -32q-2 -2 -2 -3v-1l-1 -1l-79 -87q30 -34 66 -52.5t81 -24.5v502h-43zM180 517h-4 q-1 -3 -2 -2l-1 -1h-1q-1 -1 -2 -1h-2q-2 -2 -3 -2.5t-2 -0.5q-33 -46 -45 -75q-26 -61 -28 -99q-1 -7 -1 -20l3 -36q6 -26 10 -38l3 -9q2 -3 4 -10q7 -15 23 -43q6 -8 19 -23q13 14 21 30.5t8 33.5v296zM339 566v-103q7 -42 70 -58q8 -2 9 -2t9.5 -1t14.5 -1h4q1 0 3 1h8 q1 0 2 1h2q56 10 82 47q-26 37 -72.5 68.5t-90.5 41.5q-5 1 -18 3q-5 0 -8 1h-9zM581 290v3q0 19 1 34q0 2 -1 11q0 4 -2 12q0 4 -2 11t-2.5 10.5t-2.5 11.5q0 2 -10 31q-2 6 -2 10v2q-12 -12 -34 -25q-16 -7 -48 -19q2 0 -13 -2t-25 -2h-8q-2 0 -5 1h-4q-3 0 -16 3 q-35 8 -66 31v-146q11 8 34 20q8 5 36 14q2 1 17 4q6 0 9 1h16q1 -1 7 -1q10 -2 15.5 -2.5t24.5 -6.5q8 -4 24 -11q23 -11 44 -31q7 11 8 17l3 9q0 3 2 9v1zM949 684q88 -60 186 -60h9q3 0 11 2q1 0 5 1h5q1 0 5 1h4l-143 -153h108l-50 -103h-167v-289l3 -2q0 -1 2 -1h6 l15 -3h15q57 0 113 26.5t98 65.5q-6 -52 -48 -92q-38 -37 -90 -62q-7 -4 -20 -9q-7 -1 -17 -4.5t-31 -6.5l-15 -3q-5 0 -13.5 -1t-11.5 -2h-11q-7 0 -10 -1h-19q-89 0 -171 50.5t-115 139.5l-2 6q-5 -7 -9 -12l-110 -96l-70 -47l-101 -39q-1 0 -5 -1h-5q-1 0 -6 -1h-27 q-90 0 -160 51q-73 53 -97 139l-14 109l8 75l31 107l318 211q5 -3 16 -3q3 0 8.5 -1t7.5 -2q11 -1 32 -6q104 -25 186 -95q33 -29 47 -70q68 94 146 119l19 2q-145 -125 -145 -246v-2l1 -1v-3l1 -1v-1q0 -98 56 -172v-2h1q0 -1 0.5 -1t1.5 -1v-1h1v-1l10 25q4 37 10 113 q0 6 1 19v35l-1 16q-2 33 -2 34q-2 14 -2 22q-2 14 -2 22v6q-1 1 -1 5v6q-1 1 -1 5zM895 585l-39 -35v-228l-8 -35q-46 -67 -83 -104l-8 -8q-3 -3 -3 -4l-4 -4q63 -66 145 -86v504zM922 570v-177l124 130z" />
<glyph unicode="&#x153;" horiz-adv-x="558" d="M236 78q6 11 10 24v260l-110 47v-287zM385 497l130 -134l-172 -151v-99l83 -40l62 46l14 -19l-134 -105h-4q-5 0 -14 2.5t-11.5 3t-23.5 15.5q-2 1 -6 5l-3 3q-2 2 -5 3.5t-10 6t-17 6.5l-82 -44l-128 66l-52 14l21 31l6 33v275q38 7 75 29.5t66 51.5v2q27 -23 63 -41 q32 -16 56 -24q34 20 86 62v2zM343 408v-157q6 1 14 8l15 12q2 1 3.5 2.5t2 1.5t3 2t3 2.5t4.5 3.5t6 5q9 5 19 13.5t17 15.5z" />
<glyph unicode="&#x178;" horiz-adv-x="689" d="M128 680q117 -11 141 -103q48 39 95 59q31 13 69 18q1 0 5 1h22q3 -1 9 -1t42 -9q73 -27 102 -102q25 -64 25 -123v-27q0 -19 -9 -73q-4 -23 -15 -66q-4 -11 -44 -66q-68 -71 -175 -83h-269q-42 -11 -69 -36q-32 -29 -32 -69q0 -3 1 -10q0 1 3 -14q0 1 6 -17 q12 -23 34.5 -32.5t44.5 -9.5h6q3 1 7 1q16 0 44 8q4 1 6 3h2q0 1 0.5 1.5t2.5 0.5q56 26 94 41q47 18 92 18q3 0 30 -3q11 -2 32 -8q5 -4 15 -6q6 -2 15.5 -8t18.5 -21q6 -10 12 -28v-6q0 -2 1 -4v-3q0 -16 -8.5 -28.5t-28.5 -19.5h-12q-1 1 -2 1q-11 1 -23 14q-7 7 -13 24 v8l1 1v5l1 1v2q0 2 1 2.5t2.5 3t2 3.5t2 3.5l1.5 2.5l2 2v2q0 2 2 8q0 1 1 3v9q-2 2 -3.5 3t-3.5 1l-2 2q-1 1 -3 2t-4 1q-19 -6 -46 -20l-23 -12l-74 -39q-43 -21 -79 -29q-3 -1 -9.5 -2t-11.5 -1t-8 -1h-9q-6 0 -21 2q-7 1 -21.5 5.5t-42.5 17.5q-26 19 -41 45t-19 54v23 q0 40 26.5 72.5t65.5 45.5q10 4 28 8h9q2 0 4 1h13q1 0 5 1h4v26q-1 1 -1 5v10q-8 47 -40.5 89.5t-76.5 61.5q6 2 10 3l12 3q2 0 4 1h19q3 -1 8 -1q13 -2 18 -3q14 -3 12 -3q4 -1 11.5 -3.5t21.5 -8.5v4q0 1 1 3v7q0 1 1 2v5q0 33 -26 62q-33 37 -75 61q-3 2 -10 6 q-1 1 -4 3t-5 2q20 10 54 10h6q3 -1 6 -1h12q4 0 11 -1.5t10 -2.5h5q3 -1 5 -1q6 -2 9 -2v105l-21 40q-27 27 -91 31q11 18 26 24q23 10 35 10h13q4 0 7 1h6v2zM432 295h-19q-6 -2 -9 -2q-12 -3 -19.5 -4t-9.5 -1q-8 -2 -11 -2.5t-9.5 -2t-17.5 -6.5q-1 -1 -3 -4l-5 -6 q-2 -2 -5 -9v-138q1 -2 3 -2h2q0 -1 2 -1h7q0 -1 2 -1h5q57 0 96 35t61 85v3l1 1v4l1 1v1q0 12 -13 23t-27 16l-9 3q-3 0 -9 2q-10 2 -14 3v2zM306 572l-37 -31v-421h37v452zM508 436q-8 -9 -29 -23q-20 -9 -31.5 -12t-16.5 -3.5t-16 -0.5q-42 0 -89 27v-133q1 0 19 8 q11 5 21 6q4 2 20 4q6 0 10 1h9q7 0 25 -2q8 -2 13 -2q2 0 6.5 -1t6.5 -2q16 -6 25 -10q5 -1 13 -6q6 -1 12 -6q2 8 2.5 13.5t2 11.5t4.5 29q0 5 1 6v7q0 4 1 7v16q-1 11 -3 31q-1 9 -6 32v2zM357 591q-3 -3 -12 -4t-12 -4t-5 -6t-2.5 -5t-1.5 -4v-111q9 -19 29 -30.5 t36 -11.5h17q1 0 3 1h3q4 0 15.5 2.5t38.5 12.5q12 6 32 19q1 1 2 3l1 2q0 4 1 5.5t2 2.5v11q-1 1 -2 6t-2 9v2q-1 0 -1.5 0.5t-1 3t-1.5 5.5q-6 18 -6 17q-47 74 -112 74h-2q-1 -1 -3 -1h-9q-1 -1 -4 -1h-3v2zM478 768l-53 54l53 53l54 -53zM283 768l-53 54l53 53l54 -53z " />
<glyph unicode="&#x2c6;" horiz-adv-x="346" d="M45 523h-29l92 183h106l90 -183h-29l-114 105z" />
<glyph unicode="&#x2dc;" horiz-adv-x="454" d="M81 552h-20q7 53 26 79q29 40 72 40q12 0 31 -5q11 -3 40 -16q53 -24 78 -24q34 0 49 45h19q-12 -119 -103 -119q-27 0 -76 21.5t-69 21.5q-32 0 -47 -43z" />
<glyph unicode="&#x2013;" horiz-adv-x="500" d="M-6 272h512v-44h-512v44z" />
<glyph unicode="&#x2014;" horiz-adv-x="1000" d="M-6 272h1012v-44h-1012v44z" />
<glyph unicode="&#x2018;" horiz-adv-x="281" d="M213 565l-71 -72l-73 68q27 118 133 169l11 -17q-32 -27 -39 -38q-11 -18 -11 -36q0 -33 50 -74z" />
<glyph unicode="&#x2019;" horiz-adv-x="281" d="M67 658l73 72l71 -67q-26 -119 -132 -170l-12 17q33 27 39 38q12 18 12 36q0 33 -51 74z" />
<glyph unicode="&#x201a;" horiz-adv-x="281" d="M67 78l73 72l71 -67q-26 -119 -132 -170l-12 17q33 27 39 38q12 18 12 36q0 33 -51 74z" />
<glyph unicode="&#x201c;" horiz-adv-x="448" d="M213 565l-71 -72l-73 68q27 118 133 169l11 -17q-32 -27 -39 -38q-11 -18 -11 -36q0 -33 50 -74zM396 565l-71 -72l-73 68q27 118 133 169l11 -17q-32 -27 -39 -38q-11 -18 -11 -36q0 -33 50 -74z" />
<glyph unicode="&#x201d;" horiz-adv-x="448" d="M67 658l73 72l71 -67q-26 -119 -132 -170l-12 17q33 27 39 38q12 18 12 36q0 33 -51 74zM252 658l73 72l71 -67q-26 -119 -132 -170l-12 17q33 27 39 38q12 18 12 36q0 33 -51 74z" />
<glyph unicode="&#x201e;" horiz-adv-x="448" d="M67 78l73 72l71 -67q-26 -119 -132 -170l-12 17q33 27 39 38q12 18 12 36q0 33 -51 74zM261 78l73 72l71 -67q-26 -119 -132 -170l-12 17q33 27 39 38q12 18 12 36q0 33 -51 74z" />
<glyph unicode="&#x2022;" horiz-adv-x="350" d="M177 470q59 0 99 -40.5t40 -99.5q0 -58 -40.5 -99t-98.5 -41t-98.5 41t-40.5 99q0 59 40.5 99.5t98.5 40.5z" />
<glyph unicode="&#x2026;" horiz-adv-x="1010" d="M168 0l-74 74l74 75l75 -75zM505 0l-74 74l74 75l75 -75zM842 0l-74 74l74 75l75 -75z" />
<glyph unicode="&#x2039;" horiz-adv-x="367" d="M194 401h79l-128 -159l126 -157h-77l-130 155z" />
<glyph unicode="&#x203a;" horiz-adv-x="367" d="M68 399h77l126 -159l-128 -155h-81l126 155z" />
<glyph unicode="&#x2122;" horiz-adv-x="980" d="M25 662h355l11 -98h-16q-10 69 -95 69h-37v-283q0 -37 8.5 -50t43.5 -14v-18h-183v18q34 3 41.5 15t7.5 49v283h-37q-43 0 -64 -14.5t-29 -54.5h-16zM564 662l134 -279l129 279h136v-18q-36 -1 -45 -14t-9 -52v-228q0 -39 9 -50.5t45 -13.5v-18h-194v18q21 0 31 3 q16 4 23 18q4 10 4 42v240l-150 -321h-15l-151 317v-235q0 -33 3 -40q8 -24 43 -24h17v-18h-149v18q42 0 51 20q4 10 4 44v227q0 41 -8 52q-10 15 -47 15v18h139z" />
<glyph unicode="&#xe000;" horiz-adv-x="500" d="M0 500h500v-500h-500v500z" />
<glyph unicode="&#xfb01;" horiz-adv-x="474" d="M337 492l-3 -2l-173 -11v100l83 -17l23 78l-102 25l-99 -80v-106l-43 -2l-11 -53l54 -3v-272q0 -44 -39 -75q72 -26 128 -82l114 99q-8 11 -10 11q-1 0 -4 2v1q-1 1 -1 2l-39 -33q-14 4 -24 12q-3 3 -9.5 9t-9.5 8q-2 3 -4 8.5t-4 7.5q-3 15 -3 17v288l103 7l-1 -1 l23 -40v-318q0 -9 1 -12q1 -26 25 -50q16 -16 40 -16l89 76l-15 15l-23 -19q-13 6 -17.5 15.5t-4.5 25.5v281l29 38zM370 653l-20 -108l80 108h-60z" />
<glyph unicode="&#xfb02;" horiz-adv-x="507" d="M267 95q-3 3 -8 6l-4 3v1q-1 1 -1 2l-39 -33q-14 4 -24 12q-3 3 -9.5 9t-9.5 8q-2 3 -4 8.5t-4 7.5q-3 15 -3 17v288h64l13 55h-77v100l83 -17l20 69q14 -18 22 -45v-440q0 -28 -19 -51zM404 670v-2q-26 -6 -45 -22q-14 -10 -36 -35q-2 0 -2 2q-5 0 -5 5l-3 3 q-13 12 -21.5 16.5t-12.5 5.5q-6 4 -17 6.5t-13 4.5l-6 -2q2 -2 5 -4t5 -4l-88 21l-99 -80v-106l-43 -2l-11 -53l54 -3v-272q0 -44 -39 -75q72 -26 128 -82l97 84q33 -14 62 -33.5t59 -49.5l95 84l-15 17l-18 -14l-54 41v444q4 30 15 57q9 23 37 48h-29z" />
<glyph unicode="&#xfb03;" horiz-adv-x="841" d="M703 492l73 -66l-29 -38v-281q0 -16 4.5 -25.5t17.5 -15.5l23 19l15 -15l-89 -76q-24 0 -40 16q-23 23 -25 50q-1 4 -1 12v318l-23 40zM736 653h60l-80 -108zM466 665l102 -25l-23 -78l-83 17v-100h77l-13 -55h-64v-288q0 -2 3 -17q2 -2 4 -7.5t4.5 -8t9 -8.5t9.5 -9 q11 -7 24 -12l39 33q0 -1 1 -2v-1q0 -1 1.5 -1t3 -1t1.5 -1.5t3 -2.5t5 -7l-114 -99q-57 57 -128 82q39 32 39 75v272l-54 3l11 53l43 2v106zM165 665l102 -25l-23 -78l-83 17v-100h77l-13 -55h-64v-288q0 -2 3 -17q2 -2 4 -7.5t4.5 -8t9 -8.5t9.5 -9q11 -7 24 -12l39 33 q0 -1 1 -2v-1q0 -1 1.5 -1t3 -1t1.5 -1.5t3 -2.5t5 -7l-114 -99q-57 57 -128 82q39 32 39 75v272l-54 3l11 53l43 2v106z" />
<glyph unicode="&#xfb04;" horiz-adv-x="882" d="M780 669h29q-28 -25 -37 -48q-10 -27 -15 -57v-444l54 -41l18 14l15 -17l-95 -84q-30 30 -58 49q-32 22 -68 36q39 25 39 68v440q-11 40 -43 66l6 2q3 -3 7.5 -3t11.5 -3l12 -5q3 -1 11.5 -5.5t21.5 -16.5l3 -3q0 -5 5 -5q0 -2 2 -2q21 24 36 35q19 16 45 22v2zM466 665 l102 -25l-23 -78l-83 17v-100h77l-13 -55h-64v-288q0 -2 3 -17q2 -2 4 -7.5t4.5 -8t9 -8.5t9.5 -9q11 -7 24 -12l39 33q0 -1 1 -2v-1q0 -1 1.5 -1t3 -1t1.5 -1.5t3 -2.5t5 -7l-114 -99q-57 57 -128 82q39 32 39 75v272l-54 3l11 53l43 2v106zM165 665l102 -25l-23 -78 l-83 17v-100h77l-13 -55h-64v-288q0 -2 3 -17q2 -2 4 -7.5t4.5 -8t9 -8.5t9.5 -9q11 -7 24 -12l39 33q0 -1 1 -2v-1q0 -1 1.5 -1t3 -1t1.5 -1.5t3 -2.5t5 -7l-114 -99q-57 57 -128 82q39 32 39 75v272l-54 3l11 53l43 2v106z" />
</font>
</defs>
</svg>
